<?xml version="1.0" encoding="UTF-8"?>
<svg width="20px" height="23px" viewBox="0 0 20 23" version="1.1" xmlns="http://www.w3.org/2000/svg" xmlns:xlink="http://www.w3.org/1999/xlink">
    <!-- Generator: Sketch 52.5 (67469) - http://www.bohemiancoding.com/sketch -->
    <title>paper</title>
    <desc>Created with Sketch.</desc>
    <defs>
        <polygon id="path-1" points="0 0 20 0 20 23 0 23"></polygon>
    </defs>
    <g id="paper" stroke="none" stroke-width="1" fill="none" fill-rule="evenodd">
        <g id="Group-3">
            <mask id="mask-2" fill="white">
                <use xlink:href="#path-1"></use>
            </mask>
            <g id="Clip-2"></g>
            <path d="M15.1585185,10.327 L4.1,10.327 C3.51185185,10.327 3.0362963,9.8598125 3.0362963,9.283375 C3.0362963,8.7069375 3.51185185,8.23975 4.1,8.23975 L15.1585185,8.23975 C15.7466667,8.23975 16.222963,8.7069375 16.222963,9.283375 C16.222963,9.8598125 15.7466667,10.327 15.1585185,10.327 M15.1585185,14.3900937 L4.1,14.3900937 C3.51185185,14.3900937 3.0362963,13.9229062 3.0362963,13.3464687 C3.0362963,12.7700312 3.51185185,12.3028437 4.1,12.3028437 L15.1585185,12.3028437 C15.7466667,12.3028437 16.222963,12.7700312 16.222963,13.3464687 C16.222963,13.9229062 15.7466667,14.3900937 15.1585185,14.3900937 M15.1585185,18.4539062 L4.1,18.4539062 C3.51185185,18.4539062 3.0362963,17.986 3.0362963,17.4095625 C3.0362963,16.8338437 3.51185185,16.3659375 4.1,16.3659375 L15.1585185,16.3659375 C15.7466667,16.3659375 16.222963,16.8338437 16.222963,17.4095625 C16.222963,17.986 15.7466667,18.4539062 15.1585185,18.4539062 M4.1,3.81728125 L10.0007407,3.81728125 C10.5881481,3.81728125 11.0644444,4.28446875 11.0644444,4.861625 C11.0644444,5.43734375 10.5881481,5.90453125 10.0007407,5.90453125 L4.1,5.90453125 C3.51185185,5.90453125 3.0362963,5.43734375 3.0362963,4.861625 C3.0362963,4.28446875 3.51185185,3.81728125 4.1,3.81728125 M18.4348148,0 L1.56592593,0 C0.701481481,0 0,0.68784375 0,1.53596875 L0,21.4640312 C0,22.3121563 0.701481481,23 1.56592593,23 L18.4348148,23 C19.2992593,23 20,22.3121563 20,21.4640312 L20,4.86090625 L20,1.53596875 C20,0.68784375 19.2992593,0 18.4348148,0" id="Fill-1" fill="#05AAD1" mask="url(#mask-2)"></path>
        </g>
    </g>
</svg>