<svg width="28" height="28" viewBox="0 0 28 28" fill="none" fill-rule="evenodd" opacity="0.8" xmlns="http://www.w3.org/2000/svg">
<path d="M11.9314 12.1216C11.28 12.1216 10.7657 12.705 10.7657 13.4166C10.7657 14.1283 11.2914 14.7116 11.9314 14.7116C12.5828 14.7116 13.0971 14.1283 13.0971 13.4166C13.1085 12.705 12.5828 12.1216 11.9314 12.1216ZM16.1028 12.1216C15.4514 12.1216 14.9371 12.705 14.9371 13.4166C14.9371 14.1283 15.4628 14.7116 16.1028 14.7116C16.7543 14.7116 17.2685 14.1283 17.2685 13.4166C17.2685 12.705 16.7543 12.1216 16.1028 12.1216Z" fill="white"/>
<path d="M23.1886 0H4.81143C3.26171 0 2 1.288 2 2.884V21.812C2 23.408 3.26171 24.696 4.81143 24.696H20.3634L19.6366 22.106L21.392 23.772L23.0514 25.34L26 28V2.884C26 1.288 24.7383 0 23.1886 0ZM17.8949 18.284C17.8949 18.284 17.4011 17.682 16.9897 17.15C18.7863 16.632 19.472 15.484 19.472 15.484C18.9097 15.862 18.3749 16.128 17.8949 16.31C17.2091 16.604 16.5509 16.8 15.9063 16.912C14.5897 17.164 13.3829 17.094 12.3543 16.898C11.5726 16.744 10.9006 16.52 10.3383 16.296C10.0229 16.17 9.68 16.016 9.33714 15.82C9.296 15.792 9.25486 15.778 9.21371 15.75C9.18629 15.736 9.17257 15.722 9.15886 15.708C8.912 15.568 8.77486 15.47 8.77486 15.47C8.77486 15.47 9.43314 16.59 11.1749 17.122C10.7634 17.654 10.256 18.284 10.256 18.284C7.22514 18.186 6.07314 16.156 6.07314 16.156C6.07314 11.648 8.048 7.994 8.048 7.994C10.0229 6.482 11.9017 6.524 11.9017 6.524L12.0389 6.692C9.57029 7.42 8.432 8.526 8.432 8.526C8.432 8.526 8.73371 8.358 9.24114 8.12C10.7086 7.462 11.8743 7.28 12.3543 7.238C12.4366 7.224 12.5051 7.21 12.5874 7.21C13.424 7.098 14.3703 7.07 15.3577 7.182C16.6606 7.336 18.0594 7.728 19.4857 8.526C19.4857 8.526 18.4023 7.476 16.0709 6.748L16.2629 6.524C16.2629 6.524 18.1417 6.482 20.1166 7.994C20.1166 7.994 22.0914 11.648 22.0914 16.156C22.0914 16.156 20.9257 18.186 17.8949 18.284V18.284Z" fill="white"/>
</svg>
