<svg xmlns="http://www.w3.org/2000/svg" viewBox="0 0 238.88 238.36"><defs><style>.cls-1,.cls-2{fill:none}.cls-2{stroke:#fff;stroke-linecap:round;stroke-linejoin:round;stroke-width:0}.cls-3{fill:#e64d49}.cls-4{fill:#fff}.cls-5{fill:#404040}</style></defs><g id="레이어_2" data-name="레이어 2"><g id="레이어_1-2" data-name="레이어 1"><rect class="cls-1" x="137.42" y="96.92" height="4.26"/><rect class="cls-1" x="137.42" y="137.18" height="3.74"/><rect class="cls-1" x="137.42" y="101.18" height="18"/><rect class="cls-1" x="128.43" y="128.18" width="18" transform="rotate(-45 137.426 128.186)"/><path class="cls-2" d="M119.43 68.49v-4.02m0 11.05V71.5m0 11.05v-4.03m0-39.72v1.59m0 14.05v-4.02m0 11.05v-4.02m0 133.5v4.02m0-32.13v4.02m0-11.05v4.03m0-70.27v-4.02m0 84.32v4.02m0-25.1v4.02m0-9.89v2.86m0 53.78v-1.59m0-103.05v-2.34m0 84.31v4.03m0 3v4.02m0-140.52v-4.03"/><rect class="cls-3" x="118.43" y="173.89" width="2" height="3" rx="1" ry="1"/><rect class="cls-3" x="118.43" y="180.92" width="2" height="3" rx="1" ry="1"/><rect class="cls-3" x="118.43" y="145.78" width="2" height="3" rx="1" ry="1"/><rect class="cls-3" x="118.43" y="166.86" width="2" height="3" rx="1" ry="1"/><rect class="cls-3" x="118.43" y="187.94" width="2" height="3" rx="1" ry="1"/><rect class="cls-3" x="118.43" y="159.84" width="2" height="3" rx="1" ry="1"/><rect class="cls-3" x="118.43" y="152.81" width="2" height="3" rx="1" ry="1"/><rect class="cls-3" x="118.43" y="68.49" width="2" height="3" rx="1" ry="1"/><rect class="cls-3" x="118.43" y="75.52" width="2" height="3" rx="1" ry="1"/><rect class="cls-3" x="118.43" y="194.97" width="2" height="3" rx="1" ry="1"/><rect class="cls-3" x="118.43" y="89.57" width="2" height="3" rx="1" ry="1"/><rect class="cls-3" x="118.43" y="82.55" width="2" height="3" rx="1" ry="1"/><rect class="cls-3" x="118.43" y="54.44" width="2" height="3" rx="1" ry="1"/><rect class="cls-3" x="118.43" y="61.47" width="2" height="3" rx="1" ry="1"/><rect class="cls-3" x="118.43" y="47.42" width="2" height="3" rx="1" ry="1"/><rect class="cls-3" x="118.43" y="40.39" width="2" height="3" rx="1" ry="1"/><path class="cls-2" d="M177.03 176.79l-1.89-1.9m-26.97-26.96l-2.84-2.85m27.69 27.69l-2.85-2.84m-29.81-29.81l2.85 2.84m24.84 24.84l-2.85-2.84m-2.12-2.13l-2.84-2.84m-2.13-2.12l-2.84-2.85m-4.97-4.97l2.84 2.85M62.79 62.55l.92.92m19.88 19.87l-2.85-2.84m-4.97-4.97l2.85 2.84m12.06 12.06l2.84 2.85m4.97 4.96l-2.84-2.84M70.8 70.56l2.85 2.84m-4.97-4.97l-2.84-2.84m19.87 19.87l2.84 2.85m48.88 48.87h-.01"/><path class="cls-3" d="M99.43 98a1 1 0 0 0-.94.24 1 1 0 0 0 0 1.41l.71.71a1.14 1.14 0 0 0 .23.15zm-8.75-9l-.68-.69a1 1 0 0 0-1.42 0 1 1 0 0 0 0 1.41l.71.71a1 1 0 0 0 1.42 0 1 1 0 0 0-.03-1.43zM65.84 64.18l-.71-.71a1 1 0 0 0-1.42 0 1 1 0 0 0 0 1.41l.71.71a1 1 0 0 0 .71.29 1 1 0 0 0 .71-.29 1 1 0 0 0 0-1.41zm4.96 4.96l-.71-.71a1 1 0 0 0-1.41 0 1 1 0 0 0 0 1.42l.71.71a1 1 0 0 0 1.41 0 1 1 0 0 0 0-1.42zm9.94 9.94l-.74-.71a1 1 0 0 0-1.41 0 1 1 0 0 0 0 1.42l.71.71a1 1 0 0 0 1.41 0 1 1 0 0 0 .03-1.42zm-4.97-4.97l-.71-.71a1 1 0 0 0-1.41 0 1 1 0 0 0 0 1.42l.71.71a1 1 0 0 0 1.41 0 1 1 0 0 0 0-1.42zm9.94 9.94l-.71-.71a1 1 0 0 0-1.41 0 1 1 0 0 0 0 1.41l.71.71a1 1 0 0 0 .71.3 1 1 0 0 0 .71-.3 1 1 0 0 0-.01-1.41zM95.65 94l-.71-.71a1 1 0 0 0-1.42 0 1 1 0 0 0 0 1.41l.71.71a1 1 0 0 0 .71.29 1 1 0 0 0 .71-.29 1 1 0 0 0 0-1.41zm43.78 46.36a.87.87 0 0 0 .22 0 1 1 0 0 0 .71-.29 1 1 0 0 0 0-1.42l-.71-.71a1.7 1.7 0 0 0-.22-.15zm13.71 13.95l.71.71a1 1 0 0 0 1.42 0 1 1 0 0 0 0-1.41l-.71-.71a1 1 0 0 0-1.42 0 1 1 0 0 0 0 1.41zm9.94 9.94l.71.71a1 1 0 0 0 .71.29 1 1 0 0 0 .7-.29 1 1 0 0 0 0-1.42l-.71-.71a1 1 0 0 0-1.41 0 1 1 0 0 0 0 1.42zm4.97 4.97l.71.71a1 1 0 0 0 1.41 0 1 1 0 0 0 0-1.42l-.71-.71a1 1 0 0 0-1.41 0 1 1 0 0 0 0 1.42zm-9.94-9.94l.71.71a1 1 0 0 0 .71.29 1 1 0 0 0 .71-.29 1 1 0 0 0 0-1.41l-.71-.71a1 1 0 0 0-1.42 0 1 1 0 0 0 0 1.41zm-9.94-9.94l.71.71a1 1 0 0 0 .71.3 1 1 0 0 0 .71-.3 1 1 0 0 0 0-1.41l-.71-.71a1 1 0 0 0-1.42 0 1 1 0 0 0 0 1.41zM173 174.19l.71.71a1 1 0 0 0 .7.29 1 1 0 0 0 .71-.29 1 1 0 0 0 0-1.41l-.71-.71a1 1 0 0 0-1.41 0 1 1 0 0 0 0 1.41zm-29.79-29.82l.71.71a1 1 0 0 0 .7.3 1 1 0 0 0 .71-.3 1 1 0 0 0 0-1.41l-.71-.71a1 1 0 0 0-1.41 0 1 1 0 0 0 0 1.41z"/><path class="cls-2" d="M92.82 119.18h4.02m98.37 0h-4.02m-3 0h-4.02m15.92 0h-1.87m-31.11 0h-4.02m-14.06 0h4.03m-7.03 0h-4.02m39.15 0h-4.02m-7.03 0h4.03m-14.06 0h-4.02m-70.26 0h4.02m-11.05 0h4.02m-18.07 0h4.02m3 0h4.03m61.66 0h-.01m-86.76 0h4.03m3 0h4.02m-18.07 0h4.02m-8.87 0h1.84"/><path class="cls-3" d="M155.06 118.18h-1a1 1 0 0 0 0 2h1a1 1 0 0 0 0-2zm-84.32 0h-1a1 1 0 0 0 0 2h1a1 1 0 1 0 0-2zm70.26 0h-1a1 1 0 0 0-.57.21V120a.94.94 0 0 0 .57.2h1a1 1 0 0 0 0-2zm7 0h-1a1 1 0 0 0 0 2h1a1 1 0 1 0 0-2zm49.22 0h-1a1 1 0 1 0 0 2h1a1 1 0 0 0 0-2zm-35.13 0h-1a1 1 0 1 0 0 2h1a1 1 0 0 0 0-2zm-98.37 0h-1a1 1 0 0 0 0 2h1a1 1 0 0 0 0-2zm-7.03 0h-1a1 1 0 0 0 0 2h1a1 1 0 0 0 0-2zm112.42 0h-1a1 1 0 0 0 0 2h1a1 1 0 0 0 0-2zm-91.34 0h-1a1 1 0 1 0 0 2h1a1 1 0 0 0 0-2zm21.66.21a1 1 0 0 0-.58-.21h-1a1 1 0 0 0 0 2h1a1 1 0 0 0 .58-.2zm-7.61-.21h-1a1 1 0 0 0 0 2h1a1 1 0 0 0 0-2zm98.37 0h-1a1 1 0 0 0 0 2h1a1 1 0 0 0 0-2zm-14.05 0h-1a1 1 0 0 0 0 2h1a1 1 0 0 0 0-2zm7.03 0h-1a1 1 0 0 0 0 2h1a1 1 0 1 0 0-2zm-98.37 0h-1a1 1 0 0 0 0 2h1a1 1 0 1 0 0-2zm-42.16 0h-1a1 1 0 1 0 0 2h1a1 1 0 0 0 0-2zm7.02 0h-1a1 1 0 0 0 0 2h1a1 1 0 0 0 0-2z"/><path class="cls-2" d="M137.43 101.18h-.01M70.8 167.8l2.85-2.84m-9.94 9.94l-.82.82m27.79-27.79l2.84-2.85m-27.68 27.69l2.84-2.84M175.14 63.47l1.98-1.98m-4.1 4.1l-2.85 2.84m-29.81 29.82l2.85-2.85m17.02-17.03l2.85-2.84m-87.31 87.3l2.85-2.84m19.87-19.87l-2.84 2.84m52.52-52.53l-2.84 2.85m22.72-22.72l-2.85 2.84m-84.46 84.47l2.85-2.85m2.12-2.12l2.84-2.85m61.75-61.74l2.84-2.85m4.97-4.96l-2.84 2.84"/><path class="cls-3" d="M89.26 147.93l-.71.71a1 1 0 0 0 0 1.41 1 1 0 0 0 1.42 0l.71-.71a1 1 0 0 0 0-1.41 1 1 0 0 0-1.42 0zm55.36-52.53l.71-.71a1 1 0 0 0 0-1.41 1 1 0 0 0-1.41 0l-.71.71a1 1 0 0 0 0 1.41 1 1 0 0 0 .7.29 1 1 0 0 0 .71-.29zm-5.19 5.12a1 1 0 0 0 .22-.15l.71-.71a1 1 0 0 0 0-1.41 1 1 0 0 0-.93-.25zm10.16-10.09l.71-.71a1 1 0 0 0 0-1.41 1 1 0 0 0-1.42 0l-.71.71a1 1 0 0 0 0 1.41 1 1 0 0 0 .71.3 1 1 0 0 0 .71-.3zM94.23 143l-.71.71a1 1 0 0 0 0 1.41 1 1 0 0 0 .71.3 1 1 0 0 0 .71-.3l.71-.71a1 1 0 0 0 0-1.41 1 1 0 0 0-1.42 0zm5.2-5.16a1.82 1.82 0 0 0-.23.15l-.71.71a1 1 0 0 0 0 1.42 1 1 0 0 0 .71.29 1 1 0 0 0 .23 0zm70.03-67.28l.71-.71a1 1 0 0 0 0-1.42 1 1 0 0 0-1.41 0l-.71.71a1 1 0 0 0 0 1.42 1 1 0 0 0 1.41 0zm-4.97 4.97l.71-.71a1 1 0 0 0 0-1.42 1 1 0 0 0-1.41 0l-.71.71a1 1 0 0 0 0 1.42 1 1 0 0 0 1.41 0zm-9.93 9.93l.71-.71a1 1 0 0 0 0-1.41 1 1 0 0 0-1.42 0l-.71.71a1 1 0 0 0 0 1.41 1 1 0 0 0 1.42 0zM84.3 152.9l-.71.71a1 1 0 0 0 0 1.41 1 1 0 0 0 .7.29A1 1 0 0 0 85 155l.71-.71a1 1 0 0 0 0-1.41 1 1 0 0 0-1.41.02zm75.23-72.4l.7-.71a1 1 0 0 0 0-1.42 1 1 0 0 0-1.41 0l-.71.71a1 1 0 0 0 0 1.42 1 1 0 0 0 .71.29 1 1 0 0 0 .71-.29zm-95.11 92.27l-.71.71a1 1 0 0 0 0 1.42 1 1 0 0 0 .71.29 1 1 0 0 0 .71-.29l.71-.71a1 1 0 0 0 0-1.42 1 1 0 0 0-1.42 0zM174.43 65.59l.71-.71a1 1 0 0 0 0-1.41 1 1 0 0 0-1.41 0l-.71.71a1 1 0 0 0 0 1.41 1 1 0 0 0 .7.29 1 1 0 0 0 .71-.29zM69.39 167.8l-.71.71a1 1 0 0 0 0 1.42 1 1 0 0 0 .71.29 1 1 0 0 0 .7-.29l.71-.71a1 1 0 0 0 0-1.42 1 1 0 0 0-1.41 0zm9.94-9.93l-.71.71a1 1 0 0 0 0 1.41A1 1 0 0 0 80 160l.71-.71a1 1 0 0 0 0-1.41 1 1 0 0 0-1.38-.01zm-4.97 4.96l-.71.71a1 1 0 0 0 0 1.42 1 1 0 0 0 1.41 0l.71-.71a1 1 0 0 0 0-1.42 1 1 0 0 0-1.41 0z"/><path class="cls-4" d="M127.54 126l.12-.2.08-.13a.91.91 0 0 1 .13-.19.75.75 0 0 1 1.21.87s-.09.15-.1.17l-.23.37a1.35 1.35 0 0 0 .29 0 1.89 1.89 0 0 0 .53-.3 1.21 1.21 0 0 0 .33-.42l.18-.35c.08-.16.17-.38.26-.62l.08-.19a5 5 0 0 0 .2-.57l.21-.63a1.51 1.51 0 0 0 0-.5 1.53 1.53 0 0 0-.17-.51 1 1 0 0 0-.73-.58h-.27a1.42 1.42 0 0 0-1 .28 2.49 2.49 0 0 0-.4.34 1.17 1.17 0 0 0-.15.27l-.15.47a3.25 3.25 0 0 1-.2.54l-.1.25c0 .12-.09.24-.14.33l-.14.29a.91.91 0 0 0-.05.31 1.42 1.42 0 0 0 .05.43 1.75 1.75 0 0 0 .16.27zM115 128.28c-.11-.2-.16-.23-.17-.23l-.39-.28-.37-.31a3.37 3.37 0 0 1-.39-.37l-.09-.1c-.12-.13-.19-.19-.2-.2l-.16-.14-.11-.05a2.23 2.23 0 0 0-.48-.12 1.85 1.85 0 0 0-.33 0l.26.33a.75.75 0 0 1-.11 1 .75.75 0 0 1-1.06-.11l-.32-.41-.06-.08a1.51 1.51 0 0 0-.06.31 1.34 1.34 0 0 0 .09.58 1 1 0 0 0 .11.26.62.62 0 0 0 .11.17l.48.5a5.68 5.68 0 0 0 .43.41l.3.24.45.38.31.21a1.53 1.53 0 0 0 .53.22 1.7 1.7 0 0 0 .59 0 .92.92 0 0 0 .28-.09l-.17-.08-.29-.17h-.07L114 130a.75.75 0 1 1 .9-1.2l.09.06.16.09.12.06a3 3 0 0 0-.06-.36 1.28 1.28 0 0 0-.21-.37z"/><path class="cls-4" d="M137.42 119.18V96.92h-36v44h36v-21.74zM128 131a1.28 1.28 0 0 1-.18.14l-.6.45a2.71 2.71 0 0 1-.25.17l-.39.24c-.27.16-.53.32-.75.42l-.42.2a2.57 2.57 0 0 1-1.16.25 2.74 2.74 0 0 1-1.65-.47 2.42 2.42 0 0 1-.34.45 3 3 0 0 1-2 1h-1.42a8.85 8.85 0 0 1-1-.12l-.44-.07a2.06 2.06 0 0 1-.61-.18 2.48 2.48 0 0 1-.47-.27 3.37 3.37 0 0 1-.83-.81 2.47 2.47 0 0 1-.24-.49 2.33 2.33 0 0 1-.53.16 3 3 0 0 1-.61.06 4.55 4.55 0 0 1-.52 0 3.22 3.22 0 0 1-1.09-.45l-.37-.26-.52-.42-.27-.23a5 5 0 0 1-.58-.54l-.47-.49a2.23 2.23 0 0 1-.37-.51 3.39 3.39 0 0 1-.21-.51 3 3 0 0 1-.16-1.18 3 3 0 0 1 .11-.52 3.16 3.16 0 0 1-.52-.17 3.26 3.26 0 0 1-1-.66 3.18 3.18 0 0 1-.6-.94s-.06-.17-.15-.39v-.14l-.28-.93a2.19 2.19 0 0 1-.11-.4l-.09-.41c0-.25-.08-.42-.08-.42a2.81 2.81 0 0 1 .46-2.12 3.43 3.43 0 0 1 .32-.41 2.63 2.63 0 0 1-.34-.33 2.94 2.94 0 0 1-.71-2.08s0-.68.16-1.34c0-.22.07-.45.11-.65l.14-.68a3 3 0 0 1 1.3-1.77 2.35 2.35 0 0 1 .42-.21 2.11 2.11 0 0 1-.17-.44 3 3 0 0 1 .27-2.21s.38-.63.8-1.21c.23-.3.45-.59.64-.8l.24-.27a3.14 3.14 0 0 1 2.16-1 2.72 2.72 0 0 1 .58.06 4 4 0 0 1 .16-.57 3 3 0 0 1 1.62-1.65l.42-.16.28-.09a6.13 6.13 0 0 1 .72-.22l1.42-.31a2.73 2.73 0 0 1 1.1.07 3.34 3.34 0 0 1 1 .49 2.83 2.83 0 0 1 .4.37 3.33 3.33 0 0 1 .39-.35 3.1 3.1 0 0 1 .5-.29 3.72 3.72 0 0 1 .58-.18 2.89 2.89 0 0 1 1.13 0l.47.11.45.11a4.76 4.76 0 0 1 .58.17l.24.09.65.23.46.22a2.58 2.58 0 0 1 .94.73 3 3 0 0 1 .57 1 2.8 2.8 0 0 1 .12.56 2.44 2.44 0 0 1 .54 0 2.83 2.83 0 0 1 .56.09 4.4 4.4 0 0 1 .6.24 2.58 2.58 0 0 1 .93.77l.26.33a6.71 6.71 0 0 1 .41.6l.17.26c.15.25.28.5.39.71l.12.22a2 2 0 0 1 .12.28l.1.23a3.33 3.33 0 0 1 .16.53 3.18 3.18 0 0 1 .05.65 3 3 0 0 1-.06.59 3.32 3.32 0 0 1-.21.61 3 3 0 0 1-.31.53 2.39 2.39 0 0 1-.45.45 2.11 2.11 0 0 1-1.17.44h-.39a3.36 3.36 0 0 1-.91-.14 4.35 4.35 0 0 1-.85-.34 3.12 3.12 0 0 1-.35-.2c-.1-.08-.22-.16-.31-.24a1.93 1.93 0 0 1-.31-.33 1.18 1.18 0 0 1-.21-.35l-.1-.23-.08-.15-.14-.26-.13-.2a1.57 1.57 0 0 0-.12-.19l-.21-.27a2.07 2.07 0 0 1-.37-.79 4.08 4.08 0 0 1-.07-.42v-.41a3 3 0 0 1-.79.11h-.06a2 2 0 0 1-.9-.19l-.22-.1-.49-.17a.59.59 0 0 0-.18-.06l-.61-.15a2.13 2.13 0 0 1-.81-.36l-.32-.29a3.11 3.11 0 0 1-.32-.34l-.07-.09-.07.1a3.44 3.44 0 0 1-.71.62 2 2 0 0 1-.85.33l-.79.18a1.55 1.55 0 0 0-.36.11l-.21.07-.2.08a2.33 2.33 0 0 1-.76.13 3.26 3.26 0 0 1-1-.17 3.85 3.85 0 0 1-.15.87 2.19 2.19 0 0 1-.46.8l-.15.18c-.12.13-.25.29-.37.45a7.62 7.62 0 0 0-.46.71 2.81 2.81 0 0 1-1.43 1.07h-.11a.35.35 0 0 1 0 .08 2.69 2.69 0 0 1 .32 1.81s0 .14-.06.29v.12c0 .15-.07.32-.09.49-.08.49-.11.94-.11.95a2.84 2.84 0 0 1-.85 1.65l-.14.12a.5.5 0 0 1 .12.08 2.77 2.77 0 0 1 1 1.5l.07.34c0 .09 0 .18.06.29a1 1 0 0 0 .06.2l.29.91a2 2 0 0 1 .12 1 2.81 2.81 0 0 1-.18.87.36.36 0 0 1 0 .09h.11a3.89 3.89 0 0 1 .86.24 1.68 1.68 0 0 1 .4.23 2.63 2.63 0 0 1 .29.25l.22.22a.94.94 0 0 1 .13.14l.21.21.68.52a2.06 2.06 0 0 1 .6.69 2.52 2.52 0 0 1 .34.8 3.08 3.08 0 0 1 .81-.34 2.1 2.1 0 0 1 .48-.06 1.4 1.4 0 0 1 .41 0l.38.06a2.23 2.23 0 0 0 .39 0h.86a2 2 0 0 1 .93.2 2.71 2.71 0 0 1 .76.46l.06.05v-.06a2.72 2.72 0 0 1 1.13-1.27l.29-.13.24-.14.37-.22.26-.2.16-.11a1.71 1.71 0 0 1 .86-.43h.38a2.88 2.88 0 0 1 .51 0 2.94 2.94 0 0 1-.09-.93 2.24 2.24 0 0 1 .22-.88l.13-.25.09-.22.13-.32a2.78 2.78 0 0 0 .13-.37c0-.08 0-.15.07-.22l.08-.25a2.38 2.38 0 0 1 .45-.81 4.05 4.05 0 0 1 .67-.58 2.86 2.86 0 0 1 2.06-.53h.24A2.5 2.5 0 0 1 132 122a2.86 2.86 0 0 1 .35 1.08 2.71 2.71 0 0 1-.07 1.13l-.2.63a6.21 6.21 0 0 1-.26.71l-.07.17c-.11.26-.21.51-.3.7l-.2.4a2.69 2.69 0 0 1-.74.9 3.3 3.3 0 0 1-1 .54 2.91 2.91 0 0 1-.56.11 3.17 3.17 0 0 1 0 .54 2.76 2.76 0 0 1-.11.61 1.17 1.17 0 0 1 0 .16l-.06.17c-.05.11-.09.19-.13.26a2.81 2.81 0 0 1-.65.89z"/><path class="cls-4" d="M127.36 128.67c-.07.08-.15.15-.21.21a.74.74 0 0 0-.13.12.81.81 0 0 1-.57.23.71.71 0 0 1-.51-.21.72.72 0 0 1 0-1l.15-.13.09-.08.11-.1a3 3 0 0 0-.66 0h-.1l-.25.08-.31.23-.23.17-.14.1-.38.23-.36.2-.29.13a1.36 1.36 0 0 0-.42.56 3.43 3.43 0 0 0-.12.33l.32-.11h.09a.73.73 0 0 1 .92.38.76.76 0 0 1-.56 1.07l-.44.15a1.2 1.2 0 0 0 .27.16 1.53 1.53 0 0 0 1.1 0l.42-.2c.17-.08.4-.22.64-.36l.34-.21a.91.91 0 0 0 .16-.11l.61-.45a1.83 1.83 0 0 0 .43-.52l.06-.13v-.14a1.92 1.92 0 0 0 0-.32 1 1 0 0 0 0-.25zM110 111a1.49 1.49 0 0 0-.11 1.07 1.26 1.26 0 0 0 .13.26.37.37 0 0 1 0-.11l.22-.45a.75.75 0 0 1 1.35.67l-.23.45a1.69 1.69 0 0 0 .34-.09 1.36 1.36 0 0 0 .64-.41s.26-.44.56-.84c.16-.21.32-.41.44-.55l.16-.18a.68.68 0 0 0 .16-.29 2.36 2.36 0 0 0 .07-.47 1.77 1.77 0 0 0 0-.33l-.13.12-.11.09-.08.08a.76.76 0 0 1-1.06 0 .74.74 0 0 1 0-1l.1-.09.1-.09.32-.27a.8.8 0 0 0-.31 0 1.49 1.49 0 0 0-1 .43l-.11.11-.17.2c-.17.19-.37.45-.56.7-.36.39-.72.99-.72.99zm10.68 20.64h-.08a.77.77 0 0 1-.76-.67.73.73 0 0 1 .63-.83h.53a2 2 0 0 0-.25-.26 1.21 1.21 0 0 0-.38-.23c-.2-.09-.27-.1-.28-.09h-1a1.84 1.84 0 0 1-.61-.06l-.4-.07H118a.3.3 0 0 0-.12 0 1.5 1.5 0 0 0-.44.19 1.72 1.72 0 0 0-.3.2h.07l.42.1a.75.75 0 0 1 .53.92.74.74 0 0 1-.72.56h-.19l-.49-.13-.17-.05a1.12 1.12 0 0 0 .14.29 1.62 1.62 0 0 0 .42.4l.27.16h.22l.41.07a6.46 6.46 0 0 0 .84.1h1.27a1.73 1.73 0 0 0 .54-.14 1.71 1.71 0 0 0 .46-.36.91.91 0 0 0 .17-.23l-.52.07zM110 125.45l-.07-.13c-.06-.12-.11-.24-.15-.34l-.07-.18a.75.75 0 0 1 1.37-.6 1.78 1.78 0 0 1 .07.17 1 1 0 0 0 .1.23v.09a1.46 1.46 0 0 0 .16-.3 1.58 1.58 0 0 0 .1-.49.82.82 0 0 0 0-.29l-.11-.25-.21-.71a3.31 3.31 0 0 1-.11-.42 2.65 2.65 0 0 1-.06-.3l-.06-.27a1.28 1.28 0 0 0-.48-.66l-.24-.16.06.5a.75.75 0 0 1-.65.84h-.09a.76.76 0 0 1-.75-.66l-.06-.5v-.11h-.06l-.14.2a1.45 1.45 0 0 0-.26 1l.18.84a2.5 2.5 0 0 0 .07.26l.28.93.16.44a1.57 1.57 0 0 0 .3.44 1.54 1.54 0 0 0 .48.32 1.52 1.52 0 0 0 .24.11zm-1.43-6.64v-.15a1.21 1.21 0 0 0 0-.18v-.35a.74.74 0 0 1 .82-.67.75.75 0 0 1 .67.82v.11a3.55 3.55 0 0 1 0 .36 1.56 1.56 0 0 0 .26-.21 1.31 1.31 0 0 0 .42-.72s0-.52.13-1c0-.19.06-.39.09-.57v-.12l.07-.34a1.25 1.25 0 0 0-.19-.77 2 2 0 0 0-.18-.29c0 .13-.08.25-.1.34l-.06.21a.74.74 0 0 1-.72.55.62.62 0 0 1-.19 0 .75.75 0 0 1-.53-.92l.05-.21c0-.11.08-.28.14-.47a1.83 1.83 0 0 0-.28.14 1.44 1.44 0 0 0-.63.83l-.14.63c0 .18-.07.38-.1.59-.1.62-.14 1.23-.14 1.24a1.38 1.38 0 0 0 .35 1 1.45 1.45 0 0 0 .26.15zm18.01-8.03a.68.68 0 0 0 .13.27l.14.18a4.41 4.41 0 0 1 .25.37l.1.15c.09.14.16.28.23.41l.07.15.21.41.24.17a.82.82 0 0 0 .2.12 2.28 2.28 0 0 0 .28.13l.29.1a1.66 1.66 0 0 0 .55.08h.23a.6.6 0 0 0 .36-.13.69.69 0 0 0 .14-.19 1.17 1.17 0 0 0 .14-.25 1.62 1.62 0 0 0 .1-.31 1.09 1.09 0 0 0 0-.28 1.33 1.33 0 0 0 0-.32c0-.09-.05-.19-.08-.28l-.1-.23-.06-.15-.12-.22a6.05 6.05 0 0 0-.33-.59l-.17-.27c-.11-.17-.21-.34-.31-.47l-.29-.36a1.23 1.23 0 0 0-.43-.34 1.51 1.51 0 0 0-.3-.13h-.4a.76.76 0 0 0-.16 0l.1.09.37.39a.75.75 0 0 1 0 1.06.73.73 0 0 1-.51.2.75.75 0 0 1-.55-.24l-.32-.34a2 2 0 0 0 0 .34 1.77 1.77 0 0 0 0 .24 1.08 1.08 0 0 0 0 .24zM115 107.1l.27-.13a.75.75 0 0 1 .62 1.36l-.24.12-.17.08a2 2 0 0 0 .33.14 1.19 1.19 0 0 0 .74.07l.46-.17a4.5 4.5 0 0 1 .51-.15l.63-.15h.3a.75.75 0 0 0 .26-.13 1.78 1.78 0 0 0 .38-.34 2.48 2.48 0 0 0 .19-.26h-.34a.8.8 0 0 1-.9-.61.71.71 0 0 1 .52-.85h.7a1.53 1.53 0 0 0-.23-.22 1.81 1.81 0 0 0-.54-.25 1.7 1.7 0 0 0-.51 0l-1.23.27c-.24.06-.44.13-.62.19l-.28.09-.33.13a1.55 1.55 0 0 0-.8.83 2.38 2.38 0 0 0 0 .26h.09zm6.91.5h-.12l-.48-.08a1.27 1.27 0 0 0 .18.29 1.54 1.54 0 0 0 .16.18l.22.19a.5.5 0 0 0 .21.1l.33.08.28.07a2 2 0 0 1 .43.14l.5.17.34.15a1.15 1.15 0 0 0 .7 0l.35-.12h-.05l-.29-.18a.81.81 0 0 1-.35-1 .69.69 0 0 1 .92-.36h.05l.28.15.2.13.12.07a1 1 0 0 0 0-.29 2.17 2.17 0 0 0-.31-.52 1.27 1.27 0 0 0-.44-.33l-.4-.19-.56-.2-.28-.1a1.57 1.57 0 0 0-.32-.09h-.1l-.42-.1-.42-.11h-.13a1.81 1.81 0 0 0-.38 0 1.5 1.5 0 0 0-.32.09l-.2.13a1.41 1.41 0 0 0-.23.21h.13l.54.09a.75.75 0 0 1 .63.85.76.76 0 0 1-.77.58z"/><path class="cls-5" d="M139.43 118.39V95.92a1 1 0 0 0-1-1h-38a1 1 0 0 0-1 1v46a1 1 0 0 0 1 1h38a1 1 0 0 0 1-1v-23.53zm-2 22.53h-36v-44h36v44z"/><path class="cls-4" d="M197.19 62.69a3.33 3.33 0 0 1-3.39-3.07v-1.93a10.74 10.74 0 0 1-1.4.09 10.62 10.62 0 0 1-1.4-.09v1.93a3.34 3.34 0 0 1-3.39 3.07c-2.54 0-3.76.82-4.46 1.6a17.25 17.25 0 0 0 18.5 0c-.71-.78-1.94-1.6-4.46-1.6z"/><path class="cls-4" d="M181.52 63.14a6.6 6.6 0 0 1 4-2.27 11.24 11.24 0 0 1 2.07-.18c.66 0 1.39-.56 1.39-1.07V57.3a10.33 10.33 0 0 1-6.29-4.87 1 1 0 0 1 .11-1.07l3-3.73a15.75 15.75 0 0 1 .77-5.69 6.4 6.4 0 0 1 11.66 0 15.72 15.72 0 0 1 .77 5.69l3 3.73a1 1 0 0 1 .11 1.07 10.36 10.36 0 0 1-6.29 4.87v2.32c0 .51.73 1.07 1.39 1.07a12.06 12.06 0 0 1 2.05.17 6.66 6.66 0 0 1 4 2.28 17.4 17.4 0 1 0-21.76 0z"/><path class="cls-5" d="M192.4 69a19.47 19.47 0 1 0-15.28-7.49A19.42 19.42 0 0 0 192.4 69zm0-2a17.21 17.21 0 0 1-9.25-2.69c.7-.78 1.92-1.6 4.46-1.6a3.34 3.34 0 0 0 3.39-3.09v-1.93a10.62 10.62 0 0 0 1.4.09 10.74 10.74 0 0 0 1.4-.09v1.93a3.33 3.33 0 0 0 3.39 3.07c2.52 0 3.75.82 4.46 1.6A17.21 17.21 0 0 1 192.4 67zm4.82-18.37l2.78 3.44a9.62 9.62 0 0 1-15.18 0l2.77-3.46a1 1 0 0 0 .22-.63v-.16a14.63 14.63 0 0 1 .63-5.14 4.4 4.4 0 0 1 7.94 0 14.6 14.6 0 0 1 .63 5.14V48a1 1 0 0 0 .21.61zm-4.82-16.45a17.39 17.39 0 0 1 10.88 31 6.66 6.66 0 0 0-4-2.28 12.06 12.06 0 0 0-2.05-.17c-.66 0-1.39-.56-1.39-1.07V57.3a10.36 10.36 0 0 0 6.29-4.87 1 1 0 0 0-.11-1.07l-3-3.73a15.72 15.72 0 0 0-.77-5.69 6.4 6.4 0 0 0-11.66 0 15.75 15.75 0 0 0-.77 5.69l-3 3.73a1 1 0 0 0-.11 1.07A10.33 10.33 0 0 0 189 57.3v2.32c0 .51-.73 1.07-1.39 1.07a11.24 11.24 0 0 0-2.07.18 6.6 6.6 0 0 0-4 2.27 17.39 17.39 0 0 1 10.88-31z"/><path class="cls-4" d="M196.37 42.68a4.4 4.4 0 0 0-7.94 0 14.63 14.63 0 0 0-.63 5.14V48a1 1 0 0 1-.22.63l-2.77 3.46a9.62 9.62 0 0 0 15.18 0l-2.77-3.46A1 1 0 0 1 197 48v-.16a14.6 14.6 0 0 0-.63-5.16zM48.4 32.18a17.39 17.39 0 0 0-10.88 31 6.6 6.6 0 0 1 4-2.27 11.24 11.24 0 0 1 2.07-.18c.66 0 1.39-.56 1.39-1.07V57.3a10.39 10.39 0 0 1-6.3-4.87 1 1 0 0 1 .12-1.07l3-3.73a15.75 15.75 0 0 1 .77-5.69 5.78 5.78 0 0 1 5.83-3.76 5.79 5.79 0 0 1 5.83 3.76 15.72 15.72 0 0 1 .77 5.69l3 3.73a1 1 0 0 1 .11 1.07 10.36 10.36 0 0 1-6.31 4.87v2.32c0 .51.72 1.07 1.39 1.07a12.06 12.06 0 0 1 2.05.17 6.66 6.66 0 0 1 4 2.28 17.39 17.39 0 0 0-10.88-31z"/><path class="cls-4" d="M53.19 62.69a3.33 3.33 0 0 1-3.39-3.07v-1.93a10.74 10.74 0 0 1-1.4.09 10.62 10.62 0 0 1-1.4-.09v1.93a3.34 3.34 0 0 1-3.39 3.07c-2.54 0-3.76.82-4.46 1.6a17.25 17.25 0 0 0 18.5 0c-.71-.79-1.94-1.6-4.46-1.6z"/><path class="cls-5" d="M48.4 30.18a19.37 19.37 0 1 0 19.4 19.4 19.42 19.42 0 0 0-19.4-19.4zm0 36.8a17.21 17.21 0 0 1-9.25-2.69c.7-.78 1.92-1.6 4.46-1.6A3.34 3.34 0 0 0 47 59.62v-1.93a10.62 10.62 0 0 0 1.4.09 10.74 10.74 0 0 0 1.4-.09v1.93a3.33 3.33 0 0 0 3.39 3.07c2.52 0 3.75.81 4.46 1.6A17.21 17.21 0 0 1 48.4 67zm4.82-18.37L56 52.07a9.62 9.62 0 0 1-15.18 0l2.77-3.46a1 1 0 0 0 .21-.61v-.16a14.63 14.63 0 0 1 .63-5.14 3.77 3.77 0 0 1 4-2.5 3.78 3.78 0 0 1 4 2.5 14.6 14.6 0 0 1 .57 5.12V48a1 1 0 0 0 .22.61zm6.06 14.53a6.66 6.66 0 0 0-4-2.28 12.06 12.06 0 0 0-2.05-.17c-.67 0-1.39-.56-1.39-1.07V57.3a10.36 10.36 0 0 0 6.29-4.87 1 1 0 0 0-.13-1.07l-3-3.73a15.72 15.72 0 0 0-.77-5.69 5.79 5.79 0 0 0-5.83-3.76 5.78 5.78 0 0 0-5.83 3.76 15.75 15.75 0 0 0-.77 5.69l-3 3.73a1 1 0 0 0-.12 1.07A10.39 10.39 0 0 0 45 57.3v2.32c0 .51-.73 1.07-1.39 1.07a11.24 11.24 0 0 0-2.07.18 6.6 6.6 0 0 0-4 2.27 17.4 17.4 0 1 1 21.76 0z"/><path class="cls-4" d="M52.37 42.68a3.78 3.78 0 0 0-4-2.5 3.77 3.77 0 0 0-4 2.5 14.63 14.63 0 0 0-.63 5.14V48a1 1 0 0 1-.22.63l-2.77 3.46a9.62 9.62 0 0 0 15.18 0l-2.77-3.46A1 1 0 0 1 53 48v-.16a14.6 14.6 0 0 0-.63-5.16zM175 188.58a17.38 17.38 0 0 0 6.52 13.56 6.63 6.63 0 0 1 4-2.27 11.24 11.24 0 0 1 2.07-.18c.66 0 1.39-.56 1.39-1.07v-2.32a10.33 10.33 0 0 1-6.29-4.87 1 1 0 0 1 .11-1.08l3-3.72a15.75 15.75 0 0 1 .77-5.69 6.4 6.4 0 0 1 11.66 0 15.72 15.72 0 0 1 .77 5.69l3 3.72a1 1 0 0 1 .11 1.08 10.36 10.36 0 0 1-6.29 4.87v2.32c0 .51.73 1.07 1.39 1.07a12.06 12.06 0 0 1 2.05.17 6.66 6.66 0 0 1 4 2.28A17.39 17.39 0 1 0 175 188.58z"/><path class="cls-4" d="M197.19 201.69a3.33 3.33 0 0 1-3.39-3.07v-1.93a10.74 10.74 0 0 1-1.4.09 10.62 10.62 0 0 1-1.4-.09v1.93a3.34 3.34 0 0 1-3.39 3.07c-2.54 0-3.76.82-4.46 1.6a17.25 17.25 0 0 0 18.5 0c-.71-.79-1.94-1.6-4.46-1.6z"/><path class="cls-5" d="M192.4 208a19.36 19.36 0 1 0-19.4-19.4 19.42 19.42 0 0 0 19.4 19.4zm0-2a17.3 17.3 0 0 1-9.25-2.69c.7-.78 1.92-1.6 4.46-1.6a3.34 3.34 0 0 0 3.39-3.07v-1.93a10.62 10.62 0 0 0 1.4.09 10.74 10.74 0 0 0 1.4-.09v1.93a3.33 3.33 0 0 0 3.39 3.07c2.52 0 3.75.81 4.46 1.6a17.21 17.21 0 0 1-9.25 2.69zm4.82-18.37l2.77 3.46a9.62 9.62 0 0 1-15.18 0l2.77-3.46a1 1 0 0 0 .22-.63v-.16a14.63 14.63 0 0 1 .63-5.14 4.4 4.4 0 0 1 7.94 0 14.57 14.57 0 0 1 .63 5.13v.17a1 1 0 0 0 .22.61zm-4.82-16.43a17.39 17.39 0 0 1 10.88 31 6.66 6.66 0 0 0-4-2.28 12.06 12.06 0 0 0-2.05-.17c-.66 0-1.39-.56-1.39-1.07v-2.38a10.36 10.36 0 0 0 6.29-4.87 1 1 0 0 0-.11-1.08l-3-3.72a15.72 15.72 0 0 0-.77-5.69 6.4 6.4 0 0 0-11.66 0 15.75 15.75 0 0 0-.77 5.69l-3 3.72a1 1 0 0 0-.11 1.08 10.33 10.33 0 0 0 6.29 4.87v2.32c0 .51-.73 1.07-1.39 1.07a11.24 11.24 0 0 0-2.07.18 6.63 6.63 0 0 0-4 2.27 17.39 17.39 0 0 1 10.88-31z"/><path class="cls-4" d="M196.37 181.68a4.4 4.4 0 0 0-7.94 0 14.63 14.63 0 0 0-.63 5.14v.18a1 1 0 0 1-.22.63l-2.77 3.46a9.62 9.62 0 0 0 15.18 0l-2.77-3.46a1 1 0 0 1-.22-.63v-.17a14.57 14.57 0 0 0-.63-5.15zM53.19 201.69a3.33 3.33 0 0 1-3.39-3.07v-1.93a10.74 10.74 0 0 1-1.4.09 10.62 10.62 0 0 1-1.4-.09v1.93a3.34 3.34 0 0 1-3.39 3.07c-2.54 0-3.76.82-4.46 1.6a17.25 17.25 0 0 0 18.5 0c-.71-.79-1.94-1.6-4.46-1.6z"/><path class="cls-4" d="M48.4 171.18a17.39 17.39 0 0 0-10.88 31 6.6 6.6 0 0 1 4-2.27 11.24 11.24 0 0 1 2.07-.18c.66 0 1.39-.56 1.39-1.07v-2.36a10.39 10.39 0 0 1-6.3-4.87 1 1 0 0 1 .12-1.08l3-3.72a15.75 15.75 0 0 1 .77-5.69 5.78 5.78 0 0 1 5.83-3.76 5.79 5.79 0 0 1 5.83 3.76 15.72 15.72 0 0 1 .77 5.69l3 3.72a1 1 0 0 1 .11 1.08 10.36 10.36 0 0 1-6.29 4.87v2.32c0 .51.72 1.07 1.39 1.07a12.06 12.06 0 0 1 2.05.17 6.66 6.66 0 0 1 4 2.28 17.39 17.39 0 0 0-10.88-31z"/><path class="cls-5" d="M48.4 169.18a19.46 19.46 0 1 0 14.49 6.54 19.42 19.42 0 0 0-14.49-6.54zm0 36.8a17.3 17.3 0 0 1-9.25-2.69c.7-.78 1.92-1.6 4.46-1.6a3.34 3.34 0 0 0 3.39-3.07v-1.93a10.62 10.62 0 0 0 1.4.09 10.74 10.74 0 0 0 1.4-.09v1.93a3.33 3.33 0 0 0 3.39 3.07c2.52 0 3.75.81 4.46 1.6A17.21 17.21 0 0 1 48.4 206zm4.82-18.37l2.78 3.46a9.62 9.62 0 0 1-15.18 0l2.77-3.46a1 1 0 0 0 .22-.63v-.16a14.63 14.63 0 0 1 .63-5.14 3.77 3.77 0 0 1 4-2.5 3.78 3.78 0 0 1 4 2.5 14.57 14.57 0 0 1 .63 5.13v.19a1 1 0 0 0 .15.61zm12.58 1a17.38 17.38 0 0 1-6.52 13.56 6.66 6.66 0 0 0-4-2.28 12.06 12.06 0 0 0-2.05-.17c-.67 0-1.39-.56-1.39-1.07v-2.35a10.36 10.36 0 0 0 6.29-4.87 1 1 0 0 0-.11-1.08l-3-3.72a15.72 15.72 0 0 0-.77-5.69 5.79 5.79 0 0 0-5.83-3.76 5.78 5.78 0 0 0-5.83 3.76 15.75 15.75 0 0 0-.77 5.69l-3 3.72a1 1 0 0 0-.12 1.08 10.39 10.39 0 0 0 6.3 4.87v2.32c0 .51-.73 1.07-1.39 1.07a11.24 11.24 0 0 0-2.07.18 6.6 6.6 0 0 0-4 2.27 17.39 17.39 0 1 1 28.26-13.56z"/><path class="cls-4" d="M52.37 181.68a3.78 3.78 0 0 0-4-2.5 3.77 3.77 0 0 0-4 2.5 14.63 14.63 0 0 0-.63 5.14v.18a1 1 0 0 1-.22.63l-2.77 3.46a9.62 9.62 0 0 0 15.18 0l-2.77-3.46A1 1 0 0 1 53 187v-.17a14.57 14.57 0 0 0-.63-5.15zM36.8 118.9a17.4 17.4 0 1 0-27.74 14 7.06 7.06 0 0 1 3.5-.56h1.53l.77-1.13 1-1.46a10.5 10.5 0 0 1-3.75-7.53 12.1 12.1 0 0 1-.25-8.47c0-2.39.86-4.77 6.08-4.85 2.8-1.64 5.59-1.7 7.5-.12a4.91 4.91 0 0 1 1.56 5.15c.42 1.56 1.5 6.34-.32 8.47a10.49 10.49 0 0 1-3.68 7.28l1 1.5.76 1.11h1.83a5.75 5.75 0 0 1 3.16.55 17.36 17.36 0 0 0 7.05-13.94z"/><path class="cls-4" d="M26.63 134.3h-2.37a1 1 0 0 1-.82-.43l-2.11-3.05a.59.59 0 0 1-.06-.14 4.9 4.9 0 0 1-3.71 0v.13l-2.06 3a1 1 0 0 1-.83.44h-3.31a17.32 17.32 0 0 0 16.12 0c-.24.04-.48.04-.85.05zm192.85-32.86a17.38 17.38 0 0 0-10.34 31.36 7.29 7.29 0 0 1 3.5-.57h1.53l.77-1.13 1-1.45a10.46 10.46 0 0 1-3.74-7.53 12.06 12.06 0 0 1-.26-8.47c0-2.39.86-4.77 6.08-4.85 2.8-1.65 5.6-1.7 7.51-.13a4.9 4.9 0 0 1 1.57 5.19c.42 1.57 1.51 6.34-.31 8.47a10.53 10.53 0 0 1-3.71 7.29l1 1.51.77 1.1h1.83a5.82 5.82 0 0 1 3.15.54 17.37 17.37 0 0 0-10.37-31.33z"/><path class="cls-4" d="M226.71 134.23h-2.37a1 1 0 0 1-.82-.43l-2.11-3a.94.94 0 0 1-.06-.15 5 5 0 0 1-1.88.37 5.22 5.22 0 0 1-1.83-.35.61.61 0 0 1 0 .12l-2.06 3a1 1 0 0 1-.82.44h-3.27a17.24 17.24 0 0 0 16.12 0z"/><path class="cls-5" d="M219.48 99.44a19.42 19.42 0 0 0-19.4 19.4v.34a19.37 19.37 0 0 0 8.23 15.49 1.08 1.08 0 0 0 .38.26 19.31 19.31 0 0 0 21.55 0 1 1 0 0 0 .35-.23 19.38 19.38 0 0 0-11.14-35.25zm0 36.8a17.3 17.3 0 0 1-8-2h3.27a1 1 0 0 0 .82-.44l2.06-3a.61.61 0 0 0 0-.12 5.22 5.22 0 0 0 1.83.35 5 5 0 0 0 1.88-.37.94.94 0 0 0 .06.15l2.11 3a1 1 0 0 0 .82.43h3.22a17.18 17.18 0 0 1-8.07 2zm5.59-22.13c.67 2.31 1.15 6.13.07 7a1 1 0 0 0-.36.77c0 3.37-2.78 7.07-5.31 7.07s-5.3-3.7-5.3-7.07a1.06 1.06 0 0 0-.08-.4 10.21 10.21 0 0 1-.25-7.29 1 1 0 0 0 .08-.39c0-1.56 0-3 4.36-3a1.08 1.08 0 0 0 .53-.15 6.57 6.57 0 0 1 3.37-1.13 3.11 3.11 0 0 1 2 .7 2.89 2.89 0 0 1 .87 3.26 1 1 0 0 0 .02.63zm4.78 18.66a5.82 5.82 0 0 0-3.15-.54h-1.83l-.77-1.1-1-1.51a10.53 10.53 0 0 0 3.71-7.29c1.82-2.13.73-6.9.31-8.47a4.9 4.9 0 0 0-1.57-5.19c-1.91-1.57-4.71-1.52-7.51.13-5.22.08-6 2.46-6.08 4.85a12.06 12.06 0 0 0 .26 8.47 10.46 10.46 0 0 0 3.74 7.53l-1 1.45-.77 1.13h-1.53a7.29 7.29 0 0 0-3.5.57 17.41 17.41 0 1 1 20.71 0z"/><path class="cls-4" d="M109.09 232.92a7.13 7.13 0 0 1 3.49-.56h1.54l.76-1.13 1-1.46a10.43 10.43 0 0 1-3.75-7.52 12.15 12.15 0 0 1-.26-8.48c0-2.39.87-4.77 6.08-4.85 2.81-1.64 5.6-1.69 7.51-.12A4.89 4.89 0 0 1 127 214c.42 1.56 1.51 6.34-.31 8.47a10.53 10.53 0 0 1-3.71 7.29l1 1.5.76 1.11h1.83a5.76 5.76 0 0 1 3.16.54 17.4 17.4 0 1 0-20.71 0z"/><path class="cls-4" d="M126.66 234.36h-2.37a1 1 0 0 1-.83-.43l-2.1-3s0-.1-.07-.15a4.87 4.87 0 0 1-3.7 0 .75.75 0 0 1-.06.13l-2 3a1 1 0 0 1-.83.44h-3.26a17.32 17.32 0 0 0 16.12 0c-.3 0-.56 0-.9.01z"/><path class="cls-5" d="M100 219a19.39 19.39 0 0 0 8.23 15.84 1 1 0 0 0 .37.27 19.35 19.35 0 0 0 21.56 0 .89.89 0 0 0 .35-.23 19.39 19.39 0 0 0-11.14-35.26A19.42 19.42 0 0 0 100 219zm19.4 17.4a17.29 17.29 0 0 1-8-2h3.26a1 1 0 0 0 .83-.44l2-3a.75.75 0 0 0 .06-.13 4.87 4.87 0 0 0 3.7 0s0 .1.07.15l2.1 3a1 1 0 0 0 .83.43h3.22a17.35 17.35 0 0 1-8.04 1.95zm5.6-22.16c.66 2.3 1.14 6.13.06 7a1 1 0 0 0-.36.77c0 3.38-2.77 7.08-5.3 7.08s-5.3-3.7-5.3-7.08a1 1 0 0 0-.09-.4 10.22 10.22 0 0 1-.25-7.29 1 1 0 0 0 .08-.38c0-1.56 0-3 4.37-3a1 1 0 0 0 .52-.15 6.57 6.57 0 0 1 3.37-1.13 3.21 3.21 0 0 1 2.06.7 2.89 2.89 0 0 1 .86 3.26 1 1 0 0 0-.02.62zm-5.59-12.68a17.38 17.38 0 0 1 10.39 31.34 5.76 5.76 0 0 0-3.16-.54h-1.83l-.76-1.11-1-1.5a10.53 10.53 0 0 0 3.71-7.29c1.82-2.13.73-6.91.31-8.47a4.89 4.89 0 0 0-1.57-5.19c-1.91-1.57-4.7-1.52-7.51.12-5.21.08-6 2.46-6.08 4.85a12.15 12.15 0 0 0 .26 8.48 10.43 10.43 0 0 0 3.75 7.52l-1 1.46-.76 1.13h-1.54a7.13 7.13 0 0 0-3.49.56 17.38 17.38 0 0 1 10.34-31.36z"/><path class="cls-4" d="M127.51 34.8h-3.22a1 1 0 0 1-.83-.43l-2.1-3a.59.59 0 0 1-.06-.14 5.24 5.24 0 0 1-1.88.37 5.14 5.14 0 0 1-1.83-.36.75.75 0 0 1-.06.13l-2 3a1 1 0 0 1-.83.44h-3.25a17.3 17.3 0 0 0 16.11 0z"/><path class="cls-4" d="M112.62 32.8h1.5l.76-1.13 1-1.46a10.43 10.43 0 0 1-3.75-7.53 12.12 12.12 0 0 1-.26-8.47c0-2.39.87-4.77 6.08-4.85 2.81-1.64 5.6-1.7 7.51-.12a4.89 4.89 0 0 1 1.54 5.19c.42 1.56 1.51 6.34-.31 8.47a10.49 10.49 0 0 1-3.69 7.28l1 1.5.76 1.11h1.83a5.76 5.76 0 0 1 3.16.55 17.4 17.4 0 1 0-20.71 0 7 7 0 0 1 3.49-.56z"/><path class="cls-5" d="M130.2 35.52a.89.89 0 0 0 .35-.23 19.4 19.4 0 1 0-22.31 0 1 1 0 0 0 .37.27 19.32 19.32 0 0 0 10.79 3.28 19.28 19.28 0 0 0 10.8-3.32zM102 19.4a17.4 17.4 0 1 1 27.8 13.94 5.76 5.76 0 0 0-3.16-.55h-1.83l-.76-1.11-1-1.5a10.49 10.49 0 0 0 3.71-7.28c1.82-2.13.73-6.91.31-8.47a4.89 4.89 0 0 0-1.57-5.19c-1.91-1.58-4.7-1.52-7.51.12-5.21.08-6 2.46-6.08 4.85a12.12 12.12 0 0 0 .26 8.47 10.43 10.43 0 0 0 3.75 7.53l-1 1.46-.76 1.13h-1.54a7 7 0 0 0-3.49.56A17.34 17.34 0 0 1 102 19.4zm23-4.72c.66 2.3 1.15 6.13.06 7a1 1 0 0 0-.36.77c0 3.37-2.77 7.08-5.3 7.08s-5.3-3.71-5.3-7.08a.93.93 0 0 0-.09-.4 10.22 10.22 0 0 1-.25-7.29 1 1 0 0 0 .08-.38c0-1.56 0-3 4.37-3a1 1 0 0 0 .52-.15 6.6 6.6 0 0 1 3.37-1.13 3.15 3.15 0 0 1 2.06.7A2.89 2.89 0 0 1 125 14a1 1 0 0 0 0 .68zm-13.6 20.14h3.25a1 1 0 0 0 .83-.44l2-3a.75.75 0 0 0 .06-.13 5.14 5.14 0 0 0 1.83.36 5.24 5.24 0 0 0 1.88-.37.59.59 0 0 0 .06.14l2.1 3a1 1 0 0 0 .83.43h3.22a17.3 17.3 0 0 1-16.11 0zm-92 64.68a19.39 19.39 0 0 0-11.17 35.24 1 1 0 0 0 .38.27 19.34 19.34 0 0 0 21.55 0 1 1 0 0 0 .35-.23 19.38 19.38 0 0 0 8.25-15.58v-.28A19.42 19.42 0 0 0 19.4 99.5zm0 36.8a17.29 17.29 0 0 1-8-2h3.26a1 1 0 0 0 .83-.44l2.06-3v-.13a4.9 4.9 0 0 0 3.71 0 .59.59 0 0 0 .06.14l2.11 3.05a1 1 0 0 0 .82.43h3.22a17.29 17.29 0 0 1-8.07 1.95zm5.6-22.12c.66 2.3 1.15 6.13.07 7a1 1 0 0 0-.37.77c0 3.37-2.77 7.08-5.3 7.08s-5.3-3.71-5.3-7.08a1.1 1.1 0 0 0-.08-.4 10.09 10.09 0 0 1-.25-7.29 1 1 0 0 0 .07-.38c0-1.56 0-3 4.37-3a1 1 0 0 0 .53-.15 6.57 6.57 0 0 1 3.37-1.13 3.11 3.11 0 0 1 2 .7 2.89 2.89 0 0 1 .87 3.26 1 1 0 0 0 .02.62zm4.78 18.66a5.75 5.75 0 0 0-3.16-.55h-1.84l-.78-1.1-1-1.5a10.49 10.49 0 0 0 3.71-7.28c1.82-2.13.74-6.91.32-8.47a4.91 4.91 0 0 0-1.58-5.19c-1.91-1.58-4.7-1.52-7.5.12-5.22.08-6.05 2.46-6.08 4.85a12.1 12.1 0 0 0 .25 8.47 10.5 10.5 0 0 0 3.75 7.53l-1 1.46-.77 1.13h-1.54a7.06 7.06 0 0 0-3.5.56 17.4 17.4 0 1 1 20.71 0z"/><path class="cls-4" d="M24.15 110.28a3.11 3.11 0 0 0-2-.7 6.57 6.57 0 0 0-3.37 1.13 1 1 0 0 1-.53.15c-4.37 0-4.37 1.48-4.37 3a1 1 0 0 1-.07.38 10.09 10.09 0 0 0 .25 7.29 1.1 1.1 0 0 1 .08.4c0 3.37 2.78 7.08 5.3 7.08s5.3-3.71 5.3-7.08a1 1 0 0 1 .37-.77c1.08-.89.59-4.72-.07-7a1 1 0 0 1 0-.64 2.89 2.89 0 0 0-.89-3.24zm200.08-.06a3.11 3.11 0 0 0-2-.7 6.57 6.57 0 0 0-3.37 1.13 1.08 1.08 0 0 1-.53.15c-4.36 0-4.36 1.47-4.36 3a1 1 0 0 1-.08.39 10.21 10.21 0 0 0 .25 7.29 1.06 1.06 0 0 1 .08.4c0 3.37 2.78 7.07 5.3 7.07s5.31-3.7 5.31-7.07a1 1 0 0 1 .36-.77c1.08-.9.6-4.72-.07-7a1 1 0 0 1 0-.63 2.89 2.89 0 0 0-.89-3.26zM124.18 210.34a3.21 3.21 0 0 0-2.06-.7 6.57 6.57 0 0 0-3.37 1.13 1 1 0 0 1-.52.15c-4.37 0-4.37 1.48-4.37 3a1 1 0 0 1-.08.38 10.22 10.22 0 0 0 .25 7.29 1 1 0 0 1 .09.4c0 3.38 2.77 7.08 5.3 7.08s5.3-3.7 5.3-7.08a1 1 0 0 1 .36-.77c1.08-.89.6-4.72-.06-7a1 1 0 0 1 0-.64 2.89 2.89 0 0 0-.84-3.24zm0-199.56a3.15 3.15 0 0 0-2.06-.7 6.6 6.6 0 0 0-3.37 1.13 1 1 0 0 1-.52.15c-4.37 0-4.37 1.48-4.37 3a1 1 0 0 1-.08.38 10.22 10.22 0 0 0 .25 7.29.93.93 0 0 1 .09.4c0 3.37 2.77 7.08 5.3 7.08s5.3-3.71 5.3-7.08a1 1 0 0 1 .36-.77c1.09-.89.6-4.72-.06-7a1 1 0 0 1 0-.64 2.89 2.89 0 0 0-.84-3.24z"/><path class="cls-3" d="M128.77 129.88l.06-.17a1.17 1.17 0 0 0 0-.16 2.76 2.76 0 0 0 .11-.61 3.17 3.17 0 0 0 0-.54 2.91 2.91 0 0 0 .56-.11 3.3 3.3 0 0 0 1-.54 2.69 2.69 0 0 0 .74-.9l.2-.4c.09-.19.19-.44.3-.7l.07-.17a6.21 6.21 0 0 0 .26-.71l.2-.63a2.71 2.71 0 0 0 .07-1.13A2.86 2.86 0 0 0 132 122a2.5 2.5 0 0 0-1.83-1.32h-.24a2.86 2.86 0 0 0-2.06.53 4.05 4.05 0 0 0-.67.58 2.38 2.38 0 0 0-.45.81l-.08.25c0 .07-.05.14-.07.22a2.78 2.78 0 0 1-.13.37l-.13.32-.09.22-.13.25a2.24 2.24 0 0 0-.22.88 2.94 2.94 0 0 0 .09.93 2.88 2.88 0 0 0-.51 0h-.38a1.71 1.71 0 0 0-.86.43l-.16.11-.26.2-.37.22-.24.14-.29.13a2.72 2.72 0 0 0-1.13 1.27v.06l-.06-.05a2.71 2.71 0 0 0-.76-.46 2 2 0 0 0-.93-.2h-.89a2.23 2.23 0 0 1-.39 0l-.38-.06a1.4 1.4 0 0 0-.41 0 2.1 2.1 0 0 0-.48.06 3.08 3.08 0 0 0-.81.34 2.52 2.52 0 0 0-.34-.8 2.06 2.06 0 0 0-.6-.69l-.68-.52-.21-.21a.94.94 0 0 0-.13-.14l-.22-.22a2.63 2.63 0 0 0-.29-.25 1.68 1.68 0 0 0-.4-.23 3.89 3.89 0 0 0-.86-.24h-.11a.36.36 0 0 0 0-.09 2.81 2.81 0 0 0 .16-.84 2 2 0 0 0-.12-1l-.29-.91a1 1 0 0 1-.06-.2c0-.11 0-.2-.06-.29l-.07-.34a2.77 2.77 0 0 0-1-1.5.5.5 0 0 0-.12-.08l.14-.12a2.84 2.84 0 0 0 .85-1.65s0-.46.11-.95c0-.17.06-.34.09-.49v-.12c0-.15.06-.26.06-.29a2.69 2.69 0 0 0-.32-1.81.35.35 0 0 0 0-.08h.11a2.81 2.81 0 0 0 1.43-1.07 7.62 7.62 0 0 1 .46-.71c.12-.16.25-.32.37-.45l.15-.18a2.19 2.19 0 0 0 .46-.8 3.85 3.85 0 0 0 .15-.87 3.26 3.26 0 0 0 1 .17 2.33 2.33 0 0 0 .76-.13l.2-.08.21-.07a1.55 1.55 0 0 1 .36-.11l.79-.18a2 2 0 0 0 .85-.33 3.44 3.44 0 0 0 .71-.62l.07-.1.07.09a3.11 3.11 0 0 0 .32.34l.32.29a2.13 2.13 0 0 0 .81.36l.61.15a.59.59 0 0 1 .18.06l.49.17.22.1a2 2 0 0 0 .9.19h.06a3 3 0 0 0 .79-.11v.41a4.08 4.08 0 0 0 .07.42 2.07 2.07 0 0 0 .37.79l.21.27a1.57 1.57 0 0 1 .12.19l.13.2.14.26.08.15.1.23a1.18 1.18 0 0 0 .21.35 1.93 1.93 0 0 0 .31.33c.09.08.21.16.31.24a3.12 3.12 0 0 0 .35.2 4.35 4.35 0 0 0 .85.34 3.36 3.36 0 0 0 .91.14h.39a2.11 2.11 0 0 0 1.17-.44 2.39 2.39 0 0 0 .45-.45 3 3 0 0 0 .31-.53 3.32 3.32 0 0 0 .21-.61 3 3 0 0 0 .06-.59 3.18 3.18 0 0 0-.05-.65 3.33 3.33 0 0 0-.16-.53l-.1-.23a2 2 0 0 0-.12-.28l-.12-.22c-.11-.21-.24-.46-.39-.71l-.17-.26a6.71 6.71 0 0 0-.41-.6l-.26-.33a2.58 2.58 0 0 0-.93-.77 4.4 4.4 0 0 0-.6-.24 2.83 2.83 0 0 0-.56-.09 2.44 2.44 0 0 0-.54 0 2.8 2.8 0 0 0-.12-.56 3 3 0 0 0-.57-1 2.58 2.58 0 0 0-.94-.73l-.46-.22-.65-.23-.24-.09a4.76 4.76 0 0 0-.58-.17l-.45-.11-.47-.11a2.89 2.89 0 0 0-1.13 0 3.72 3.72 0 0 0-.58.18 3.1 3.1 0 0 0-.5.29 3.33 3.33 0 0 0-.39.35 2.83 2.83 0 0 0-.4-.37 3.34 3.34 0 0 0-1-.49 2.73 2.73 0 0 0-1.1-.07l-1.42.31a6.13 6.13 0 0 0-.72.22l-.28.09-.42.16a3 3 0 0 0-1.62 1.65 4 4 0 0 0-.16.57 2.72 2.72 0 0 0-.58-.06 3.14 3.14 0 0 0-2.16 1l-.24.27c-.19.21-.41.5-.64.8-.42.58-.78 1.17-.8 1.21a3 3 0 0 0-.27 2.21 2.11 2.11 0 0 0 .17.44 2.35 2.35 0 0 0-.42.21 3 3 0 0 0-1.3 1.77l-.14.68c0 .2-.08.43-.11.65-.11.66-.16 1.34-.16 1.34a2.94 2.94 0 0 0 .71 2.08 2.63 2.63 0 0 0 .34.33 3.43 3.43 0 0 0-.32.41 2.81 2.81 0 0 0-.46 2.12s0 .17.08.42l.09.41a2.19 2.19 0 0 0 .11.4l.28.93v.14c.09.22.14.37.15.39a3.18 3.18 0 0 0 .6.94 3.26 3.26 0 0 0 1 .66 3.16 3.16 0 0 0 .52.17 3 3 0 0 0-.11.52 3 3 0 0 0 .16 1.18 3.39 3.39 0 0 0 .21.51 2.23 2.23 0 0 0 .37.51l.47.49a5 5 0 0 0 .58.54l.27.23.52.42.37.26a3.22 3.22 0 0 0 1.09.45 4.55 4.55 0 0 0 .52 0 3 3 0 0 0 .61-.06 2.33 2.33 0 0 0 .53-.16 2.47 2.47 0 0 0 .24.49 3.37 3.37 0 0 0 .83.81 2.48 2.48 0 0 0 .47.27 2.06 2.06 0 0 0 .61.18l.44.07a8.85 8.85 0 0 0 1 .12h1.42a3 3 0 0 0 2-1 2.42 2.42 0 0 0 .34-.45 2.74 2.74 0 0 0 1.65.47 2.57 2.57 0 0 0 1.16-.25l.42-.2c.22-.1.48-.26.75-.42l.39-.24a2.71 2.71 0 0 0 .25-.17l.6-.45a1.28 1.28 0 0 0 .19.02 2.81 2.81 0 0 0 .67-.86c.01-.07.05-.14.1-.26zM126.58 110l.32.34a.75.75 0 0 0 .55.24.73.73 0 0 0 .51-.2.75.75 0 0 0 0-1.06l-.37-.39-.1-.09a.76.76 0 0 1 .16 0h.4a1.51 1.51 0 0 1 .3.13 1.23 1.23 0 0 1 .43.34l.29.36c.1.13.2.3.31.47l.17.27a6.05 6.05 0 0 1 .33.59l.12.22.06.15.1.23c0 .09.06.19.08.28a1.33 1.33 0 0 1 0 .32 1.09 1.09 0 0 1 0 .28 1.62 1.62 0 0 1-.1.31 1.17 1.17 0 0 1-.14.25.69.69 0 0 1-.17.17.6.6 0 0 1-.36.13h-.23a1.66 1.66 0 0 1-.55-.08l-.29-.1a2.28 2.28 0 0 1-.28-.13.82.82 0 0 1-.2-.12l-.24-.17-.21-.41-.07-.15c-.07-.13-.14-.27-.23-.41l-.1-.15a4.41 4.41 0 0 0-.25-.37l-.14-.18a.68.68 0 0 1-.13-.27 1.08 1.08 0 0 1 0-.25 1.77 1.77 0 0 1 0-.24 2 2 0 0 1 .03-.31zm-4.58-3.89l-.54-.09h-.13a1.41 1.41 0 0 1 .23-.21l.2-.13a1.5 1.5 0 0 1 .32-.09 1.81 1.81 0 0 1 .38 0h.13l.42.11.42.1h.1a1.57 1.57 0 0 1 .32.09l.28.1.56.2.4.19a1.27 1.27 0 0 1 .44.33 2.17 2.17 0 0 1 .31.52 1 1 0 0 1 0 .29l-.12-.07-.2-.13-.28-.15h-.05a.69.69 0 0 0-.92.36.81.81 0 0 0 .35 1l.29.18h.05l-.35.12a1.15 1.15 0 0 1-.7 0l-.34-.15-.5-.17a2 2 0 0 0-.43-.14l-.28-.07-.33-.08a.5.5 0 0 1-.21-.1l-.22-.19a1.54 1.54 0 0 1-.16-.18 1.27 1.27 0 0 1-.18-.29l.48.08h.12a.76.76 0 0 0 .74-.64.75.75 0 0 0-.6-.79zm-7.32.9a1.55 1.55 0 0 1 .8-.83l.33-.13.28-.09c.18-.06.38-.13.62-.19l1.23-.27a1.7 1.7 0 0 1 .51 0 1.81 1.81 0 0 1 .54.25 1.53 1.53 0 0 1 .23.22h-.7a.71.71 0 0 0-.52.85.8.8 0 0 0 .9.61h.34a2.48 2.48 0 0 1-.19.26 1.78 1.78 0 0 1-.38.34.75.75 0 0 1-.26.13h-.3l-.63.15a4.5 4.5 0 0 0-.51.15l-.46.17a1.19 1.19 0 0 1-.74-.07 2 2 0 0 1-.33-.14l.17-.08.24-.12a.75.75 0 0 0-.62-1.36l-.27.13-.25.12h-.09a2.38 2.38 0 0 1 .08-.11zm-4 2.88c.19-.25.39-.51.56-.7l.17-.2.11-.11a1.49 1.49 0 0 1 1-.43.8.8 0 0 1 .31 0l-.32.27-.1.09-.1.09a.75.75 0 0 0 .54 1.27.75.75 0 0 0 .52-.21l.08-.08.11-.09.13-.12a1.77 1.77 0 0 1 0 .33 2.36 2.36 0 0 1-.07.47.68.68 0 0 1-.16.29l-.16.18c-.12.14-.28.34-.44.55-.3.4-.55.83-.56.84a1.36 1.36 0 0 1-.64.41 1.69 1.69 0 0 1-.34.09l.23-.45a.75.75 0 0 0-1.35-.67l-.22.45a.37.37 0 0 0 0 .11 1.26 1.26 0 0 1-.13-.26A1.49 1.49 0 0 1 110 111s.36-.6.73-1.11zm-2.59 6.49c0-.21.07-.41.1-.59l.14-.63a1.44 1.44 0 0 1 .63-.83 1.83 1.83 0 0 1 .28-.14c-.06.19-.11.36-.14.47l-.05.21a.75.75 0 0 0 .53.92.62.62 0 0 0 .19 0 .74.74 0 0 0 .72-.55l.06-.21c0-.09.06-.21.1-.34a2 2 0 0 1 .18.29 1.25 1.25 0 0 1 .19.77l-.07.34v.12c0 .18-.07.38-.09.57-.09.52-.13 1-.13 1a1.31 1.31 0 0 1-.42.72 1.56 1.56 0 0 1-.26.21 3.55 3.55 0 0 0 0-.36v-.11a.75.75 0 0 0-.67-.82.74.74 0 0 0-.82.67v.35a1.21 1.21 0 0 1 0 .18v.15a1.45 1.45 0 0 1-.22-.21 1.38 1.38 0 0 1-.35-1s.01-.56.15-1.18zm1.08 8.66a1.57 1.57 0 0 1-.3-.44l-.16-.44-.28-.93a2.5 2.5 0 0 1-.07-.26l-.18-.84a1.45 1.45 0 0 1 .26-1l.14-.2h.06v.11l.06.5a.76.76 0 0 0 .75.66h.09a.75.75 0 0 0 .65-.84l-.06-.5.24.16a1.28 1.28 0 0 1 .48.66l.06.27a2.65 2.65 0 0 0 .06.3 3.31 3.31 0 0 0 .11.42l.21.71.11.25a.82.82 0 0 1 0 .29 1.58 1.58 0 0 1-.1.49 1.46 1.46 0 0 1-.16.3v-.09a1 1 0 0 1-.1-.23 1.78 1.78 0 0 0-.07-.17.75.75 0 0 0-1.37.6l.07.18c0 .1.09.22.15.34l.07.13a1.52 1.52 0 0 1-.28-.09 1.54 1.54 0 0 1-.39-.38zm5.91 3.93l-.16-.09-.09-.06a.75.75 0 1 0-.9 1.2l.16.11h.07l.29.17.17.08a.92.92 0 0 1-.28.09 1.7 1.7 0 0 1-.59 0 1.53 1.53 0 0 1-.53-.22l-.31-.21-.45-.38-.3-.24a5.68 5.68 0 0 1-.43-.41l-.48-.5a.62.62 0 0 1-.11-.17 1 1 0 0 1-.11-.26 1.34 1.34 0 0 1-.09-.58 1.51 1.51 0 0 1 .06-.31l.06.08.32.41a.75.75 0 0 0 1.06.11.75.75 0 0 0 .11-1l-.26-.33a1.85 1.85 0 0 1 .33 0 2.23 2.23 0 0 1 .48.12l.11.05.16.14s.08.07.2.2l.09.1a3.37 3.37 0 0 0 .39.37l.37.31.39.28s.06 0 .17.23a1.28 1.28 0 0 1 .16.39 3 3 0 0 1 .06.36zm6 2.83a1.71 1.71 0 0 1-.46.36 1.73 1.73 0 0 1-.54.14h-1.31a6.46 6.46 0 0 1-.84-.1l-.41-.07h-.22l-.27-.16a1.62 1.62 0 0 1-.42-.4 1.12 1.12 0 0 1-.14-.29l.17.05.49.13h.19a.74.74 0 0 0 .72-.56.75.75 0 0 0-.53-.92l-.42-.1h-.07a1.72 1.72 0 0 1 .3-.2 1.5 1.5 0 0 1 .44-.19.3.3 0 0 1 .12 0h.14l.4.07a1.84 1.84 0 0 0 .61.06h1s.08 0 .28.09a1.21 1.21 0 0 1 .38.23 2 2 0 0 1 .25.26h-.54a.73.73 0 0 0-.63.83.77.77 0 0 0 .76.67h.2l.52-.07a.91.91 0 0 1-.1.17zm6.28-6.87l.14-.29c.05-.09.09-.21.14-.33l.1-.25a3.25 3.25 0 0 0 .2-.54l.15-.47a1.17 1.17 0 0 1 .15-.27 2.49 2.49 0 0 1 .4-.34 1.42 1.42 0 0 1 1-.28h.27a1 1 0 0 1 .73.58 1.53 1.53 0 0 1 .17.51 1.51 1.51 0 0 1 0 .5l-.21.63a5 5 0 0 1-.2.57l-.08.19c-.09.24-.18.46-.26.62l-.18.35a1.21 1.21 0 0 1-.33.42 1.89 1.89 0 0 1-.53.3 1.35 1.35 0 0 1-.29 0l.23-.37s.09-.14.1-.17a.75.75 0 0 0-1.21-.87.91.91 0 0 0-.13.19l-.08.13-.12.2a1.75 1.75 0 0 1-.11-.35 1.42 1.42 0 0 1-.05-.43.91.91 0 0 1 .07-.23zm0 4.22v.14l-.06.13a1.83 1.83 0 0 1-.43.52l-.61.45a.91.91 0 0 1-.16.11l-.34.21c-.24.14-.47.28-.64.36l-.42.2a1.53 1.53 0 0 1-1.1 0 1.2 1.2 0 0 1-.27-.16l.44-.15a.76.76 0 0 0 .56-1.07.73.73 0 0 0-.92-.38h-.09l-.32.11a3.43 3.43 0 0 1 .12-.33 1.36 1.36 0 0 1 .42-.56l.29-.13.36-.2.38-.23.14-.1.23-.17.31-.23.25-.08h.1a3 3 0 0 1 .66 0l-.11.1-.09.08-.15.13a.72.72 0 0 0 0 1 .71.71 0 0 0 .51.21.81.81 0 0 0 .58-.11.74.74 0 0 1 .13-.12c.06-.06.14-.13.21-.21l.09-.09a1 1 0 0 1 0 .25 1.92 1.92 0 0 1 0 .32z"/></g></g></svg>