<?xml version="1.0" encoding="UTF-8"?>
<svg width="60px" height="60px" viewBox="0 0 60 60" version="1.1" xmlns="http://www.w3.org/2000/svg" xmlns:xlink="http://www.w3.org/1999/xlink">
    <!-- Generator: Sketch 52.5 (67469) - http://www.bohemiancoding.com/sketch -->
    <title>download</title>
    <desc>Created with Sketch.</desc>
    <defs>
        <polygon id="path-1" points="0 -0.0004 36.3068 -0.0004 36.3068 6.9996 0 6.9996"></polygon>
    </defs>
    <g id="download" stroke="none" stroke-width="1" fill="none" fill-rule="evenodd">
        <g id="Group-6" transform="translate(12.000000, 10.000000)">
            <path d="M15.4045,27.7172 C16.0685,28.5592 17.0815,29.0502 18.1535,29.0502 C19.2255,29.0502 20.2385,28.5592 20.9025,27.7172 L29.2465,17.1332 C30.4425,15.6152 30.1815,13.4142 28.6645,12.2182 C27.1465,11.0222 24.9455,11.2812 23.7485,12.7992 L21.6535,15.4572 L21.6535,3.5002 C21.6535,1.5672 20.0875,0.0002 18.1535,0.0002 C16.2195,0.0002 14.6535,1.5672 14.6535,3.5002 L14.6535,15.4572 L12.5585,12.7992 C11.3605,11.2802 9.1605,11.0222 7.6425,12.2182 C6.1255,13.4142 5.8645,15.6152 7.0605,17.1332 L15.4045,27.7172 Z" id="Fill-1" fill="#C2D1D3"></path>
            <g id="Group-5" transform="translate(0.000000, 32.787900)">
                <mask id="mask-2" fill="white">
                    <use xlink:href="#path-1"></use>
                </mask>
                <g id="Clip-4"></g>
                <path d="M32.8068,-0.0004 L3.4998,-0.0004 C1.5668,-0.0004 -0.0002,1.5666 -0.0002,3.4996 C-0.0002,5.4336 1.5668,6.9996 3.4998,6.9996 L32.8068,6.9996 C34.7408,6.9996 36.3068,5.4336 36.3068,3.4996 C36.3068,1.5666 34.7408,-0.0004 32.8068,-0.0004" id="Fill-3" fill="#C2D1D3" mask="url(#mask-2)"></path>
            </g>
        </g>
    </g>
</svg>