<?xml version="1.0" encoding="UTF-8"?>
<svg width="40px" height="40px" viewBox="0 0 40 40" version="1.1" xmlns="http://www.w3.org/2000/svg" xmlns:xlink="http://www.w3.org/1999/xlink">
    <!-- Generator: Sketch 52.5 (67469) - http://www.bohemiancoding.com/sketch -->
    <title>github-blue</title>
    <desc>Created with Sketch.</desc>
    <defs>
        <polygon id="path-1" points="0.0004 0 38 0 38 38 0.0004 38"></polygon>
    </defs>
    <g id="github-blue" stroke="none" stroke-width="1" fill="none" fill-rule="evenodd">
        <g id="Group-11">
            <g id="Group-3" transform="translate(1.000000, 1.000000)">
                <mask id="mask-2" fill="white">
                    <use xlink:href="#path-1"></use>
                </mask>
                <g id="Clip-2"></g>
                <path d="M18.9984,-0.0002 C8.5074,-0.0002 0.0004,8.7218 0.0004,19.4818 C0.0004,28.0888 5.4434,35.3908 12.9944,37.9668 C13.9444,38.1458 14.2914,37.5438 14.2914,37.0268 C14.2914,36.5648 14.2744,35.3398 14.2664,33.7148 C8.9804,34.8918 7.8654,31.1028 7.8654,31.1028 C7.0014,28.8528 5.7554,28.2528 5.7554,28.2528 C4.0304,27.0448 5.8864,27.0688 5.8864,27.0688 C7.7934,27.2068 8.7964,29.0768 8.7964,29.0768 C10.4914,32.0538 13.2434,31.1938 14.3254,30.6948 C14.4984,29.4368 14.9894,28.5778 15.5324,28.0908 C11.3124,27.5998 6.8774,25.9278 6.8774,18.4628 C6.8774,16.3358 7.6174,14.5978 8.8334,13.2348 C8.6384,12.7418 7.9854,10.7618 9.0194,8.0798 C9.0194,8.0798 10.6144,7.5558 14.2444,10.0768 C15.7604,9.6448 17.3854,9.4288 19.0014,9.4208 C20.6144,9.4288 22.2404,9.6448 23.7584,10.0768 C27.3854,7.5558 28.9774,8.0798 28.9774,8.0798 C30.0144,10.7618 29.3614,12.7418 29.1664,13.2348 C30.3844,14.5978 31.1194,16.3358 31.1194,18.4628 C31.1194,25.9458 26.6774,27.5938 22.4444,28.0758 C23.1264,28.6778 23.7344,29.8658 23.7344,31.6838 C23.7344,34.2878 23.7114,36.3888 23.7114,37.0268 C23.7114,37.5488 24.0534,38.1538 25.0184,37.9648 C32.5614,35.3838 38.0004,28.0858 38.0004,19.4818 C38.0004,8.7218 29.4924,-0.0002 18.9984,-0.0002" id="Fill-1" fill="#05AAD1" mask="url(#mask-2)"></path>
            </g>
            <rect id="Rectangle" x="0" y="0" width="40" height="40"></rect>
        </g>
    </g>
</svg>