<?xml version="1.0" encoding="UTF-8"?>
<svg width="40px" height="40px" viewBox="0 0 40 40" version="1.1" xmlns="http://www.w3.org/2000/svg" xmlns:xlink="http://www.w3.org/1999/xlink">
    <!-- Generator: Sketch 52.5 (67469) - http://www.bohemiancoding.com/sketch -->
    <title>linux</title>
    <desc>Created with Sketch.</desc>
    <defs>
        <polygon id="path-1" points="0 1.88980485e-05 34.014 1.88980485e-05 34.014 40 0 40"></polygon>
    </defs>
    <g id="linux" stroke="none" stroke-width="1" fill="none" fill-rule="evenodd">
        <g id="Group-4">
            <rect id="Rectangle" x="0" y="0" width="40" height="40"></rect>
            <g id="Group-3" transform="translate(3.000000, 0.000000)">
                <mask id="mask-2" fill="white">
                    <use xlink:href="#path-1"></use>
                </mask>
                <g id="Clip-2"></g>
                <path d="M18.6575,7.4225 C18.3775,7.4475 18.4575,7.5875 18.5965,7.6275 C18.7785,7.6825 18.9505,7.9915 18.9895,8.3285 C18.9925,8.3595 19.2235,8.2795 19.2235,8.2065 C19.2415,7.6665 18.7785,7.4115 18.6575,7.4225 M13.6035,8.1865 C13.5535,8.4665 13.5735,8.6405 13.7665,8.6405 C13.7985,8.6405 13.8325,8.6335 13.8445,8.5635 C13.9375,8.0065 13.6495,7.6025 13.5325,7.5695 C13.2605,7.5015 13.2945,7.8925 13.4355,7.8605 C13.5215,7.8435 13.6375,7.9865 13.6035,8.1865 M22.9875,28.3475 C23.2905,27.9875 23.6465,27.9475 24.1165,27.9395 C24.1875,26.1665 26.9475,26.2965 27.8515,27.0385 C27.8515,26.6275 26.9845,26.2595 26.6365,26.0855 C27.2385,24.0845 26.9565,23.2795 26.5575,21.3905 C26.2555,19.9475 24.9405,18.0065 23.9115,17.3995 C24.1715,17.6255 24.6645,18.2875 25.1855,19.2595 C26.0845,20.9315 26.9705,23.4025 26.3805,25.4785 C26.1525,26.2715 25.6335,26.3705 25.2765,26.4105 C23.6945,26.5755 24.6255,24.5405 23.9685,21.7365 C23.2355,18.6205 22.4855,18.3875 22.2975,18.1425 C21.3895,14.0875 20.3825,14.4925 20.0955,12.9615 C19.8405,11.6075 21.2765,10.4865 19.3235,10.1085 C18.7275,9.9905 17.8765,9.3875 17.5365,9.3445 C17.1995,9.2985 17.0345,7.1095 18.2685,7.0205 C19.5035,6.9285 19.7395,8.4145 19.4975,8.9985 C19.1465,9.5775 19.5225,9.7945 20.1335,9.6065 C20.6335,9.4525 20.3105,8.1515 20.4295,7.9585 C20.1075,6.0965 19.3305,5.8285 18.5195,5.6715 C15.4465,5.9075 16.8265,9.3135 16.5145,8.9845 C16.0795,8.5235 14.7705,8.9585 14.7765,8.6625 C14.8045,6.9265 14.2225,5.9205 13.4225,5.8995 C12.5295,5.8735 12.1615,7.1235 12.1075,7.8265 C12.0565,8.5025 12.5095,9.9105 12.8405,9.8035 C13.0565,9.7315 13.4275,9.2965 13.0305,9.2985 C12.8255,9.3015 12.5155,8.8195 12.4835,8.2345 C12.4525,7.6505 12.6665,7.0635 13.4245,7.0935 C14.3135,7.1285 14.3045,8.8655 14.2085,8.9335 C13.9245,9.1305 13.5585,9.5125 13.5185,9.5775 C13.2365,10.0515 12.6695,10.1685 12.4615,10.3765 C12.0645,10.7725 11.9845,11.2205 12.2815,11.3915 C13.2995,11.9755 12.9685,12.6255 14.3915,12.6855 C15.3265,12.7225 16.0295,12.5395 16.6665,12.3455 C17.1625,12.1955 18.7545,11.8565 19.0895,11.2725 C19.2355,11.0235 19.4185,11.0155 19.5405,11.0855 C19.7545,11.2095 19.8005,11.6225 19.2495,11.7705 C18.4625,11.9845 17.6675,12.4035 16.9705,12.6835 C16.2755,12.9645 16.0535,13.0725 15.3975,13.1935 C13.9205,13.4585 12.8295,12.6595 13.8205,13.6175 C14.1485,13.9375 14.4655,14.1375 15.3155,14.1025 C17.1775,14.0285 19.2625,11.7935 19.4695,12.7935 C19.5115,12.9985 18.8795,13.2775 18.3865,13.5235 C16.6405,14.3825 15.4115,16.0775 14.2945,15.4905 C13.2945,14.9645 12.2995,12.4835 12.3155,13.5945 C12.3445,15.3085 10.0565,16.8335 11.1095,18.7835 C10.4285,18.9695 8.8745,22.2475 8.6505,23.9555 C8.5285,24.9225 8.7435,26.1375 8.5115,26.8165 C8.1755,27.7965 6.6475,25.8805 7.1355,23.5335 C7.2225,23.1205 7.1485,23.0325 7.0385,23.2325 C6.4175,24.3295 6.7585,25.8605 7.2485,26.9355 C7.4635,27.4005 7.9645,27.6055 8.3355,28.0195 C9.1365,28.9145 12.1995,31.1865 12.7545,31.7315 C13.4275,32.3925 13.2385,33.9095 11.8075,34.0545 C12.5415,35.4385 13.2555,35.5685 13.2445,37.8295 C14.0745,37.3845 13.7405,36.4105 13.3935,35.7685 C13.1505,35.3295 12.8345,35.1305 12.9025,35.0275 C12.9545,34.9495 13.3815,34.5825 13.6375,34.8705 C14.3935,35.7175 15.8195,35.8685 17.3535,35.6775 C18.8845,35.4835 20.5265,34.9475 21.2855,33.7285 C21.6405,33.1545 21.8975,32.9515 22.0625,33.0515 C22.2255,33.1545 22.2975,33.5595 22.2795,34.2085 C22.2605,34.9305 21.9585,35.6805 21.7695,36.2785 C21.5585,36.9575 21.4935,37.4395 22.1545,37.4655 C22.3505,36.2105 22.6965,34.9755 22.7965,33.7275 C22.9075,32.3075 21.8795,29.6635 22.9875,28.3475 M30.3895,36.8655 C29.0955,37.5165 27.4075,38.9615 26.7765,39.5615 C26.3115,40.0055 24.3675,40.2255 23.2875,39.6695 C22.0065,39.0105 22.6855,37.9815 20.7095,37.9325 C19.7255,37.9095 18.7705,37.9015 17.8125,37.9125 C16.9665,37.9245 16.1195,37.9495 15.2555,37.9945 C12.2865,38.0215 11.9965,39.9615 10.1055,39.8915 C8.8105,39.8435 7.1785,38.8215 4.3735,38.2345 C2.4015,37.8235 0.5095,37.7265 0.1035,36.8545 C-0.3005,35.9845 0.6025,35.0105 0.6635,34.1435 C0.7375,33.0135 -0.1925,31.4775 0.4945,30.8815 C1.0615,30.3885 2.3045,30.7505 3.1065,30.3025 C3.9595,29.8295 4.3015,29.4365 4.3015,28.3985 C4.6145,29.4585 4.2865,30.3365 3.5825,30.7675 C3.1635,31.0215 2.3845,31.1545 1.7435,31.0895 C1.2365,31.0415 0.9225,31.1235 0.7675,31.3175 C0.5715,31.5685 0.6355,32.0075 0.8825,32.5915 C1.1315,33.1765 1.4295,33.5475 1.3895,34.2625 C1.3495,34.9785 0.5625,35.8285 0.6885,36.4305 C0.7375,36.6615 0.9655,36.8545 1.5105,37.0085 C2.4135,37.2625 4.0265,37.4925 5.6195,37.8805 C7.3885,38.3155 9.2165,39.1325 10.3515,38.9755 C13.7465,38.5025 11.8105,34.8615 11.2615,33.9955 C8.3945,29.4845 6.5005,26.5305 4.9825,27.7025 C4.5875,28.0075 4.5715,26.9355 4.5895,26.5225 C4.6545,25.0395 5.4075,24.5215 5.8545,23.3665 C6.6925,21.2045 7.3465,18.7295 8.6425,17.4495 C9.6075,16.2155 11.1125,14.1835 11.4005,13.1095 C11.1585,10.7775 11.0845,8.3225 11.0475,6.1735 C11.0105,3.8865 11.3725,1.8795 13.9555,0.4775 C14.5855,0.1345 15.4035,0.0095 16.2705,0.0005 C17.8215,-0.0165 19.5315,0.4175 20.6245,1.2275 C22.3665,2.5185 23.4605,5.2665 23.3335,7.2425 C23.2295,8.7645 23.5045,10.3595 23.9915,11.9985 C24.5755,13.9445 25.4995,15.3145 26.9675,16.8705 C28.7365,18.7465 30.1125,22.4435 30.5005,24.7835 C30.8655,26.9705 30.3895,28.3215 29.9095,28.3895 C29.1955,28.4945 28.7505,30.7655 26.5115,30.6595 C25.0835,30.5905 24.9435,29.7465 24.5475,29.0275 C23.9115,27.8785 23.2635,28.2375 23.0045,29.4365 C22.8705,30.0485 22.9685,30.9275 23.1645,31.6105 C23.5635,33.0115 23.4265,34.3405 23.1875,35.9505 C22.7305,39.0415 25.3475,39.6265 27.1135,38.1565 C28.8555,36.7065 29.2285,36.4765 31.4325,35.7235 C34.7575,34.5845 33.6395,33.5785 31.8525,32.9775 C30.2505,32.4385 30.1835,29.7305 30.7585,29.2195 C30.8865,32.1275 32.3995,32.5495 33.0415,32.9455 C35.7915,34.6525 32.0025,36.0535 30.3895,36.8655 M15.9515,9.2375 C16.3705,9.1305 16.3725,9.5525 16.6005,9.4755 C16.8235,9.4015 16.5975,8.9395 15.9515,9.2375 M14.6535,9.1725 C14.2225,9.2185 14.3715,9.6135 14.1325,9.6225 C13.8955,9.6315 13.9435,9.1185 14.6535,9.1725" id="Fill-1" fill="#95A1A3" mask="url(#mask-2)"></path>
            </g>
        </g>
    </g>
</svg>