<?xml version="1.0" encoding="UTF-8"?>
<svg width="40px" height="40px" viewBox="0 0 40 40" version="1.1" xmlns="http://www.w3.org/2000/svg" xmlns:xlink="http://www.w3.org/1999/xlink">
    <!-- Generator: Sketch 52.5 (67469) - http://www.bohemiancoding.com/sketch -->
    <title>mac</title>
    <desc>Created with Sketch.</desc>
    <defs>
        <polygon id="path-1" points="0 0 28.814 0 28.814 35.387332 0 35.387332"></polygon>
    </defs>
    <g id="mac" stroke="none" stroke-width="1" fill="none" fill-rule="evenodd">
        <g id="Group-7">
            <rect id="Rectangle" x="0" y="0" width="40" height="40"></rect>
            <g id="Group-3" transform="translate(6.000000, 2.000000)">
                <mask id="mask-2" fill="white">
                    <use xlink:href="#path-1"></use>
                </mask>
                <g id="Clip-2"></g>
                <path d="M19.6121,5.65 C20.8471,4.154 21.6791,2.072 21.4521,0 C19.6711,0.072 17.5171,1.187 16.2391,2.682 C15.0941,4.006 14.0911,6.125 14.3621,8.156 C16.3471,8.309 18.3761,7.147 19.6121,5.65 M24.0651,18.8 C24.1151,24.156 28.7631,25.938 28.8141,25.961 C28.7751,26.087 28.0721,28.501 26.3661,30.994 C24.8901,33.149 23.3601,35.297 20.9481,35.341 C18.5791,35.385 17.8171,33.937 15.1081,33.937 C12.4001,33.937 11.5531,35.297 9.3101,35.385 C6.9821,35.473 5.2101,33.054 3.7221,30.907 C0.6831,26.513 -1.6389,18.492 1.4801,13.077 C3.0291,10.388 5.7981,8.685 8.8021,8.641 C11.0881,8.598 13.2451,10.179 14.6421,10.179 C16.0391,10.179 18.6611,8.278 21.4171,8.557 C22.5711,8.605 25.8091,9.023 27.8891,12.067 C27.7211,12.171 24.0251,14.323 24.0651,18.8" id="Fill-1" fill="#95A1A3" mask="url(#mask-2)"></path>
            </g>
        </g>
    </g>
</svg>