<?xml version="1.0" encoding="UTF-8"?>
<svg width="60px" height="60px" viewBox="0 0 60 60" version="1.1" xmlns="http://www.w3.org/2000/svg" xmlns:xlink="http://www.w3.org/1999/xlink">
    <!-- Generator: Sketch 52.5 (67469) - http://www.bohemiancoding.com/sketch -->
    <title>source a code</title>
    <desc>Created with Sketch.</desc>
    <defs>
        <polygon id="path-1" points="0 0.0267551202 18.7813337 0.0267551202 18.7813337 29.6382 0 29.6382"></polygon>
        <polygon id="path-3" points="0.633360832 0.0260130086 19.415 0.0260130086 19.415 29.6376 0.633360832 29.6376"></polygon>
        <polygon id="path-5" points="0.980788285 0.3444464 15.3492803 0.3444464 15.3492803 37 0.980788285 37"></polygon>
    </defs>
    <g id="source-a-code" stroke="none" stroke-width="1" fill="none" fill-rule="evenodd">
        <g id="Group-10" transform="translate(2.000000, 11.000000)">
            <g id="Group-3" transform="translate(0.000000, 5.655700)">
                <mask id="mask-2" fill="white">
                    <use xlink:href="#path-1"></use>
                </mask>
                <g id="Clip-2"></g>
                <path d="M8.5561,14.4632 L17.6501,6.1032 C19.0731,4.7942 19.1661,2.5802 17.8581,1.1572 C16.5491,-0.2658 14.3341,-0.3568 12.9121,0.9492 L1.1311,11.7802 C0.4291,12.4262 0.0211,13.3302 0.0001,14.2832 C-0.0189,15.2362 0.3511,16.1572 1.0261,16.8312 L12.8061,28.6122 C13.4901,29.2962 14.3851,29.6382 15.2811,29.6382 C16.1761,29.6382 17.0731,29.2962 17.7551,28.6122 C19.1221,27.2462 19.1221,25.0292 17.7551,23.6632 L8.5561,14.4632 Z" id="Fill-1" fill="#C2D1D3" mask="url(#mask-2)"></path>
            </g>
            <g id="Group-6" transform="translate(36.000000, 5.655700)">
                <mask id="mask-4" fill="white">
                    <use xlink:href="#path-3"></use>
                </mask>
                <g id="Clip-5"></g>
                <path d="M18.2837,11.7806 L6.5017,0.9496 C5.0797,-0.3584 2.8647,-0.2664 1.5567,1.1576 C0.2487,2.5806 0.3417,4.7956 1.7637,6.1026 L10.8587,14.4636 L1.6587,23.6636 C0.2917,25.0296 0.2917,27.2466 1.6587,28.6126 C2.3417,29.2966 3.2377,29.6376 4.1337,29.6376 C5.0287,29.6376 5.9257,29.2966 6.6077,28.6126 L18.3887,16.8316 C19.0637,16.1576 19.4337,15.2366 19.4147,14.2836 C19.3937,13.3306 18.9857,12.4266 18.2837,11.7806" id="Fill-4" fill="#C2D1D3" mask="url(#mask-4)"></path>
            </g>
            <g id="Group-9" transform="translate(20.000000, 0.655700)">
                <mask id="mask-6" fill="white">
                    <use xlink:href="#path-5"></use>
                </mask>
                <g id="Clip-8"></g>
                <path d="M12.6919,0.4485 C10.8179,-0.0175 8.9179,1.1255 8.4519,3.0015 L1.0849,32.6555 C0.6189,34.5315 1.7609,36.4295 3.6379,36.8955 C3.9209,36.9665 4.2049,37.0005 4.4849,37.0005 C6.0539,37.0005 7.4829,35.9355 7.8789,34.3435 L15.2449,4.6885 C15.7119,2.8125 14.5679,0.9145 12.6919,0.4485" id="Fill-7" fill="#C2D1D3" mask="url(#mask-6)"></path>
            </g>
        </g>
    </g>
</svg>