<?xml version="1.0" encoding="UTF-8"?>
<svg width="198px" height="198px" viewBox="0 0 198 198" version="1.1" xmlns="http://www.w3.org/2000/svg" xmlns:xlink="http://www.w3.org/1999/xlink">
    <!-- Generator: Sketch 52.5 (67469) - http://www.bohemiancoding.com/sketch -->
    <title>Blockchain network</title>
    <desc>Created with Sketch.</desc>
    <defs>
        <polygon id="path-1" points="0 0 198 0 198 197.9997 0 197.9997"></polygon>
    </defs>
    <g id="Blockchain-network" stroke="none" stroke-width="1" fill="none" fill-rule="evenodd">
        <g id="Group-58">
            <g id="Group-3">
                <mask id="mask-2" fill="white">
                    <use xlink:href="#path-1"></use>
                </mask>
                <g id="Clip-2"></g>
                <path d="M198,98.9997 C198,153.6767 153.676,197.9997 99,197.9997 C44.324,197.9997 0,153.6767 0,98.9997 C0,44.3237 44.324,-0.0003 99,-0.0003 C153.676,-0.0003 198,44.3237 198,98.9997" id="Fill-1" fill="#FFFFFF" mask="url(#mask-2)"></path>
            </g>
            <path d="M50.708,63.1423 C44.459,63.1423 39.393,58.0763 39.393,51.8273 C39.393,45.5773 44.459,40.5113 50.708,40.5113 C56.958,40.5113 62.023,45.5773 62.023,51.8273 C62.023,58.0763 56.958,63.1423 50.708,63.1423" id="Fill-4" fill="#E4EFF1"></path>
            <path d="M86.5259,63.1423 C80.2759,63.1423 75.2109,58.0763 75.2109,51.8273 C75.2109,45.5773 80.2759,40.5113 86.5259,40.5113 C92.7749,40.5113 97.8409,45.5773 97.8409,51.8273 C97.8409,58.0763 92.7749,63.1423 86.5259,63.1423" id="Fill-6" fill="#E4EFF1"></path>
            <path d="M122.3432,63.1423 C116.0932,63.1423 111.0282,58.0763 111.0282,51.8273 C111.0282,45.5773 116.0932,40.5113 122.3432,40.5113 C128.5922,40.5113 133.6582,45.5773 133.6582,51.8273 C133.6582,58.0763 128.5922,63.1423 122.3432,63.1423" id="Fill-8" fill="#E4EFF1"></path>
            <path d="M50.708,100.0007 C44.459,100.0007 39.393,94.9347 39.393,88.6857 C39.393,82.4367 44.459,77.3697 50.708,77.3697 C56.958,77.3697 62.023,82.4367 62.023,88.6857 C62.023,94.9347 56.958,100.0007 50.708,100.0007" id="Fill-10" fill="#E4EFF1"></path>
            <path d="M86.5259,100.0007 C80.2759,100.0007 75.2109,94.9347 75.2109,88.6857 C75.2109,82.4367 80.2759,77.3697 86.5259,77.3697 C92.7749,77.3697 97.8409,82.4367 97.8409,88.6857 C97.8409,94.9347 92.7749,100.0007 86.5259,100.0007" id="Fill-12" fill="#E4EFF1"></path>
            <path d="M122.3432,100.0007 C116.0932,100.0007 111.0282,94.9347 111.0282,88.6857 C111.0282,82.4367 116.0932,77.3697 122.3432,77.3697 C128.5922,77.3697 133.6582,82.4367 133.6582,88.6857 C133.6582,94.9347 128.5922,100.0007 122.3432,100.0007" id="Fill-14" fill="#E4EFF1"></path>
            <path d="M50.708,137.7126 C44.459,137.7126 39.393,132.6476 39.393,126.3976 C39.393,120.1486 44.459,115.0826 50.708,115.0826 C56.958,115.0826 62.023,120.1486 62.023,126.3976 C62.023,132.6476 56.958,137.7126 50.708,137.7126" id="Fill-16" fill="#E4EFF1"></path>
            <path d="M86.5259,137.7126 C80.2759,137.7126 75.2109,132.6476 75.2109,126.3976 C75.2109,120.1486 80.2759,115.0826 86.5259,115.0826 C92.7749,115.0826 97.8409,120.1486 97.8409,126.3976 C97.8409,132.6476 92.7749,137.7126 86.5259,137.7126" id="Fill-18" fill="#E4EFF1"></path>
            <path d="M122.3432,137.7126 C116.0932,137.7126 111.0282,132.6476 111.0282,126.3976 C111.0282,120.1486 116.0932,115.0826 122.3432,115.0826 C128.5922,115.0826 133.6582,120.1486 133.6582,126.3976 C133.6582,132.6476 128.5922,137.7126 122.3432,137.7126" id="Fill-20" fill="#E4EFF1"></path>
            <path d="M73.6426,102.3943 L73.6426,146.7673" id="Stroke-22" stroke="#05AAD1" stroke-width="3"></path>
            <path d="M73.6426,73.2361 L73.6426,95.5141" id="Stroke-24" stroke="#05AAD1" stroke-width="3"></path>
            <path d="M109.9682,73.2361 L109.9682,146.7671" id="Stroke-26" stroke="#05AAD1" stroke-width="3"></path>
            <path d="M146.7339,109.3855 L73.2029,109.3855" id="Stroke-28" stroke="#05AAD1" stroke-width="3"></path>
            <path d="M146.7339,73.4109 L73.2029,73.4109" id="Stroke-30" stroke="#05AAD1" stroke-width="3"></path>
            <path d="M70.772,69.6843 L110.91,111.9493" id="Stroke-32" stroke="#05AAD1" stroke-width="3"></path>
            <path d="M73.876,84.2663 C67.626,84.2663 62.561,79.2013 62.561,72.9513 C62.561,66.7023 67.626,61.6353 73.876,61.6353 C80.125,61.6353 85.191,66.7023 85.191,72.9513 C85.191,79.2013 80.125,84.2663 73.876,84.2663" id="Fill-34" fill="#BBCED0"></path>
            <path d="M71.4697,81.8894 C65.2197,81.8894 60.1547,76.8244 60.1547,70.5754 C60.1547,64.3254 65.2197,59.2594 71.4697,59.2594 C77.7187,59.2594 82.7847,64.3254 82.7847,70.5754 C82.7847,76.8244 77.7187,81.8894 71.4697,81.8894 Z" id="Stroke-36" stroke="#05AAD1" stroke-width="2"></path>
            <path d="M109.6933,84.2663 C103.4443,84.2663 98.3783,79.2013 98.3783,72.9513 C98.3783,66.7023 103.4443,61.6353 109.6933,61.6353 C115.9433,61.6353 121.0083,66.7023 121.0083,72.9513 C121.0083,79.2013 115.9433,84.2663 109.6933,84.2663" id="Fill-38" fill="#BBCED0"></path>
            <path d="M145.5112,84.2663 C139.2612,84.2663 134.1962,79.2013 134.1962,72.9513 C134.1962,66.7023 139.2612,61.6353 145.5112,61.6353 C151.7602,61.6353 156.8262,66.7023 156.8262,72.9513 C156.8262,79.2013 151.7602,84.2663 145.5112,84.2663" id="Fill-40" fill="#BBCED0"></path>
            <path d="M73.876,121.1247 C67.626,121.1247 62.561,116.0597 62.561,109.8107 C62.561,103.5607 67.626,98.4947 73.876,98.4947 C80.125,98.4947 85.191,103.5607 85.191,109.8107 C85.191,116.0597 80.125,121.1247 73.876,121.1247" id="Fill-42" fill="#BBCED0"></path>
            <path d="M109.6933,121.1247 C103.4443,121.1247 98.3783,116.0597 98.3783,109.8107 C98.3783,103.5607 103.4443,98.4947 109.6933,98.4947 C115.9433,98.4947 121.0083,103.5607 121.0083,109.8107 C121.0083,116.0597 115.9433,121.1247 109.6933,121.1247" id="Fill-44" fill="#05AAD1"></path>
            <path d="M145.5112,121.1247 C139.2612,121.1247 134.1962,116.0597 134.1962,109.8107 C134.1962,103.5607 139.2612,98.4947 145.5112,98.4947 C151.7602,98.4947 156.8262,103.5607 156.8262,109.8107 C156.8262,116.0597 151.7602,121.1247 145.5112,121.1247" id="Fill-46" fill="#BBCED0"></path>
            <path d="M73.876,158.8376 C67.626,158.8376 62.561,153.7716 62.561,147.5226 C62.561,141.2736 67.626,136.2066 73.876,136.2066 C80.125,136.2066 85.191,141.2736 85.191,147.5226 C85.191,153.7716 80.125,158.8376 73.876,158.8376" id="Fill-48" fill="#BBCED0"></path>
            <path d="M109.6933,158.8376 C103.4443,158.8376 98.3783,153.7716 98.3783,147.5226 C98.3783,141.2736 103.4443,136.2066 109.6933,136.2066 C115.9433,136.2066 121.0083,141.2736 121.0083,147.5226 C121.0083,153.7716 115.9433,158.8376 109.6933,158.8376" id="Fill-50" fill="#BBCED0"></path>
            <path d="M145.5112,158.8376 C139.2612,158.8376 134.1962,153.7716 134.1962,147.5226 C134.1962,141.2736 139.2612,136.2066 145.5112,136.2066 C151.7602,136.2066 156.8262,141.2736 156.8262,147.5226 C156.8262,153.7716 151.7602,158.8376 145.5112,158.8376" id="Fill-52" fill="#BBCED0"></path>
            <path d="M144.4575,117.8864 C138.2085,117.8864 133.1425,112.8204 133.1425,106.5714 C133.1425,100.3224 138.2085,95.2554 144.4575,95.2554 C150.7075,95.2554 155.7725,100.3224 155.7725,106.5714 C155.7725,112.8204 150.7075,117.8864 144.4575,117.8864 Z" id="Stroke-54" stroke="#05AAD1" stroke-width="2"></path>
            <path d="M72.0098,118.1491 C65.7608,118.1491 60.6948,113.0831 60.6948,106.8341 C60.6948,100.5841 65.7608,95.5181 72.0098,95.5181 C78.2598,95.5181 83.3248,100.5841 83.3248,106.8341 C83.3248,113.0831 78.2598,118.1491 72.0098,118.1491 Z" id="Stroke-56" stroke="#05AAD1" stroke-width="2"></path>
        </g>
    </g>
</svg>