<?xml version="1.0" encoding="UTF-8"?>
<svg width="198px" height="198px" viewBox="0 0 198 198" version="1.1" xmlns="http://www.w3.org/2000/svg" xmlns:xlink="http://www.w3.org/1999/xlink">
    <!-- Generator: Sketch 52.5 (67469) - http://www.bohemiancoding.com/sketch -->
    <title>Explorer</title>
    <desc>Created with Sketch.</desc>
    <defs>
        <polygon id="path-1" points="0 0 197.9999 0 197.9999 197.9999 0 197.9999"></polygon>
        <polygon id="path-3" points="0 198 198 198 198 0 0 0"></polygon>
    </defs>
    <g id="Explorer" stroke="none" stroke-width="1" fill="none" fill-rule="evenodd">
        <g id="Group-23">
            <g id="Group-3">
                <mask id="mask-2" fill="white">
                    <use xlink:href="#path-1"></use>
                </mask>
                <g id="Clip-2"></g>
                <path d="M197.9999,98.9999 C197.9999,153.6769 153.6769,197.9999 98.9999,197.9999 C44.3239,197.9999 -0.0001,153.6769 -0.0001,98.9999 C-0.0001,44.3239 44.3239,-0.0001 98.9999,-0.0001 C153.6769,-0.0001 197.9999,44.3239 197.9999,98.9999" id="Fill-1" fill="#FFFFFF" mask="url(#mask-2)"></path>
            </g>
            <mask id="mask-4" fill="white">
                <use xlink:href="#path-3"></use>
            </mask>
            <g id="Clip-5"></g>
            <polygon id="Fill-4" fill="#BBCED0" mask="url(#mask-4)" points="47.56 102.894 54.791 102.894 54.791 71.514 47.56 71.514"></polygon>
            <polygon id="Fill-6" fill="#E4EFF1" mask="url(#mask-4)" points="161.3993 148.5389 44.2003 148.5639 44.1843 61.2569 161.3833 61.2309"></polygon>
            <polygon id="Fill-7" fill="#BBCED0" mask="url(#mask-4)" points="55.696 102.894 62.927 102.894 62.927 71.514 55.696 71.514"></polygon>
            <polygon id="Fill-8" fill="#BBCED0" mask="url(#mask-4)" points="67.558 102.894 74.788 102.894 74.788 71.514 67.558 71.514"></polygon>
            <polygon id="Fill-9" fill="#BBCED0" mask="url(#mask-4)" points="79.419 102.894 86.65 102.894 86.65 79.041 79.419 79.041"></polygon>
            <polygon id="Fill-10" fill="#BBCED0" mask="url(#mask-4)" points="91.282 102.894 98.513 102.894 98.513 89.078 91.282 89.078"></polygon>
            <polygon id="Stroke-11" stroke="#05AAD1" stroke-width="2" mask="url(#mask-4)" points="53.339 102.35 60.569 102.35 60.569 70.97 53.339 70.97"></polygon>
            <polygon id="Stroke-12" stroke="#05AAD1" stroke-width="2" mask="url(#mask-4)" points="65.202 102.35 72.432 102.35 72.432 70.97 65.202 70.97"></polygon>
            <polygon id="Stroke-13" stroke="#05AAD1" stroke-width="2" mask="url(#mask-4)" points="77.063 102.35 84.294 102.35 84.294 78.497 77.063 78.497"></polygon>
            <polygon id="Stroke-14" stroke="#05AAD1" stroke-width="2" mask="url(#mask-4)" points="88.925 102.35 96.156 102.35 96.156 88.534 88.925 88.534"></polygon>
            <path d="M114.1357,92.6649 C113.1517,90.8499 112.5927,88.7689 112.5927,86.5589 C112.5927,79.4739 118.3367,73.7289 125.4227,73.7289 C126.7987,73.7289 128.1247,73.9459 129.3677,74.3469" id="Fill-15" fill="#BBCED0" mask="url(#mask-4)"></path>
            <path d="M129.3681,74.3466 C134.5231,76.0116 138.2531,80.8496 138.2531,86.5586 C138.2531,93.6446 132.5091,99.3886 125.4231,99.3886 C120.5481,99.3886 116.3071,96.6696 114.1361,92.6646" id="Fill-16" fill="#BBCED0" mask="url(#mask-4)"></path>
            <path d="M112.1425,90.5321 C111.1595,88.7171 110.5995,86.6371 110.5995,84.4271 C110.5995,77.3411 116.3435,71.5961 123.4295,71.5961 C124.8065,71.5961 126.1315,71.8131 127.3745,72.2151" id="Stroke-17" stroke="#05AAD1" stroke-width="2" mask="url(#mask-4)"></path>
            <path d="M127.3749,72.2147 C132.5299,73.8787 136.2599,78.7177 136.2599,84.4267 C136.2599,91.5127 130.5159,97.2567 123.4299,97.2567 C118.5549,97.2567 114.3139,94.5367 112.1429,90.5317" id="Stroke-18" stroke="#05AAD1" stroke-width="2" mask="url(#mask-4)"></path>
            <polygon id="Fill-19" fill="#BBCED0" mask="url(#mask-4)" points="45.9 130.824 145.015 130.824 145.015 111.203 45.9 111.203"></polygon>
            <polygon id="Fill-20" fill="#05AAD1" mask="url(#mask-4)" points="151.4267 62.0643 32.2967 62.0893 32.2937 49.9183 151.4247 49.8923"></polygon>
            <polygon id="Stroke-21" stroke="#05AAD1" stroke-width="2" mask="url(#mask-4)" points="154.0116 142.2977 36.8136 142.3217 36.7976 55.9687 153.9956 55.9437"></polygon>
            <polyline id="Stroke-22" stroke="#05AAD1" stroke-width="2" mask="url(#mask-4)" points="45.1552 149.6727 161.7122 149.6727 161.7122 61.2317"></polyline>
        </g>
    </g>
</svg>