<?xml version="1.0" encoding="UTF-8"?>
<svg width="12px" height="12px" viewBox="0 0 12 12" version="1.1" xmlns="http://www.w3.org/2000/svg" xmlns:xlink="http://www.w3.org/1999/xlink">
    <!-- Generator: Sketch 52.5 (67469) - http://www.bohemiancoding.com/sketch -->
    <title>Header Drop_blue</title>
    <desc>Created with Sketch.</desc>
    <g id="Header-Drop_blue" stroke="none" stroke-width="1" fill="none" fill-rule="evenodd">
        <g id="Group-3-Copy-2">
            <rect id="Rectangle" x="0" y="0" width="12" height="12"></rect>
            <path d="M2,4.2578125 C2,4.22656234 2.00651035,4.19401059 2.01953125,4.16015625 C2.03255215,4.12630191 2.0520832,4.0963543 2.078125,4.0703125 C2.13020859,4.02343727 2.19270797,4 2.265625,4 C2.33854203,4 2.40104141,4.02343727 2.453125,4.0703125 L5.984375,7.6015625 L9.4609375,4.125 C9.51302109,4.07291641 9.57552047,4.046875 9.6484375,4.046875 C9.72135453,4.046875 9.78385391,4.07291641 9.8359375,4.125 C9.88802109,4.17708359 9.9140625,4.23958297 9.9140625,4.3125 C9.9140625,4.38541703 9.88802109,4.44791641 9.8359375,4.5 L6.171875,8.1640625 C6.11979141,8.21614609 6.05729203,8.2421875 5.984375,8.2421875 C5.91145797,8.2421875 5.84895859,8.21614609 5.796875,8.1640625 L2.078125,4.453125 C2.0520832,4.4270832 2.03255215,4.39713559 2.01953125,4.36328125 C2.00651035,4.32942691 2,4.29427102 2,4.2578125 Z" id="Arrow-down---simple-line-icons-Copy-4" fill="#05AAD1"></path>
        </g>
    </g>
</svg>