<svg id="레이어_1" xmlns="http://www.w3.org/2000/svg" viewBox="0 0 238.9 238.4"><style>.st0{fill:none}.st1{fill:#e64d49}.st2{fill:#404040}.st3{fill:#fff}</style><path class="st0" d="M119.4 68.5v-4m0 11v-4m0 11.1v-4m0-39.8v1.6m0 14v-4m0 11.1v-4m0 133.4v4m0-32.1v4m0-11v4m0-70.2v-4m0 84.3v4m0-25.1v4m0-9.9v2.9m0 53.8V198m0-103.1v-2.3m0 84.3v4m0 3v4m0-140.5v-4"/><path class="st1" d="M119.4 173.9c.6 0 1 .4 1 1v1c0 .6-.4 1-1 1s-1-.4-1-1v-1c0-.6.5-1 1-1zm0 7c.6 0 1 .4 1 1v1c0 .6-.4 1-1 1s-1-.4-1-1v-1c0-.5.5-1 1-1zm0-35.1c.6 0 1 .4 1 1v1c0 .6-.4 1-1 1s-1-.4-1-1v-1c0-.6.5-1 1-1zm0 21.1c.6 0 1 .4 1 1v1c0 .6-.4 1-1 1s-1-.4-1-1v-1c0-.6.5-1 1-1zm0 21c.6 0 1 .4 1 1v1c0 .6-.4 1-1 1s-1-.4-1-1v-1c0-.5.5-1 1-1zm0-28.1c.6 0 1 .4 1 1v1c0 .6-.4 1-1 1s-1-.4-1-1v-1c0-.5.5-1 1-1zm0-7c.6 0 1 .4 1 1v1c0 .6-.4 1-1 1s-1-.4-1-1v-1c0-.5.5-1 1-1zm0-84.3c.6 0 1 .4 1 1v1c0 .6-.4 1-1 1s-1-.4-1-1v-1c0-.6.5-1 1-1zm0 7c.6 0 1 .4 1 1v1c0 .6-.4 1-1 1s-1-.4-1-1v-1c0-.5.5-1 1-1zm0 119.5c.6 0 1 .4 1 1v1c0 .6-.4 1-1 1s-1-.4-1-1v-1c0-.6.5-1 1-1zm0-105.4c.6 0 1 .4 1 1v1c0 .6-.4 1-1 1s-1-.4-1-1v-1c0-.6.5-1 1-1zm0-7c.6 0 1 .4 1 1v1c0 .6-.4 1-1 1s-1-.4-1-1v-1c0-.6.5-1 1-1zm0-28.2c.6 0 1 .4 1 1v1c0 .6-.4 1-1 1s-1-.4-1-1v-1c0-.5.5-1 1-1zm0 7.1c.6 0 1 .4 1 1v1c0 .6-.4 1-1 1s-1-.4-1-1v-1c0-.6.5-1 1-1zm0-14.1c.6 0 1 .4 1 1v1c0 .6-.4 1-1 1s-1-.4-1-1v-1c0-.5.5-1 1-1zm0-7c.6 0 1 .4 1 1v1c0 .6-.4 1-1 1s-1-.4-1-1v-1c0-.6.5-1 1-1z"/><path class="st0" d="M177 176.8l-1.9-1.9m-26.9-27l-2.8-2.9m27.6 27.8l-2.9-2.8m-29.7-29.9l2.9 2.8m24.8 24.9l-2.9-2.8m-2.1-2.2l-2.8-2.8m-2.2-2.1l-2.8-2.9m-5-5l2.8 2.9M62.8 62.5l.9.9m19.9 19.9l-2.8-2.8m-5-5l2.8 2.8m12.1 12.1l2.8 2.8m5 5l-2.8-2.8M70.8 70.6l2.8 2.8m-4.9-5l-2.8-2.8m19.8 19.9l2.8 2.8m48.9 48.9"/><path class="st1" d="M90.7 89l-.7-.7c-.4-.4-1-.4-1.4 0-.4.4-.4 1 0 1.4l.7.7c.4.4 1 .4 1.4 0 .4-.4.4-1 0-1.4zM65.8 64.2l-.7-.7c-.4-.4-1-.4-1.4 0-.4.4-.4 1 0 1.4l.7.7c.2.2.4.3.7.3.3 0 .5-.1.7-.3.4-.4.4-1 0-1.4zm5 4.9l-.7-.7c-.4-.4-1-.4-1.4 0-.4.4-.4 1 0 1.4l.7.7c.4.4 1 .4 1.4 0 .4-.3.4-1 0-1.4zm9.9 10l-.7-.7c-.4-.4-1-.4-1.4 0-.4.4-.4 1 0 1.4l.7.7c.4.4 1 .4 1.4 0 .4-.4.4-1 0-1.4zm-4.9-5l-.7-.7c-.4-.4-1-.4-1.4 0-.4.4-.4 1 0 1.4l.7.7c.4.4 1 .4 1.4 0 .4-.4.4-1 0-1.4zm9.9 10l-.7-.8c-.4-.4-1-.4-1.4 0-.4.4-.4 1 0 1.4l.7.7c.2.2.4.3.7.3.3 0 .5-.1.7-.3.4-.3.4-1 0-1.3zm10 9.9l-.7-.7c-.4-.4-1-.4-1.4 0-.4.4-.4 1 0 1.4l.7.7c.2.2.4.3.7.3.3 0 .5-.1.7-.3.3-.4.3-1 0-1.4zm57.4 60.3l.7.7c.4.4 1 .4 1.4 0 .4-.4.4-1 0-1.4l-.7-.7c-.4-.4-1-.4-1.4 0-.3.4-.3 1 0 1.4zm10 9.9l.7.7c.2.2.4.3.7.3.3 0 .5-.1.7-.3.4-.4.4-1 0-1.4l-.7-.7c-.4-.4-1-.4-1.4 0-.4.4-.4 1.1 0 1.4zm5 5l.7.7c.4.4 1 .4 1.4 0 .4-.4.4-1 0-1.4l-.7-.7c-.4-.4-1-.4-1.4 0-.4.4-.4 1 0 1.4-.1 0-.1 0 0 0zm-10-9.9l.7.7c.2.2.4.3.7.3.3 0 .5-.1.7-.3.4-.4.4-1 0-1.4l-.7-.7c-.4-.4-1-.4-1.4 0-.4.4-.4 1 0 1.4zm-9.9-10l.7.7c.2.2.4.3.7.3.3 0 .5-.1.7-.3.4-.4.4-1 0-1.4l-.7-.7c-.4-.4-1-.4-1.4 0-.4.4-.4 1 0 1.4zm24.8 24.9l.7.7c.2.2.4.3.7.3.3 0 .5-.1.7-.3.4-.4.4-1 0-1.4l-.7-.7c-.4-.4-1-.4-1.4 0-.4.4-.4 1 0 1.4zm-29.8-29.8l.7.7c.2.2.4.3.7.3.3 0 .5-.1.7-.3.4-.4.4-1 0-1.4l-.7-.7c-.4-.4-1-.4-1.4 0-.4.4-.4 1 0 1.4z"/><path class="st0" d="M92.8 119.2h4m98.4 0h-4m-3 0h-4m15.9 0h-1.9m-31.1 0h-4m-14.1 0h4m-7 0h-4m39.2 0h-4m-7.1 0h4m-14 0h-4m-70.3 0h4m-11 0h4m-18.1 0h4m3 0h4m-25 0h4m3 0h4m-18.1 0h4m-8.8 0h1.8"/><path class="st1" d="M155.1 118.2h-1c-.6 0-1 .4-1 1s.4 1 1 1h1c.6 0 1-.4 1-1s-.5-1-1-1zm-84.4 0h-1c-.6 0-1 .4-1 1s.4 1 1 1h1c.6 0 1-.4 1-1s-.4-1-1-1zm77.3 0h-1c-.6 0-1 .4-1 1s.4 1 1 1h1c.6 0 1-.4 1-1s-.4-1-1-1zm49.2 0h-1c-.6 0-1 .4-1 1s.4 1 1 1h1c.6 0 1-.4 1-1s-.4-1-1-1zm-35.1 0h-1c-.6 0-1 .4-1 1s.4 1 1 1h1c.6 0 1-.4 1-1s-.5-1-1-1zm-98.4 0h-1c-.6 0-1 .4-1 1s.4 1 1 1h1c.6 0 1-.4 1-1s-.4-1-1-1zm-7 0h-1c-.6 0-1 .4-1 1s.4 1 1 1h1c.6 0 1-.4 1-1s-.5-1-1-1zm112.4 0h-1c-.6 0-1 .4-1 1s.4 1 1 1h1c.6 0 1-.4 1-1s-.4-1-1-1zm-91.3 0h-1c-.6 0-1 .4-1 1s.4 1 1 1h1c.6 0 1-.4 1-1s-.5-1-1-1zm14 0h-1c-.6 0-1 .4-1 1s.4 1 1 1h1c.6 0 1-.4 1-1s-.4-1-1-1zm98.4 0h-1c-.6 0-1 .4-1 1s.4 1 1 1h1c.6 0 1-.4 1-1s-.5-1-1-1zm-14.1 0h-1c-.6 0-1 .4-1 1s.4 1 1 1h1c.6 0 1-.4 1-1s-.4-1-1-1zm7.1 0h-1c-.6 0-1 .4-1 1s.4 1 1 1h1c.6 0 1-.4 1-1s-.5-1-1-1zm-98.4 0h-1c-.6 0-1 .4-1 1s.4 1 1 1h1c.6 0 1-.4 1-1s-.4-1-1-1zm-42.2 0h-1c-.6 0-1 .4-1 1s.4 1 1 1h1c.6 0 1-.4 1-1s-.4-1-1-1zm7.1 0h-1c-.6 0-1 .4-1 1s.4 1 1 1h1c.6 0 1-.4 1-1s-.5-1-1-1z"/><path class="st0" d="M70.8 167.8l2.8-2.8m-9.9 9.9l-.8.8m27.8-27.8l2.8-2.9m-27.7 27.8l2.8-2.8M175.1 63.5l2-2m-4.1 4.1l-2.9 2.8m-29.7 29.8l2.9-2.8m16.9-17l2.9-2.8m-87.3 87.2l2.8-2.8m19.9-19.9l-2.8 2.8m52.5-52.5l-2.8 2.8m22.7-22.6l-2.9 2.8m-84.5 84.5l2.8-2.9m2.2-2.1l2.8-2.9m61.8-61.7l2.8-2.8m5-5l-2.8 2.8"/><path class="st1" d="M89.3 147.9l-.7.7c-.4.4-.4 1 0 1.4.4.4 1 .4 1.4 0l.7-.7c.4-.4.4-1 0-1.4-.4-.4-1-.4-1.4 0zm55.3-52.5l.7-.7c.4-.4.4-1 0-1.4-.4-.4-1-.4-1.4 0l-.7.7c-.4.4-.4 1 0 1.4.2.2.4.3.7.3.3 0 .5-.1.7-.3zm5-5l.7-.7c.4-.4.4-1 0-1.4-.4-.4-1-.4-1.4 0l-.7.7c-.4.4-.4 1 0 1.4.2.2.4.3.7.3.2 0 .5-.1.7-.3zM94.2 143l-.7.7c-.4.4-.4 1 0 1.4.2.2.4.3.7.3.3 0 .5-.1.7-.3l.7-.7c.4-.4.4-1 0-1.4-.3-.4-1-.4-1.4 0zm75.3-72.4l.7-.7c.4-.4.4-1 0-1.4-.4-.4-1-.4-1.4 0l-.7.7c-.4.4-.4 1 0 1.4.3.3 1 .3 1.4 0zm-5 4.9l.7-.7c.4-.4.4-1 0-1.4-.4-.4-1-.4-1.4 0l-.7.7c-.4.4-.4 1 0 1.4.4.4 1 .4 1.4 0zm-9.9 10l.7-.7c.4-.4.4-1 0-1.4-.4-.4-1-.4-1.4 0l-.7.7c-.4.4-.4 1 0 1.4.3.4 1 .4 1.4 0zm-70.3 67.4l-.7.7c-.4.4-.4 1 0 1.4.2.2.4.3.7.3.3 0 .5-.1.7-.3l.7-.7c.4-.4.4-1 0-1.4-.4-.4-1-.4-1.4 0zm75.2-72.4l.7-.7c.4-.4.4-1 0-1.4-.4-.4-1-.4-1.4 0l-.7.7c-.4.4-.4 1 0 1.4.2.2.4.3.7.3.3 0 .5-.1.7-.3zm-95.1 92.3l-.7.7c-.4.4-.4 1 0 1.4.2.2.4.3.7.3.3 0 .5-.1.7-.3l.7-.7c.4-.4.4-1 0-1.4-.3-.4-1-.4-1.4 0zm110-107.2l.7-.7c.4-.4.4-1 0-1.4-.4-.4-1-.4-1.4 0l-.7.7c-.4.4-.4 1 0 1.4.2.2.4.3.7.3.3 0 .5-.1.7-.3zm-105 102.2l-.7.7c-.4.4-.4 1 0 1.4.2.2.4.3.7.3.3 0 .5-.1.7-.3l.7-.7c.4-.4.4-1 0-1.4-.4-.4-1-.4-1.4 0zm9.9-9.9l-.7.7c-.4.4-.4 1 0 1.4.4.4 1 .4 1.4 0l.7-.7c.4-.4.4-1 0-1.4-.4-.4-1-.4-1.4 0zm-4.9 4.9l-.7.7c-.4.4-.4 1 0 1.4.4.4 1 .4 1.4 0l.7-.7c.4-.4.4-1 0-1.4-.4-.4-1-.4-1.4 0z"/><path class="st2" d="M141 96.9v44H97.8v-44H141m0-2H97.8c-1.1 0-2 .9-2 2v44c0 1.1.9 2 2 2H141c1.1 0 2-.9 2-2v-44c0-1.1-.9-2-2-2z"/><path class="st3" d="M197.2 62.7c-1.8 0-3.3-1.3-3.4-3.1v-1.9c-.5.1-.9.1-1.4.1-.5 0-.9 0-1.4-.1v1.9c-.1 1.8-1.6 3.1-3.4 3.1-2.5 0-3.8.8-4.5 1.6 5.6 3.6 12.9 3.6 18.5 0-.7-.8-1.9-1.6-4.4-1.6z"/><path class="st3" d="M181.5 63.1c1-1.2 2.4-2 4-2.3.7-.1 1.4-.2 2.1-.2.7 0 1.4-.6 1.4-1.1v-2.3c-2.7-.7-4.9-2.5-6.3-4.9-.2-.3-.1-.8.1-1.1l3-3.7c-.1-1.9.2-3.9.8-5.7 1.5-3.2 5.3-4.6 8.5-3.2 1.4.6 2.5 1.8 3.2 3.2.6 1.8.9 3.8.8 5.7l3 3.7c.2.3.3.7.1 1.1-1.4 2.4-3.6 4.1-6.3 4.9v2.3c0 .5.7 1.1 1.4 1.1s1.4.1 2.1.2c1.6.3 3 1.1 4 2.3 7.5-6 8.7-17 2.7-24.5-6-7.5-17-8.7-24.5-2.7s-8.7 17-2.7 24.5c.7 1 1.6 1.9 2.6 2.7z"/><path class="st2" d="M192.4 69c10.8 0 19.5-8.6 19.5-19.4s-8.6-19.5-19.4-19.5c-10.8 0-19.5 8.6-19.5 19.4 0 4.4 1.4 8.6 4.1 12 3.7 4.7 9.3 7.5 15.3 7.5zm0-2c-3.3 0-6.5-.9-9.2-2.7.7-.8 1.9-1.6 4.5-1.6 1.8 0 3.3-1.3 3.4-3.1v-1.9c.5.1.9.1 1.4.1.5 0 .9 0 1.4-.1v1.9c.1 1.8 1.6 3.1 3.4 3.1 2.5 0 3.8.8 4.5 1.6-2.9 1.8-6.1 2.7-9.4 2.7zm4.8-18.4L200 52c-3.3 4.2-9.3 4.9-13.5 1.7-.6-.5-1.2-1.1-1.7-1.7l2.8-3.5c.1-.2.2-.4.2-.6v-.2c-.1-1.7.1-3.5.6-5.1 1-2.2 3.7-3.1 5.9-2.1.9.4 1.6 1.2 2.1 2.1.5 1.7.7 3.4.6 5.1v.3c0 .2.1.4.2.6zm-4.8-16.4c9.6 0 17.4 7.7 17.4 17.3 0 5.3-2.4 10.4-6.6 13.7-1-1.2-2.4-2-4-2.3-.7-.1-1.4-.2-2.1-.2-.7 0-1.4-.6-1.4-1.1v-2.4c2.7-.7 4.9-2.5 6.3-4.9.2-.3.1-.8-.1-1.1l-3-3.7c.1-1.9-.2-3.9-.8-5.7-1.5-3.2-5.3-4.6-8.5-3.2-1.4.6-2.5 1.8-3.2 3.2-.6 1.8-.9 3.8-.8 5.7l-3 3.7c-.2.3-.3.7-.1 1.1 1.4 2.4 3.6 4.2 6.3 4.9v2.3c0 .5-.7 1.1-1.4 1.1s-1.4.1-2.1.2c-1.6.3-3 1.1-4 2.3-7.5-6-8.8-16.9-2.8-24.4 3.6-4.2 8.6-6.6 13.9-6.5z"/><path class="st3" d="M196.4 42.7c-1-2.2-3.7-3.1-5.9-2.1-.9.4-1.6 1.2-2.1 2.1-.5 1.7-.7 3.4-.6 5.1v.2c0 .2-.1.5-.2.6l-2.8 3.5c3.3 4.2 9.3 4.9 13.5 1.7.6-.5 1.2-1.1 1.7-1.7l-2.8-3.5c-.1-.2-.2-.4-.2-.6v-.2c.1-1.7-.1-3.5-.6-5.1zm-148-10.5c-9.6 0-17.4 7.7-17.4 17.3 0 5.3 2.4 10.4 6.6 13.7 1-1.2 2.4-2 4-2.3.7-.1 1.4-.2 2.1-.2.7 0 1.4-.6 1.4-1.1v-2.4c-2.7-.7-4.9-2.5-6.3-4.9-.2-.3-.1-.8.1-1.1l3-3.7c-.1-1.9.2-3.9.8-5.7.9-2.4 3.3-3.9 5.8-3.8 2.6-.2 4.9 1.4 5.8 3.8.6 1.8.9 3.8.8 5.7l3 3.7c.2.3.3.7.1 1.1-1.4 2.4-3.6 4.2-6.3 4.9v2.3c0 .5.7 1.1 1.4 1.1s1.4.1 2 .2c1.6.3 3 1.1 4 2.3 7.5-6 8.8-16.9 2.8-24.4-3.4-4.2-8.4-6.6-13.7-6.5z"/><path class="st3" d="M53.2 62.7c-1.8 0-3.3-1.3-3.4-3.1v-1.9c-.5.1-.9.1-1.4.1-.5 0-.9 0-1.4-.1v1.9c-.1 1.8-1.6 3.1-3.4 3.1-2.5 0-3.8.8-4.5 1.6 5.6 3.6 12.9 3.6 18.5 0-.7-.8-1.9-1.6-4.4-1.6z"/><path class="st2" d="M48.4 30.2c-10.7 0-19.4 8.7-19.3 19.4 0 10.7 8.7 19.4 19.4 19.3 10.7 0 19.3-8.7 19.3-19.3 0-10.7-8.7-19.4-19.4-19.4zm0 36.8c-3.3 0-6.5-.9-9.2-2.7.7-.8 1.9-1.6 4.5-1.6 1.8 0 3.2-1.3 3.4-3.1v-1.9c.5.1.9.1 1.4.1.5 0 .9 0 1.4-.1v1.9c.1 1.8 1.6 3.1 3.4 3.1 2.5 0 3.8.8 4.5 1.6-2.9 1.8-6.1 2.7-9.4 2.7zm4.8-18.4l2.8 3.5c-3.3 4.2-9.3 4.9-13.5 1.7-.6-.5-1.2-1.1-1.7-1.7l2.8-3.5c.1-.2.2-.4.2-.6v-.2c-.1-1.7.1-3.5.6-5.1.6-1.7 2.2-2.7 4-2.5 1.8-.2 3.4.8 4 2.5.5 1.7.7 3.4.6 5.1v.2c0 .2.1.4.2.6zm6.1 14.5c-1-1.2-2.4-2-4-2.3-.7-.1-1.4-.2-2-.2-.7 0-1.4-.6-1.4-1.1v-2.3c2.7-.7 4.9-2.5 6.3-4.9.2-.4.1-.8-.1-1.1l-3-3.7c.1-1.9-.2-3.9-.8-5.7-.9-2.4-3.3-3.9-5.8-3.8-2.6-.2-4.9 1.4-5.8 3.8-.6 1.8-.9 3.8-.8 5.7l-3 3.7c-.2.3-.3.7-.1 1.1 1.4 2.4 3.6 4.2 6.3 4.9v2.3c0 .5-.7 1.1-1.4 1.1s-1.4.1-2.1.2c-1.6.3-3 1.1-4 2.3-7.5-6-8.7-17-2.7-24.5s17-8.7 24.5-2.7 8.7 17 2.7 24.5c-.9 1-1.8 1.9-2.8 2.7z"/><path class="st3" d="M52.4 42.7c-.6-1.7-2.2-2.7-4-2.5-1.8-.2-3.4.8-4 2.5-.5 1.7-.7 3.4-.6 5.1v.2c0 .2-.1.5-.2.6l-2.8 3.5c3.3 4.2 9.3 4.9 13.5 1.7.6-.5 1.2-1.1 1.7-1.7l-2.8-3.5c-.2-.2-.2-.4-.2-.6v-.2c.1-1.7-.1-3.5-.6-5.1zM175 188.6c0 5.3 2.4 10.3 6.5 13.6 1-1.2 2.4-2 4-2.3.7-.1 1.4-.2 2.1-.2.7 0 1.4-.6 1.4-1.1v-2.3c-2.7-.7-4.9-2.5-6.3-4.9-.2-.4-.1-.8.1-1.1l3-3.7c-.1-1.9.2-3.9.8-5.7 1.5-3.2 5.3-4.6 8.5-3.2 1.4.6 2.5 1.8 3.2 3.2.6 1.8.9 3.8.8 5.7l3 3.7c.2.3.3.7.1 1.1-1.4 2.4-3.6 4.1-6.3 4.9v2.3c0 .5.7 1.1 1.4 1.1s1.4.1 2.1.2c1.6.3 3 1.1 4 2.3 7.5-6 8.7-16.9 2.7-24.4-6-7.5-16.9-8.7-24.4-2.7-4.3 3.2-6.7 8.2-6.7 13.5z"/><path class="st3" d="M197.2 201.7c-1.8 0-3.3-1.3-3.4-3.1v-1.9c-.5.1-.9.1-1.4.1-.5 0-.9 0-1.4-.1v1.9c-.1 1.8-1.6 3.1-3.4 3.1-2.5 0-3.8.8-4.5 1.6 5.6 3.6 12.9 3.6 18.5 0-.7-.8-1.9-1.6-4.4-1.6z"/><path class="st2" d="M192.4 208c10.7 0 19.3-8.7 19.3-19.4s-8.7-19.3-19.4-19.3S173 178 173 188.6c0 10.7 8.7 19.4 19.4 19.4zm0-2c-3.3 0-6.5-.9-9.2-2.7.7-.8 1.9-1.6 4.5-1.6 1.8 0 3.2-1.3 3.4-3.1v-1.9c.5.1.9.1 1.4.1.5 0 .9 0 1.4-.1v1.9c.1 1.8 1.6 3.1 3.4 3.1 2.5 0 3.8.8 4.5 1.6-2.9 1.8-6.1 2.7-9.4 2.7zm4.8-18.4l2.8 3.5c-3.3 4.2-9.3 4.9-13.5 1.7-.6-.5-1.2-1.1-1.7-1.7l2.8-3.5c.1-.2.2-.4.2-.6v-.2c-.1-1.7.1-3.5.6-5.1 1-2.2 3.7-3.1 5.9-2.1.9.4 1.6 1.2 2.1 2.1.5 1.7.7 3.4.6 5.1v.2c0 .2.1.4.2.6zm-4.8-16.4c9.6 0 17.4 7.7 17.4 17.3 0 5.3-2.4 10.4-6.6 13.7-1-1.2-2.4-2-4-2.3-.7-.1-1.4-.2-2.1-.2-.7 0-1.4-.6-1.4-1.1v-2.4c2.7-.7 4.9-2.5 6.3-4.9.2-.4.1-.8-.1-1.1l-3-3.7c.1-1.9-.2-3.9-.8-5.7-1.5-3.2-5.3-4.6-8.5-3.2-1.4.6-2.5 1.8-3.2 3.2-.6 1.8-.9 3.8-.8 5.7l-3 3.7c-.2.3-.3.7-.1 1.1 1.4 2.4 3.6 4.2 6.3 4.9v2.3c0 .5-.7 1.1-1.4 1.1s-1.4.1-2.1.2c-1.6.3-3 1.1-4 2.3-7.5-6-8.8-16.9-2.8-24.4 3.6-4.2 8.6-6.6 13.9-6.5z"/><path class="st3" d="M196.4 181.7c-1-2.2-3.7-3.1-5.9-2.1-.9.4-1.6 1.2-2.1 2.1-.5 1.7-.7 3.4-.6 5.1v.2c0 .2-.1.5-.2.6l-2.8 3.5c3.3 4.2 9.3 4.9 13.5 1.7.6-.5 1.2-1.1 1.7-1.7l-2.8-3.5c-.1-.2-.2-.4-.2-.6v-.2c.1-1.7-.1-3.5-.6-5.1zm-143.2 20c-1.8 0-3.3-1.3-3.4-3.1v-1.9c-.5.1-.9.1-1.4.1-.5 0-.9 0-1.4-.1v1.9c-.1 1.8-1.6 3.1-3.4 3.1-2.5 0-3.8.8-4.5 1.6 5.6 3.6 12.9 3.6 18.5 0-.7-.8-1.9-1.6-4.4-1.6z"/><path class="st3" d="M48.4 171.2c-9.6 0-17.4 7.7-17.4 17.3 0 5.3 2.4 10.4 6.6 13.7 1-1.2 2.4-2 4-2.3.7-.1 1.4-.2 2.1-.2.7 0 1.4-.6 1.4-1.1v-2.4c-2.7-.7-4.9-2.5-6.3-4.9-.2-.4-.1-.8.1-1.1l3-3.7c-.1-1.9.2-3.9.8-5.7.9-2.4 3.3-3.9 5.8-3.8 2.6-.2 4.9 1.4 5.8 3.8.6 1.8.9 3.8.8 5.7l3 3.7c.2.3.3.7.1 1.1-1.4 2.4-3.6 4.1-6.3 4.9v2.3c0 .5.7 1.1 1.4 1.1s1.4.1 2 .2c1.6.3 3 1.1 4 2.3 7.5-6 8.8-16.9 2.8-24.4-3.4-4.2-8.4-6.6-13.7-6.5z"/><path class="st2" d="M48.4 169.2c-10.7 0-19.5 8.7-19.5 19.4s8.7 19.5 19.4 19.5 19.5-8.7 19.5-19.4c0-4.8-1.7-9.4-4.9-13-3.7-4.1-9-6.5-14.5-6.5zm0 36.8c-3.3 0-6.5-.9-9.2-2.7.7-.8 1.9-1.6 4.5-1.6 1.8 0 3.2-1.3 3.4-3.1v-1.9c.5.1.9.1 1.4.1.5 0 .9 0 1.4-.1v1.9c.1 1.8 1.6 3.1 3.4 3.1 2.5 0 3.8.8 4.5 1.6-2.9 1.8-6.1 2.7-9.4 2.7zm4.8-18.4l2.8 3.5c-3.3 4.2-9.3 4.9-13.5 1.7-.6-.5-1.2-1.1-1.7-1.7l2.8-3.5c.1-.2.2-.4.2-.6v-.2c-.1-1.7.1-3.5.6-5.1.6-1.7 2.2-2.7 4-2.5 1.8-.2 3.4.8 4 2.5.5 1.7.7 3.4.6 5.1v.2c.1.2.1.4.2.6zm12.6 1c0 5.3-2.4 10.3-6.5 13.6-1-1.2-2.4-2-4-2.3-.7-.1-1.4-.2-2-.2-.7 0-1.4-.6-1.4-1.1v-2.4c2.7-.7 4.9-2.5 6.3-4.9.2-.4.1-.8-.1-1.1l-3-3.7c.1-1.9-.2-3.9-.8-5.7-.9-2.4-3.3-3.9-5.8-3.8-2.6-.2-4.9 1.4-5.8 3.8-.6 1.8-.9 3.8-.8 5.7l-3 3.7c-.2.3-.3.7-.1 1.1 1.4 2.4 3.6 4.1 6.3 4.9v2.3c0 .5-.7 1.1-1.4 1.1s-1.4.1-2.1.2c-1.6.3-3 1.1-4 2.3-7.5-6-8.7-16.9-2.7-24.4s16.9-8.7 24.4-2.7c4.1 3.3 6.5 8.3 6.5 13.6z"/><path class="st3" d="M52.4 181.7c-.6-1.7-2.2-2.7-4-2.5-1.8-.2-3.4.8-4 2.5-.5 1.7-.7 3.4-.6 5.1v.2c0 .2-.1.5-.2.6l-2.8 3.5c3.3 4.2 9.3 4.9 13.5 1.7.6-.5 1.2-1.1 1.7-1.7l-2.8-3.5c-.1-.2-.2-.4-.2-.6v-.2c.1-1.7-.1-3.5-.6-5.1zm-15.6-62.8c0-9.6-7.8-17.4-17.4-17.4S2 109.3 2 118.9c0 5.5 2.6 10.7 7.1 14 1.1-.5 2.3-.7 3.5-.6h1.5l.8-1.1 1-1.5c-2.2-1.9-3.6-4.6-3.8-7.5-1.1-2.7-1.2-5.7-.2-8.5 0-2.4.9-4.8 6.1-4.8 2.8-1.6 5.6-1.7 7.5-.1 1.5 1.3 2.1 3.3 1.6 5.2.4 1.6 1.5 6.3-.3 8.5-.2 2.8-1.5 5.4-3.7 7.3l1 1.5.8 1.1h1.8c1.1-.1 2.2.1 3.2.6 4.3-3.4 6.9-8.6 6.9-14.1z"/><path class="st3" d="M26.6 134.3h-2.4c-.3 0-.6-.2-.8-.4l-2.1-3.1s0-.1-.1-.1c-1.2.5-2.5.5-3.7 0v.1l-2.1 3c-.2.3-.5.4-.8.4h-3.3c5 2.7 11.1 2.7 16.1 0-.2.1-.4.1-.8.1zm192.9-32.9c-9.6 0-17.4 7.8-17.4 17.4 0 5.5 2.6 10.7 7.1 14 1.1-.5 2.3-.7 3.5-.6h1.5l.8-1.1 1-1.4c-2.2-1.9-3.6-4.6-3.7-7.5-1.1-2.7-1.2-5.7-.3-8.5 0-2.4.9-4.8 6.1-4.8 2.8-1.7 5.6-1.7 7.5-.1 1.5 1.3 2.1 3.3 1.6 5.2.4 1.6 1.5 6.3-.3 8.5-.2 2.8-1.5 5.5-3.7 7.3l1 1.5.8 1.1h1.8c1.1-.1 2.2.1 3.1.5 7.7-5.7 9.3-16.6 3.6-24.3-3.3-4.6-8.5-7.2-14-7.2z"/><path class="st3" d="M226.7 134.2h-2.4c-.3 0-.6-.2-.8-.4l-2.1-3s0-.1-.1-.1c-.6.2-1.2.4-1.9.4-.6 0-1.2-.1-1.8-.4v.1l-2.1 3c-.2.3-.5.4-.8.4h-3.3c5 2.7 11.1 2.7 16.1 0h-.8z"/><path class="st2" d="M219.5 99.4c-10.7 0-19.4 8.7-19.4 19.4v.3c.1 6.2 3.2 11.9 8.2 15.5.1.1.2.2.4.3 6.5 4.4 15 4.4 21.6 0 .1-.1.3-.1.4-.2 8.8-6.1 10.9-18.2 4.7-27-3.7-5.2-9.6-8.3-15.9-8.3zm0 36.8c-2.8 0-5.5-.7-8-2h3.3c.3 0 .6-.2.8-.4l2.1-3v-.1c.6.2 1.2.3 1.8.4.6 0 1.3-.1 1.9-.4 0 .1 0 .1.1.1l2.1 3c.2.3.5.4.8.4h3.2c-2.5 1.4-5.3 2-8.1 2zm5.6-22.1c.7 2.3 1.1 6.1.1 7-.2.2-.4.5-.4.8 0 3.4-2.8 7.1-5.3 7.1s-5.3-3.7-5.3-7.1c0-.1 0-.3-.1-.4-1-2.3-1.1-4.9-.2-7.3.1-.1.1-.3.1-.4 0-1.6 0-3 4.4-3 .2 0 .4-.1.5-.2 1-.7 2.2-1.1 3.4-1.1.7 0 1.4.2 2 .7 1 .8 1.3 2.1.9 3.3-.2.2-.2.4-.1.6zm4.7 18.7c-1-.5-2.1-.7-3.1-.5h-1.8l-.8-1.1-1-1.5c2.2-1.8 3.5-4.5 3.7-7.3 1.8-2.1.7-6.9.3-8.5.6-1.9 0-3.9-1.6-5.2-1.9-1.6-4.7-1.5-7.5.1-5.2.1-6 2.5-6.1 4.8-.9 2.8-.8 5.8.3 8.5.1 2.9 1.5 5.7 3.7 7.5l-1 1.4-.8 1.1h-1.5c-1.2-.1-2.4.1-3.5.6-7.7-5.7-9.4-16.6-3.6-24.4 5.7-7.7 16.6-9.4 24.4-3.6s9.4 16.6 3.6 24.4c-1 1.4-2.2 2.7-3.7 3.7z"/><path class="st3" d="M109.1 232.9c1.1-.5 2.3-.7 3.5-.6h1.5l.8-1.1 1-1.5c-2.2-1.9-3.6-4.6-3.8-7.5-1.1-2.7-1.2-5.7-.3-8.5 0-2.4.9-4.8 6.1-4.9 2.8-1.6 5.6-1.7 7.5-.1 1.5 1.3 2.1 3.3 1.5 5.2.4 1.6 1.5 6.3-.3 8.5-.2 2.8-1.5 5.5-3.7 7.3l1 1.5.8 1.1h1.8c1.1-.1 2.2.1 3.2.5 7.7-5.7 9.3-16.6 3.6-24.3-5.7-7.7-16.6-9.3-24.3-3.6-7.7 5.7-9.3 16.6-3.6 24.3 1 1.5 2.2 2.7 3.7 3.7z"/><path class="st3" d="M126.7 234.4h-2.4c-.3 0-.6-.2-.8-.4l-2.1-3s0-.1-.1-.1c-1.2.5-2.5.5-3.7 0 0 0 0 .1-.1.1l-2 3c-.2.3-.5.4-.8.4h-3.3c5 2.7 11.1 2.7 16.1 0h-.8z"/><path class="st2" d="M100 219c0 6.3 3.1 12.2 8.2 15.8.1.1.2.2.4.3 6.5 4.4 15 4.4 21.6 0 .1 0 .3-.1.4-.2 8.8-6.2 10.9-18.2 4.7-27-3.6-5.2-9.6-8.2-15.9-8.2-10.7-.1-19.4 8.6-19.4 19.3zm19.4 17.4c-2.8 0-5.5-.7-8-2h3.3c.3 0 .6-.2.8-.4l2-3s0-.1.1-.1c1.2.5 2.5.5 3.7 0 0 0 0 .1.1.1l2.1 3c.2.3.5.4.8.4h3.2c-2.5 1.3-5.3 2-8.1 2zm5.6-22.2c.7 2.3 1.1 6.1.1 7-.2.2-.4.5-.4.8 0 3.4-2.8 7.1-5.3 7.1s-5.3-3.7-5.3-7.1c0-.1 0-.3-.1-.4-1-2.3-1.1-4.9-.2-7.3.1-.1.1-.2.1-.4 0-1.6 0-3 4.4-3 .2 0 .4-.1.5-.1 1-.7 2.2-1.1 3.4-1.1.7 0 1.5.2 2.1.7 1 .8 1.3 2.1.9 3.3-.3.1-.3.3-.2.5zm-5.6-12.6c9.6 0 17.4 7.7 17.4 17.3 0 5.5-2.6 10.7-7 14-1-.5-2.1-.7-3.2-.5h-1.8l-.8-1.1-1-1.5c2.2-1.8 3.5-4.5 3.7-7.3 1.8-2.1.7-6.9.3-8.5.6-1.9 0-3.9-1.6-5.2-1.9-1.6-4.7-1.5-7.5.1-5.2.1-6 2.5-6.1 4.9-.9 2.8-.8 5.8.3 8.5.1 2.9 1.5 5.7 3.8 7.5l-1 1.5-.8 1.1h-1.5c-1.2-.1-2.4.1-3.5.6-7.7-5.7-9.4-16.6-3.7-24.3 3.4-4.5 8.5-7.1 14-7.1z"/><path class="st3" d="M127.5 34.8h-3.2c-.3 0-.6-.2-.8-.4l-2.1-3s0-.1-.1-.1c-.6.2-1.2.4-1.9.4-.6 0-1.2-.1-1.8-.4 0 0 0 .1-.1.1l-2 3c-.2.3-.5.4-.8.4h-3.2c5 2.7 11 2.7 16 0z"/><path class="st3" d="M112.6 32.8h1.5l.8-1.1 1-1.5c-2.3-1.9-3.6-4.6-3.8-7.5-1.1-2.7-1.2-5.7-.3-8.5 0-2.4.9-4.8 6.1-4.8 2.8-1.6 5.6-1.7 7.5-.1 1.5 1.3 2.1 3.3 1.5 5.2.4 1.6 1.5 6.3-.3 8.5-.2 2.8-1.5 5.5-3.7 7.3l1 1.5.8 1.1h1.8c1.1-.1 2.2.1 3.2.5 7.7-5.7 9.3-16.6 3.6-24.3-5.7-7.7-16.6-9.3-24.3-3.6s-9.3 16.6-3.6 24.3c1 1.4 2.2 2.6 3.6 3.6 1.1-.5 2.3-.7 3.6-.6z"/><path class="st2" d="M130.2 35.5c.1 0 .3-.1.4-.2 8.8-6.2 10.9-18.3 4.7-27s-18.3-10.9-27-4.7-10.9 18.3-4.7 27c1.3 1.8 2.9 3.4 4.7 4.7.1.1.2.2.4.3 3.2 2.1 6.9 3.3 10.8 3.3 3.8-.1 7.5-1.2 10.7-3.4zM102 19.4C102 9.8 109.8 2 119.4 2c9.6 0 17.4 7.8 17.4 17.4 0 5.5-2.6 10.7-7 14-1-.5-2.1-.7-3.2-.5h-1.8l-.8-1.1-1-1.5c2.2-1.8 3.5-4.5 3.7-7.3 1.8-2.1.7-6.9.3-8.5.6-1.9 0-3.9-1.6-5.2-1.9-1.6-4.7-1.5-7.5.1-5.2.1-6 2.5-6.1 4.8-.9 2.8-.8 5.8.3 8.5.1 2.9 1.5 5.7 3.8 7.5l-1 1.5-.8 1.1h-1.5c-1.2-.1-2.4.1-3.5.6-4.4-3.3-7.1-8.5-7.1-14zm23-4.7c.7 2.3 1.2 6.1.1 7-.2.2-.4.5-.4.8 0 3.4-2.8 7.1-5.3 7.1s-5.3-3.7-5.3-7.1c0-.1 0-.3-.1-.4-1-2.3-1.1-4.9-.2-7.3.1-.1.1-.2.1-.4 0-1.6 0-3 4.4-3 .2 0 .4-.1.5-.1 1-.7 2.2-1.1 3.4-1.1.7 0 1.5.2 2.1.7.9.8 1.3 2.1.8 3.2-.2.1-.2.4-.1.6zm-13.6 20.1h3.2c.3 0 .6-.2.8-.4l2-3s0-.1.1-.1c.6.2 1.2.4 1.8.4.6 0 1.3-.1 1.9-.4 0 0 0 .1.1.1l2.1 3c.2.3.5.4.8.4h3.2c-5 2.7-11 2.7-16 0zm-92 64.7C8.7 99.5 0 108.2 0 118.9c0 6.3 3.1 12.2 8.2 15.9.1.1.2.2.4.3 6.5 4.4 15 4.4 21.5 0 .1-.1.3-.1.4-.2 5.1-3.6 8.2-9.4 8.3-15.6v-.3c0-10.8-8.7-19.5-19.4-19.5zm0 36.8c-2.8 0-5.5-.7-8-2h3.3c.3 0 .6-.2.8-.4l2.1-3v-.1c1.2.5 2.5.5 3.7 0 0 0 0 .1.1.1l2.1 3.1c.2.3.5.4.8.4h3.2c-2.5 1.2-5.3 1.9-8.1 1.9zm5.6-22.1c.7 2.3 1.1 6.1.1 7-.2.2-.4.5-.4.8 0 3.4-2.8 7.1-5.3 7.1s-5.3-3.7-5.3-7.1c0-.1 0-.3-.1-.4-1-2.3-1.1-4.9-.2-7.3 0-.1.1-.2.1-.4 0-1.6 0-3 4.4-3 .2 0 .4-.1.5-.2 1-.7 2.2-1.1 3.4-1.1.7 0 1.4.2 2 .7 1 .8 1.3 2.1.9 3.3-.2.2-.2.4-.1.6zm4.8 18.6c-1-.5-2.1-.7-3.2-.6h-1.8l-.8-1.1-1-1.5c2.2-1.8 3.5-4.5 3.7-7.3 1.8-2.1.7-6.9.3-8.5.6-1.9-.1-3.9-1.6-5.2-1.9-1.6-4.7-1.5-7.5.1-5.2.1-6.1 2.5-6.1 4.8-.9 2.8-.9 5.8.2 8.5.1 2.9 1.5 5.7 3.8 7.5l-1 1.5-.8 1.1h-1.5c-1.2-.1-2.4.1-3.5.6-7.7-5.7-9.3-16.6-3.6-24.3s16.6-9.3 24.3-3.6c7.7 5.7 9.3 16.6 3.6 24.3-.9 1.5-2.1 2.7-3.5 3.7z"/><path class="st3" d="M24.1 110.3c-.6-.5-1.3-.7-2-.7-1.2.1-2.4.5-3.4 1.1-.2.1-.3.2-.5.2-4.4 0-4.4 1.5-4.4 3 0 .1 0 .3-.1.4-.8 2.4-.7 5 .2 7.3.1.1.1.3.1.4 0 3.4 2.8 7.1 5.3 7.1s5.3-3.7 5.3-7.1c0-.3.1-.6.4-.8 1.1-.9.6-4.7-.1-7-.1-.2-.1-.4 0-.6.6-1.2.2-2.5-.8-3.3zm200.1-.1c-.6-.5-1.3-.7-2-.7-1.2.1-2.4.5-3.4 1.1-.2.1-.3.1-.5.2-4.4 0-4.4 1.5-4.4 3 0 .1 0 .3-.1.4-.8 2.4-.7 5 .2 7.3.1.1.1.3.1.4 0 3.4 2.8 7.1 5.3 7.1s5.3-3.7 5.3-7.1c0-.3.1-.6.4-.8 1.1-.9.6-4.7-.1-7-.1-.2-.1-.4 0-.6.6-1.2.2-2.5-.8-3.3zm-100 100.1c-.6-.5-1.3-.7-2.1-.7-1.2.1-2.4.5-3.4 1.1-.2.1-.3.1-.5.1-4.4 0-4.4 1.5-4.4 3 0 .1 0 .3-.1.4-.8 2.4-.7 5 .2 7.3.1.1.1.3.1.4 0 3.4 2.8 7.1 5.3 7.1s5.3-3.7 5.3-7.1c0-.3.1-.6.4-.8 1.1-.9.6-4.7-.1-7-.1-.2-.1-.4 0-.6.6-1.1.2-2.4-.7-3.2zm0-199.5c-.6-.5-1.3-.7-2.1-.7-1.2.1-2.4.5-3.4 1.1-.2.1-.3.1-.5.1-4.4 0-4.4 1.5-4.4 3 0 .1 0 .3-.1.4-.8 2.4-.7 5 .2 7.3.1.1.1.3.1.4 0 3.4 2.8 7.1 5.3 7.1s5.3-3.7 5.3-7.1c0-.3.1-.6.4-.8 1.1-.9.6-4.7-.1-7-.1-.2-.1-.4 0-.6.6-1.1.2-2.4-.7-3.2z"/><path d="M125.6 118.4c-3 0-5.4-2.4-5.4-5.4 0-3 2.4-5.4 5.4-5.4 3 0 5.4 2.4 5.4 5.4 0 .7-.6 1.3-1.3 1.3s-1.3-.6-1.3-1.3c0-1.5-1.2-2.8-2.8-2.8s-2.8 1.2-2.8 2.8c0 1.5 1.2 2.8 2.8 2.8.7 0 1.3.6 1.3 1.3 0 .7-.6 1.3-1.3 1.3z" fill="#f76061"/><path d="M131.3 124.7c-.1-3-2.6-5.4-5.5-5.5-2.2-.1-4.1 1.1-5.2 2.8-.2.4-.7.7-1.1.7h-.1c-.5 0-.9-.3-1.1-.7-1-1.7-3-2.9-5.2-2.8-3 .1-5.4 2.5-5.5 5.5-.2 3.3 2.5 6 5.7 6 2.1 0 3.9-1.1 5-2.8.2-.4.7-.7 1.1-.7h.1c.5 0 .9.3 1.1.7 1 1.7 2.8 2.8 5 2.8 3.3 0 5.9-2.7 5.7-6zm-11.3 1.1h-1.1c-.4 0-.8-.4-.8-.8s.4-.8.8-.8h1.1c.4 0 .8.4.8.8s-.4.8-.8.8z" fill="#1c627a"/><path d="M110.4 117.6c.4.2.7.7.7 1.1v.1c0 .5-.3.9-.7 1.1.8-.5 1.7-.8 2.7-.8 1.2 0 2.3.3 3.2.9 0 0-.1 0-.1-.1-.4-.2-.7-.7-.7-1.1v-.1c0-.5.3-.9.7-1.1 1.7-1 2.8-2.8 2.8-5 0-3.3-2.7-5.9-6-5.7-3 .1-5.4 2.6-5.5 5.5 0 2.3 1.2 4.2 2.9 5.2z" fill="#123447"/></svg>