<?xml version="1.0" encoding="UTF-8"?>
<svg width="198px" height="198px" viewBox="0 0 198 198" version="1.1" xmlns="http://www.w3.org/2000/svg" xmlns:xlink="http://www.w3.org/1999/xlink">
    <!-- Generator: Sketch 52.5 (67469) - http://www.bohemiancoding.com/sketch -->
    <title>Wallet</title>
    <desc>Created with Sketch.</desc>
    <defs>
        <polygon id="path-1" points="0 0 197.9999 0 197.9999 197.9999 0 197.9999"></polygon>
        <polygon id="path-3" points="0 198 198 198 198 0 0 0"></polygon>
    </defs>
    <g id="Wallet" stroke="none" stroke-width="1" fill="none" fill-rule="evenodd">
        <g id="Group-23">
            <g id="Group-3">
                <mask id="mask-2" fill="white">
                    <use xlink:href="#path-1"></use>
                </mask>
                <g id="Clip-2"></g>
                <path d="M197.9999,98.9999 C197.9999,153.6769 153.6759,197.9999 98.9999,197.9999 C44.3239,197.9999 -0.0001,153.6769 -0.0001,98.9999 C-0.0001,44.3239 44.3239,-0.0001 98.9999,-0.0001 C153.6759,-0.0001 197.9999,44.3239 197.9999,98.9999" id="Fill-1" fill="#FFFFFF" mask="url(#mask-2)"></path>
            </g>
            <polygon id="Fill-4" fill="#05AAD1" points="133.8104 128.8788 56.2494 154.3458 56.2494 95.1348 131.3274 84.7328"></polygon>
            <mask id="mask-4" fill="white">
                <use xlink:href="#path-3"></use>
            </mask>
            <g id="Clip-7"></g>
            <polygon id="Fill-6" fill="#BCCFD1" mask="url(#mask-4)" points="61.762 160.835 143.662 160.835 143.662 101.691 61.762 101.691"></polygon>
            <polygon id="Fill-8" fill="#E4EFF1" mask="url(#mask-4)" points="57.035 154.826 138.935 154.826 138.935 95.683 57.035 95.683"></polygon>
            <path d="M150.2816,138.743 L124.9716,138.743 C119.8986,138.743 115.7866,134.631 115.7866,129.557 C115.7866,124.484 119.8986,120.371 124.9716,120.371 L150.2816,120.371 L150.2816,138.743 Z" id="Fill-9" fill="#BCCFD1" mask="url(#mask-4)"></path>
            <path d="M95.392,90.3427 C95.392,93.7767 92.608,96.5597 89.175,96.5597 C85.741,96.5597 82.957,93.7767 82.957,90.3427 C82.957,86.9077 85.741,84.1247 89.175,84.1247 C92.608,84.1247 95.392,86.9077 95.392,90.3427" id="Fill-10" fill="#05AAD1" mask="url(#mask-4)"></path>
            <path d="M104.4354,65.6278 C104.4354,69.0618 101.6514,71.8458 98.2184,71.8458 C94.7844,71.8458 92.0004,69.0618 92.0004,65.6278 C92.0004,62.1938 94.7844,59.4108 98.2184,59.4108 C101.6514,59.4108 104.4354,62.1938 104.4354,65.6278" id="Fill-11" fill="#BBCED0" mask="url(#mask-4)"></path>
            <path d="M65.6136,54.2948 C65.6136,57.7288 62.8296,60.5128 59.3956,60.5128 C55.9626,60.5128 53.1786,57.7288 53.1786,54.2948 C53.1786,50.8608 55.9626,48.0778 59.3956,48.0778 C62.8296,48.0778 65.6136,50.8608 65.6136,54.2948" id="Fill-12" fill="#BBCED0" mask="url(#mask-4)"></path>
            <path d="M121.6888,85.1581 C121.6888,88.5921 118.9048,91.3761 115.4718,91.3761 C112.0378,91.3761 109.2538,88.5921 109.2538,85.1581 C109.2538,81.7241 112.0378,78.9401 115.4718,78.9401 C118.9048,78.9401 121.6888,81.7241 121.6888,85.1581" id="Fill-13" fill="#E4EFF1" mask="url(#mask-4)"></path>
            <path d="M121.6888,85.1581 C121.6888,88.5921 118.9048,91.3761 115.4718,91.3761 C112.0378,91.3761 109.2538,88.5921 109.2538,85.1581 C109.2538,81.7241 112.0378,78.9401 115.4718,78.9401 C118.9048,78.9401 121.6888,81.7241 121.6888,85.1581 Z" id="Stroke-14" stroke="#00A1C6" stroke-width="2" mask="url(#mask-4)"></path>
            <path d="M114.8729,31.9774 C114.8729,35.4114 112.0889,38.1954 108.6559,38.1954 C105.2219,38.1954 102.4379,35.4114 102.4379,31.9774 C102.4379,28.5434 105.2219,25.7604 108.6559,25.7604 C112.0889,25.7604 114.8729,28.5434 114.8729,31.9774" id="Fill-15" fill="#E4EFF1" mask="url(#mask-4)"></path>
            <path d="M76.5189,78.243 C76.5189,81.677 73.7349,84.461 70.3019,84.461 C66.8679,84.461 64.0839,81.677 64.0839,78.243 C64.0839,74.809 66.8679,72.025 70.3019,72.025 C73.7349,72.025 76.5189,74.809 76.5189,78.243" id="Fill-16" fill="#E4EFF1" mask="url(#mask-4)"></path>
            <path d="M146.5467,57.8573 C146.5467,61.2913 143.7627,64.0753 140.3297,64.0753 C136.8957,64.0753 134.1117,61.2913 134.1117,57.8573 C134.1117,54.4233 136.8957,51.6393 140.3297,51.6393 C143.7627,51.6393 146.5467,54.4233 146.5467,57.8573" id="Fill-17" fill="#05AAD1" mask="url(#mask-4)"></path>
            <path d="M62.8133,52.1971 C62.8133,55.6311 60.0293,58.4151 56.5953,58.4151 C53.1623,58.4151 50.3783,55.6311 50.3783,52.1971 C50.3783,48.7631 53.1623,45.9801 56.5953,45.9801 C60.0293,45.9801 62.8133,48.7631 62.8133,52.1971 Z" id="Stroke-18" stroke="#05AAD1" stroke-width="2" mask="url(#mask-4)"></path>
            <path d="M117.4906,29.4882 C117.4906,32.9222 114.7066,35.7062 111.2736,35.7062 C107.8396,35.7062 105.0556,32.9222 105.0556,29.4882 C105.0556,26.0542 107.8396,23.2712 111.2736,23.2712 C114.7066,23.2712 117.4906,26.0542 117.4906,29.4882 Z" id="Stroke-19" stroke="#05AAD1" stroke-width="2" mask="url(#mask-4)"></path>
            <path d="M126.9418,126.1864 C126.9418,128.9984 124.6618,131.2784 121.8498,131.2784 C119.0378,131.2784 116.7578,128.9984 116.7578,126.1864 C116.7578,123.3734 119.0378,121.0944 121.8498,121.0944 C124.6618,121.0944 126.9418,123.3734 126.9418,126.1864" id="Fill-20" fill="#05AAD1" mask="url(#mask-4)"></path>
            <path d="M147.1151,135.7167 L121.0171,135.7167 C115.7541,135.7167 111.4871,131.4487 111.4871,126.1867 C111.4871,120.9227 115.7541,116.6557 121.0171,116.6557 L147.1151,116.6557 L147.1151,135.7167 Z" id="Stroke-21" stroke="#05AAD1" stroke-width="2" mask="url(#mask-4)"></path>
            <polyline id="Stroke-22" stroke="#05AAD1" stroke-width="2" mask="url(#mask-4)" points="138.9349 135.8475 138.9349 155.0125 57.0349 155.0125 57.0349 95.8685 138.9349 95.8685 138.9349 117.3145"></polyline>
        </g>
    </g>
</svg>