<?xml version="1.0" encoding="UTF-8"?>
<svg width="175px" height="199px" viewBox="0 0 175 199" version="1.1" xmlns="http://www.w3.org/2000/svg" xmlns:xlink="http://www.w3.org/1999/xlink">
    <!-- Generator: Sketch 52.5 (67469) - http://www.bohemiancoding.com/sketch -->
    <title>Logo2</title>
    <desc>Created with Sketch.</desc>
    <defs>
        <polygon id="path-1" points="0 0.337589744 16.6524 0.337589744 16.6524 20 0 20"></polygon>
        <polygon id="path-3" points="0.00594146341 0.337538462 20.7995268 0.337538462 20.7995268 20 0.00594146341 20"></polygon>
        <polygon id="path-5" points="0.2293 0.337589744 18.9493 0.337589744 18.9493 20 0.2293 20"></polygon>
        <polygon id="path-7" points="0.3058 0.337589744 16.9583 0.337589744 16.9583 20 0.3058 20"></polygon>
        <polygon id="path-9" points="0 199 175 199 175 0 0 0"></polygon>
    </defs>
    <g id="Logo2" stroke="none" stroke-width="1" fill="none" fill-rule="evenodd">
        <g id="Group-25-Copy-2">
            <g id="Group-3" transform="translate(0.000000, 179.000000)">
                <mask id="mask-2" fill="white">
                    <use xlink:href="#path-1"></use>
                </mask>
                <g id="Clip-2"></g>
                <path d="M12.9309,6.85297436 C12.3674,6.04323077 11.3144,5.42682051 10.1494,5.42682051 C7.3299,5.42682051 5.6384,7.35451282 5.6384,10.1688718 C5.6384,12.9832308 7.3299,14.9109231 10.1494,14.9109231 C11.3894,14.9109231 12.2919,14.2555385 12.9309,13.4842564 L16.6524,17.494 C14.8854,19.3442564 12.2919,20.0001538 10.1494,20.0001538 C4.5109,20.0001538 -0.0001,16.1442564 -0.0001,10.1688718 C-0.0001,4.19297436 4.5109,0.337589744 10.1494,0.337589744 C12.2919,0.337589744 14.8854,0.992974359 16.6524,2.84374359 L12.9309,6.85297436 Z" id="Fill-1" fill="#123447" mask="url(#mask-2)"></path>
            </g>
            <g id="Group-6" transform="translate(18.000000, 179.000000)">
                <mask id="mask-4" fill="white">
                    <use xlink:href="#path-3"></use>
                </mask>
                <g id="Clip-5"></g>
                <path d="M10.402478,14.9108718 C13.2907463,14.9108718 15.0235024,12.9831795 15.0235024,10.1688205 C15.0235024,7.35446154 13.2907463,5.42676923 10.402478,5.42676923 C7.51472195,5.42676923 5.78196585,7.35446154 5.78196585,10.1688205 C5.78196585,12.9831795 7.51472195,14.9108718 10.402478,14.9108718 M10.402478,0.337538462 C16.1785024,0.337538462 20.7995268,4.19292308 20.7995268,10.1688205 C20.7995268,16.1442051 16.1785024,20.0001026 10.402478,20.0001026 C4.62645366,20.0001026 0.00594146341,16.1442051 0.00594146341,10.1688205 C0.00594146341,4.19292308 4.62645366,0.337538462 10.402478,0.337538462" id="Fill-4" fill="#123447" mask="url(#mask-4)"></path>
            </g>
            <path d="M51.2272384,184.726523 C48.3865068,184.726523 46.681967,186.614552 46.681967,189.371003 C46.681967,192.127455 48.3865068,194.015484 51.2272384,194.015484 C54.0684738,194.015484 55.7730136,192.127455 55.7730136,189.371003 C55.7730136,186.614552 54.0684738,184.726523 51.2272384,184.726523 Z M61,198.546953 L55.7730136,198.546953 L55.7730136,196.130036 L55.6974354,196.130036 C54.826271,197.451505 52.6289616,199 50.0527536,199 C44.5985287,199 41,195.07276 41,189.522186 C41,184.424157 44.1818411,179.742007 49.4093314,179.742007 C51.7577971,179.742007 53.9546027,180.383907 55.2424548,182.158925 L55.3185368,182.158925 L55.3185368,170 L61,170 L61,198.546953 Z" id="Fill-7" fill="#123447"></path>
            <g id="Group-11" transform="translate(65.000000, 179.000000)">
                <mask id="mask-6" fill="white">
                    <use xlink:href="#path-5"></use>
                </mask>
                <g id="Clip-10"></g>
                <path d="M13.3108,8.04835897 C13.3483,6.12015385 11.8823,4.50117949 9.8523,4.50117949 C7.3718,4.50117949 6.0183,6.23605128 5.8678,8.04835897 L13.3108,8.04835897 Z M18.0848,16.2986154 C16.2803,18.6504103 13.3108,20.0001538 10.3788,20.0001538 C4.7403,20.0001538 0.2293,16.1442564 0.2293,10.1688718 C0.2293,4.19246154 4.7403,0.337589744 10.3788,0.337589744 C15.6413,0.337589744 18.9493,4.19246154 18.9493,10.1688718 L18.9493,11.9806667 L5.8678,11.9806667 C6.3193,14.1781026 7.9353,15.6047692 10.1158,15.6047692 C11.9573,15.6047692 13.1978,14.6406667 14.1378,13.3304103 L18.0848,16.2986154 Z" id="Fill-9" fill="#123447" mask="url(#mask-6)"></path>
            </g>
            <g id="Group-14" transform="translate(86.000000, 179.000000)">
                <mask id="mask-8" fill="white">
                    <use xlink:href="#path-7"></use>
                </mask>
                <g id="Clip-13"></g>
                <path d="M13.2368,6.85297436 C12.6733,6.04323077 11.6203,5.42682051 10.4553,5.42682051 C7.6358,5.42682051 5.9443,7.35451282 5.9443,10.1688718 C5.9443,12.9832308 7.6358,14.9109231 10.4553,14.9109231 C11.6953,14.9109231 12.5978,14.2555385 13.2368,13.4842564 L16.9583,17.494 C15.1913,19.3442564 12.5978,20.0001538 10.4553,20.0001538 C4.8168,20.0001538 0.3058,16.1442564 0.3058,10.1688718 C0.3058,4.19297436 4.8168,0.337589744 10.4553,0.337589744 C12.5978,0.337589744 15.1913,0.992974359 16.9583,2.84374359 L13.2368,6.85297436 Z" id="Fill-12" fill="#123447" mask="url(#mask-8)"></path>
            </g>
            <path d="M110.76927,170 L110.76927,182.889172 L110.84601,182.889172 C111.38472,181.430906 113.269441,179.896615 116.07708,179.896615 C121.92309,179.896615 123,183.732599 123,188.719685 L123,199 L117.23073,199 L117.23073,189.870276 C117.23073,187.722166 117.19236,184.960236 114.23073,184.960236 C111.23073,184.960236 110.76927,187.300197 110.76927,189.717204 L110.76927,199 L105,199 L105,170 L110.76927,170 Z" id="Fill-15" fill="#123447"></path>
            <path d="M137.254742,190.617443 C135.481914,190.617443 131.550726,190.766601 131.550726,193.225471 C131.550726,194.566898 133.014925,195.199703 134.28687,195.199703 C136.561094,195.199703 138.681003,194.045094 138.681003,191.809713 L138.681003,190.617443 L137.254742,190.617443 Z M138.681003,196.280476 L138.603589,196.280476 C137.331643,198.217542 135.019482,199 132.668357,199 C129.160638,199 126,197.062934 126,193.411794 C126,187.153122 133.862888,187.04113 138.681003,187.04113 C138.681003,185.066898 136.985075,183.799802 134.980518,183.799802 C133.091826,183.799802 131.511763,184.619425 130.278781,185.960852 L127.195044,182.905847 C129.314953,180.968285 132.398177,180 135.442951,180 C142.188208,180 144,183.315659 144,189.350842 L144,198.553023 L138.681003,198.553023 L138.681003,196.280476 Z" id="Fill-17" fill="#123447"></path>
            <mask id="mask-10" fill="white">
                <use xlink:href="#path-9"></use>
            </mask>
            <g id="Clip-20"></g>
            <path d="M147.48215,198 L153.51678,198 L153.51678,179.925963 L147.48215,179.925963 L147.48215,198 Z M150.499732,171 C152.430472,171 154,172.450395 154,174.235686 C154,176.020483 152.430472,177.471373 150.499732,177.471373 C148.568458,177.471373 147,176.020483 147,174.235686 C147,172.450395 148.568458,171 150.499732,171 Z" id="Fill-19" fill="#123447" mask="url(#mask-10)"></path>
            <path d="M157,180.457758 L162.538383,180.457758 L162.538383,182.975934 L162.615632,182.975934 C163.384539,181.525522 165.269206,180 168.076766,180 C173.923121,180 175,183.814819 175,188.775047 L175,199 L169.230382,199 L169.230382,189.91995 C169.230382,187.783408 169.192014,185.035845 166.230468,185.035845 C163.230553,185.035845 162.769106,187.363204 162.769106,189.767195 L162.769106,199 L157,199 L157,180.457758 Z" id="Fill-21" fill="#123447" mask="url(#mask-10)"></path>
            <path d="M122.49975,67 C105.130757,67 91,52.8694675 91,35.4992495 C91,18.1305325 105.130757,4 122.49975,4 C139.868743,4 154,18.1305325 154,35.4992495 C154,39.7636263 150.541612,43.2214589 146.277168,43.2214589 C142.012723,43.2214589 138.554835,39.7636263 138.554835,35.4992495 C138.554835,26.6467776 131.352362,19.4444189 122.49975,19.4444189 C113.647137,19.4444189 106.444664,26.6467776 106.444664,35.4992495 C106.444664,44.3532224 113.647137,51.5555811 122.49975,51.5555811 C126.764194,51.5555811 130.222582,55.0129135 130.222582,59.2777906 C130.222582,63.5421673 126.764194,67 122.49975,67" id="Fill-22" fill="#F76061" mask="url(#mask-10)"></path>
            <path d="M89.3891662,110.357924 L83.032705,110.357924 C80.4884099,110.357924 78.4256039,108.304298 78.4256039,105.771325 C78.4256039,103.238352 80.4884099,101.185227 83.032705,101.185227 L89.3891662,101.185227 C91.9339644,101.185227 93.9962673,103.238352 93.9962673,105.771325 C93.9962673,108.304298 91.9339644,110.357924 89.3891662,110.357924 M155.961953,103.888 C155.147899,86.5899548 140.945732,72.6288023 123.561811,72.0212294 C110.747258,71.5729378 99.466225,78.2632515 93.4091222,88.4071636 C91.9953454,90.7748444 89.4787221,92.271988 86.7120465,92.271988 L86.2879135,92.271988 C83.5212378,92.271988 81.0046145,90.7748444 79.5908377,88.4071636 C73.533735,78.2632515 62.2527018,71.5729378 49.4381485,72.0212294 C32.0542284,72.6288023 17.8520607,86.5899548 17.0380071,103.888 C16.1323849,123.122464 31.5284644,139 50.6496697,139 C62.9736777,139 73.7470593,132.402851 79.608447,122.563477 C81.0081364,120.213828 83.5036285,118.728204 86.2476636,118.728204 L86.7522964,118.728204 C89.4963315,118.728204 91.9918236,120.213828 93.3915129,122.563477 C99.2529007,132.402851 110.026282,139 122.35029,139 C141.471496,139 156.868078,123.122464 155.961953,103.888" id="Fill-23" fill="#1C627A" mask="url(#mask-10)"></path>
            <path d="M33.4071299,62.8197258 C35.7748123,64.2386621 37.2719569,66.7644698 37.2719569,69.5412424 L37.2719569,69.9669233 C37.2719569,72.7436959 35.7748123,75.2695036 33.4071299,76.68844 C33.3830874,76.7030838 33.359045,76.7172226 33.3345016,76.7318665 L33.3986149,76.725807 C38.0914045,73.8944987 43.5154859,72.1882404 49.2936928,71.9837318 C56.1988906,71.7393314 62.6477822,73.616771 68.0758707,77 C67.9035664,76.8924436 67.7382744,76.775293 67.5634656,76.6707664 C65.213815,75.2659689 63.7281907,72.7613695 63.7281907,70.0073201 L63.7281907,69.5003407 C63.7281907,66.7467963 65.213815,64.2421969 67.5634656,62.8373994 C77.4028464,56.9546206 84,46.1419216 84,33.7729374 C84,14.5819495 68.122453,-0.870317824 48.8879761,0.0381044141 C31.5899199,0.855633932 17.6287581,15.1096322 17.0211848,32.5569947 C16.5733938,45.4183146 23.2632111,56.7405177 33.4071299,62.8197258" id="Fill-24" fill="#123447" mask="url(#mask-10)"></path>
        </g>
    </g>
</svg>