<?xml version="1.0" encoding="UTF-8"?>
<svg width="116px" height="116px" viewBox="0 0 116 116" version="1.1" xmlns="http://www.w3.org/2000/svg" xmlns:xlink="http://www.w3.org/1999/xlink">
    <!-- Generator: Sketch 52.5 (67469) - http://www.bohemiancoding.com/sketch -->
    <title>Guaranteed privacy protection</title>
    <desc>Created with Sketch.</desc>
    <defs>
        <polygon id="path-1" points="0 0.39344938 76.309 0.39344938 76.309 78.9997 0 78.9997"></polygon>
    </defs>
    <g id="Guaranteed-privacy-protection" stroke="none" stroke-width="1" fill="none" fill-rule="evenodd">
        <g id="Group-8">
            <g id="Group-6" transform="translate(20.000000, 18.000000)">
                <g id="Group-3" transform="translate(0.000000, 0.606900)">
                    <mask id="mask-2" fill="white">
                        <use xlink:href="#path-1"></use>
                    </mask>
                    <g id="Clip-2"></g>
                    <path d="M7.1803,21.4537 C8.0073,30.9587 12.6173,59.5767 38.1543,71.6557 C63.7683,59.5477 68.3263,30.9547 69.1353,21.4547 C54.0743,19.4047 42.8253,11.9807 38.1543,8.4087 C33.4843,11.9797 22.2373,19.4027 7.1803,21.4537 M38.1543,78.9997 C37.6773,78.9997 37.2013,78.9027 36.7543,78.7077 C21.6683,72.1277 10.5253,59.5717 4.5273,42.3987 C0.0513,29.5827 -0.0007,18.7807 -0.0007,18.3277 C-0.0007,16.4987 1.4083,14.9787 3.2313,14.8377 C22.2423,13.3727 35.6693,1.4187 35.8023,1.2977 C37.1393,0.0917 39.1783,0.0907 40.5093,1.3027 C40.6393,1.4187 54.0673,13.3727 73.0773,14.8377 C74.9013,14.9787 76.3093,16.4987 76.3093,18.3277 C76.3093,18.7807 76.2573,29.5827 71.7823,42.3987 C65.7843,59.5717 54.6393,72.1277 39.5533,78.7077 C39.1083,78.9027 38.6303,78.9997 38.1543,78.9997" id="Fill-1" fill="#C2D1D3" mask="url(#mask-2)"></path>
                </g>
                <path d="M45.611,39.0391 L38.561,45.4331 C38.031,45.9141 37.357,46.1591 36.678,46.1591 C36.144,46.1591 35.609,46.0081 35.139,45.6981 L31.041,43.0031 C29.747,42.1521 29.388,40.4161 30.239,39.1221 C31.09,37.8291 32.827,37.4711 34.12,38.3201 L36.405,39.8221 L41.845,34.8881 C42.993,33.8471 44.764,33.9351 45.803,35.0801 C46.843,36.2271 46.757,38.0001 45.611,39.0391 M38.154,24.9841 C29.773,24.9841 22.978,31.7791 22.978,40.1601 C22.978,48.5421 29.773,55.3361 38.154,55.3361 C46.536,55.3361 53.33,48.5421 53.33,40.1601 C53.33,31.7791 46.536,24.9841 38.154,24.9841" id="Fill-4" fill="#05AAD1"></path>
            </g>
            <rect id="Rectangle-Copy-9" x="0" y="0" width="116" height="116"></rect>
        </g>
    </g>
</svg>