<?xml version="1.0" encoding="UTF-8"?>
<svg width="116px" height="116px" viewBox="0 0 116 116" version="1.1" xmlns="http://www.w3.org/2000/svg" xmlns:xlink="http://www.w3.org/1999/xlink">
    <!-- Generator: Sketch 52.5 (67469) - http://www.bohemiancoding.com/sketch -->
    <title>Increased liquidity</title>
    <desc>Created with Sketch.</desc>
    <defs>
        <polygon id="path-1" points="0 0.64390607 74.3438415 0.64390607 74.3438415 35.0376 0 35.0376"></polygon>
        <polygon id="path-3" points="0 72.4379 74.344 72.4379 74.344 -0.0001 0 -0.0001"></polygon>
    </defs>
    <g id="Increased-liquidity" stroke="none" stroke-width="1" fill="none" fill-rule="evenodd">
        <g id="Group-4">
            <g id="Group-10" transform="translate(21.000000, 21.000000)">
                <g id="Group-3" transform="translate(0.000000, 18.437900)">
                    <mask id="mask-2" fill="white">
                        <use xlink:href="#path-1"></use>
                    </mask>
                    <g id="Clip-2"></g>
                    <path d="M3.5042,35.0376 C2.2792,35.0376 1.0922,34.3936 0.4492,33.2516 C-0.4978,31.5656 0.1012,29.4336 1.7862,28.4846 L26.8232,14.4156 C27.9042,13.8086 29.2272,13.8176 30.2982,14.4416 L40.4892,20.3736 L68.8882,1.2416 C70.4922,0.1616 72.6662,0.5856 73.7462,2.1876 C74.8262,3.7916 74.4022,5.9666 72.7992,7.0466 L42.5812,27.4046 C41.4672,28.1546 40.0242,28.2016 38.8652,27.5266 L28.5072,21.4986 L5.2152,34.5886 C4.6732,34.8926 4.0842,35.0376 3.5042,35.0376" id="Fill-1" fill="#C2D1D3" mask="url(#mask-2)"></path>
                </g>
                <mask id="mask-4" fill="white">
                    <use xlink:href="#path-3"></use>
                </mask>
                <g id="Clip-5"></g>
                <polygon id="Fill-4" fill="#C2D1D3" mask="url(#mask-4)" points="0.891 72.4379 13.922 72.4379 13.922 58.8909 0.891 58.8909"></polygon>
                <polygon id="Fill-6" fill="#C2D1D3" mask="url(#mask-4)" points="19.81 72.4379 32.841 72.4379 32.841 54.5619 19.81 54.5619"></polygon>
                <polygon id="Fill-7" fill="#C2D1D3" mask="url(#mask-4)" points="38.728 72.4379 51.76 72.4379 51.76 54.5619 38.728 54.5619"></polygon>
                <polygon id="Fill-8" fill="#C2D1D3" mask="url(#mask-4)" points="57.647 72.4379 70.678 72.4379 70.678 49.6729 57.647 49.6729"></polygon>
                <path d="M34.3948,17.5927 C34.7858,18.2697 35.3138,18.7867 36.0078,19.1737 C36.7208,19.5687 37.5048,19.7607 38.4048,19.7607 C39.7168,19.7607 40.7908,19.3037 41.6868,18.3627 C41.9448,18.0917 42.2988,17.9357 42.6728,17.9277 L42.7008,17.9277 C43.0638,17.9277 43.4148,18.0697 43.6758,18.3227 L45.0908,19.6977 C45.6288,20.2207 45.6608,21.0727 45.1628,21.6327 C44.3248,22.5757 43.2958,23.2997 42.1078,23.7847 C40.9508,24.2597 39.6678,24.4997 38.2938,24.4997 C36.5358,24.4997 34.9178,24.1007 33.4888,23.3137 C32.0418,22.5187 30.8918,21.4057 30.0688,20.0067 C29.2458,18.6117 28.8278,17.0257 28.8278,15.2947 C28.8278,13.5637 29.2458,11.9787 30.0688,10.5827 C30.8928,9.1827 32.0478,8.0697 33.5028,7.2737 C34.9428,6.4877 36.5628,6.0887 38.3178,6.0887 C39.6828,6.0887 40.9588,6.3247 42.1118,6.7897 C43.2958,7.2687 44.3238,7.9897 45.1628,8.9347 C45.6608,9.4937 45.6288,10.3467 45.0918,10.8687 L43.6758,12.2437 C43.4148,12.4977 43.0638,12.6397 42.7008,12.6397 L42.6728,12.6397 C42.2998,12.6327 41.9448,12.4767 41.6868,12.2057 C40.8048,11.2807 39.7308,10.8297 38.4048,10.8297 C37.5018,10.8297 36.7188,11.0217 36.0098,11.4167 C35.3138,11.8037 34.7858,12.3217 34.3938,12.9977 C33.9998,13.6797 33.8088,14.4307 33.8088,15.2947 C33.8088,16.1577 33.9998,16.9097 34.3948,17.5927 M37.1718,-0.0003 C29.0048,-0.0003 22.3848,6.6197 22.3848,14.7867 C22.3848,22.9537 29.0048,29.5737 37.1718,29.5737 C45.3388,29.5737 51.9588,22.9537 51.9588,14.7867 C51.9588,6.6197 45.3388,-0.0003 37.1718,-0.0003" id="Fill-9" fill="#05AAD1" mask="url(#mask-4)"></path>
            </g>
            <rect id="Rectangle-Copy-7" x="0" y="0" width="116" height="116"></rect>
        </g>
    </g>
</svg>