<?xml version="1.0" encoding="UTF-8"?>
<svg width="116px" height="116px" viewBox="0 0 116 116" version="1.1" xmlns="http://www.w3.org/2000/svg" xmlns:xlink="http://www.w3.org/1999/xlink">
    <!-- Generator: Sketch 52.5 (67469) - http://www.bohemiancoding.com/sketch -->
    <title>Legal compliance</title>
    <desc>Created with Sketch.</desc>
    <defs>
        <polygon id="path-1" points="0 0.1809 65.7959 0.1809 65.7959 75.1219 0 75.1219"></polygon>
    </defs>
    <g id="Legal-compliance" stroke="none" stroke-width="1" fill="none" fill-rule="evenodd">
        <g id="Group">
            <g id="Group-10" transform="translate(19.000000, 19.000000)">
                <path d="M69.3229,62.5225 L62.2729,68.9165 C61.7429,69.3975 61.0689,69.6425 60.3899,69.6425 C59.8559,69.6425 59.3209,69.4915 58.8509,69.1815 L54.7529,66.4875 C53.4589,65.6365 53.0999,63.8995 53.9509,62.6055 C54.8019,61.3125 56.5389,60.9545 57.8319,61.8035 L60.1169,63.3065 L65.5569,58.3715 C66.7049,57.3305 68.4759,57.4185 69.5149,58.5645 C70.5549,59.7105 70.4689,61.4835 69.3229,62.5225 M61.8659,48.4675 C53.4849,48.4675 46.6899,55.2625 46.6899,63.6435 C46.6899,72.0255 53.4849,78.8195 61.8659,78.8195 C70.2479,78.8195 77.0419,72.0255 77.0419,63.6435 C77.0419,55.2625 70.2479,48.4675 61.8659,48.4675" id="Fill-1" fill="#05AAD1"></path>
                <path d="M16.5533,20.8027 L32.2723,20.8027 C34.2053,20.8027 35.7723,19.2367 35.7723,17.3027 C35.7723,15.3697 34.2053,13.8027 32.2723,13.8027 L16.5533,13.8027 C14.6193,13.8027 13.0533,15.3697 13.0533,17.3027 C13.0533,19.2367 14.6193,20.8027 16.5533,20.8027" id="Fill-3" fill="#C2D1D3"></path>
                <path d="M49.2428,28.6357 L16.5538,28.6357 C14.6198,28.6357 13.0538,30.2017 13.0538,32.1357 C13.0538,34.0697 14.6198,35.6357 16.5538,35.6357 L49.2428,35.6357 C51.1758,35.6357 52.7428,34.0697 52.7428,32.1357 C52.7428,30.2017 51.1758,28.6357 49.2428,28.6357" id="Fill-5" fill="#C2D1D3"></path>
                <g id="Group-9" transform="translate(0.000000, 0.819500)">
                    <mask id="mask-2" fill="white">
                        <use xlink:href="#path-1"></use>
                    </mask>
                    <g id="Clip-8"></g>
                    <path d="M9.5279,68.1219 C8.1319,68.1219 6.9999,66.9889 6.9999,65.5939 L6.9999,9.7089 C6.9999,8.3119 8.1319,7.1809 9.5279,7.1809 L56.2669,7.1809 C57.6639,7.1809 58.7959,8.3119 58.7959,9.7089 L58.7959,42.9269 C60.2619,42.6399 61.7769,42.4849 63.3279,42.4849 C64.1619,42.4849 64.9849,42.5299 65.7959,42.6149 L65.7959,5.0619 C65.7959,2.3659 63.6099,0.1809 60.9149,0.1809 L4.8819,0.1809 C2.1849,0.1809 -0.0001,2.3659 -0.0001,5.0619 L-0.0001,70.2399 C-0.0001,72.9359 2.1849,75.1219 4.8819,75.1219 L44.7069,75.1219 C43.5489,72.9679 42.7219,70.6109 42.2819,68.1219 L9.5279,68.1219 Z" id="Fill-7" fill="#C2D1D3" mask="url(#mask-2)"></path>
                </g>
            </g>
            <rect id="Rectangle" x="0" y="0" width="116" height="116"></rect>
        </g>
    </g>
</svg>