<?xml version="1.0" encoding="UTF-8"?>
<svg width="116px" height="116px" viewBox="0 0 116 116" version="1.1" xmlns="http://www.w3.org/2000/svg" xmlns:xlink="http://www.w3.org/1999/xlink">
    <!-- Generator: Sketch 52.5 (67469) - http://www.bohemiancoding.com/sketch -->
    <title>Guaranteed privacy protection Copy</title>
    <desc>Created with Sketch.</desc>
    <defs>
        <polygon id="path-1" points="0 0.853 76.316 0.853 76.316 77.1688 0 77.1688"></polygon>
    </defs>
    <g id="Guaranteed-privacy-protection-Copy" stroke="none" stroke-width="1" fill="none" fill-rule="evenodd">
        <g id="Group">
            <rect id="Rectangle-Copy-9" x="0" y="0" width="116" height="116"></rect>
            <g id="Group-8" transform="translate(16.000000, 19.000000)">
                <path d="M52.8328,50.7995 C53.7478,49.7715 53.6898,48.2045 52.7028,47.2465 L50.1028,44.7215 C49.6218,44.2545 48.9788,43.9935 48.3118,43.9935 C48.2948,43.9935 48.2768,43.9945 48.2618,43.9945 C47.5748,44.0085 46.9228,44.2955 46.4488,44.7925 C44.8038,46.5205 42.8318,47.3615 40.4218,47.3615 C38.7698,47.3615 37.3298,47.0075 36.0208,46.2815 C34.7458,45.5725 33.7748,44.6225 33.0568,43.3795 C32.3328,42.1255 31.9808,40.7445 31.9808,39.1575 C31.9808,37.5705 32.3328,36.1925 33.0568,34.9415 C33.7748,33.6965 34.7458,32.7465 36.0228,32.0355 C37.3268,31.3115 38.7648,30.9585 40.4218,30.9585 C42.8578,30.9585 44.8298,31.7855 46.4498,33.4855 C46.9238,33.9825 47.5758,34.2695 48.2618,34.2815 C48.2778,34.2825 48.2948,34.2825 48.3118,34.2825 C48.9788,34.2825 49.6218,34.0225 50.1038,33.5565 L52.7028,31.0295 C53.6898,30.0715 53.7478,28.5055 52.8328,27.4775 C51.2918,25.7435 49.4058,24.4185 47.2298,23.5395 C45.1138,22.6845 42.7698,22.2505 40.2628,22.2505 C37.0388,22.2505 34.0638,22.9835 31.4208,24.4265 C28.7478,25.8895 26.6268,27.9335 25.1118,30.5045 C23.6008,33.0675 22.8338,35.9795 22.8338,39.1575 C22.8338,42.3365 23.6008,45.2485 25.1128,47.8135 C26.6228,50.3815 28.7368,52.4255 31.3948,53.8865 C34.0198,55.3315 36.9888,56.0655 40.2198,56.0655 C42.7418,56.0655 45.0988,55.6235 47.2238,54.7515 C49.4058,53.8615 51.2938,52.5305 52.8328,50.7995" id="Fill-1" fill="#C2D1D3"></path>
                <path d="M76.286,66.4108 C76.368,66.4848 76.432,66.5718 76.505,66.6528 C77.499,67.7758 77.522,69.4828 76.491,70.6208 C75.386,71.8388 73.502,71.9328 72.281,70.8258 L68.355,67.2648 L64.43,70.8258 C63.209,71.9328 61.324,71.8388 60.22,70.6208 C59.188,69.4828 59.212,67.7758 60.206,66.6528 C60.278,66.5718 60.343,66.4848 60.425,66.4108 L63.882,63.2748 L60.425,60.1398 C60.343,60.0638 60.278,59.9778 60.206,59.8968 C59.212,58.7738 59.188,57.0658 60.22,55.9298 C61.324,54.7108 63.209,54.6168 64.43,55.7238 L68.355,59.2848 L72.281,55.7238 C73.502,54.6168 75.386,54.7108 76.491,55.9298 C77.522,57.0658 77.499,58.7738 76.505,59.8968 C76.432,59.9778 76.368,60.0638 76.286,60.1398 L72.828,63.2748 L76.286,66.4108 Z M68.355,48.4028 C60.141,48.4028 53.483,55.0608 53.483,63.2748 C53.483,71.4888 60.141,78.1468 68.355,78.1468 C76.569,78.1468 83.227,71.4888 83.227,63.2748 C83.227,55.0608 76.569,48.4028 68.355,48.4028 Z" id="Fill-3" fill="#05AAD1"></path>
                <g id="Group-7" transform="translate(0.000000, 0.147200)">
                    <mask id="mask-2" fill="white">
                        <use xlink:href="#path-1"></use>
                    </mask>
                    <g id="Clip-6"></g>
                    <path d="M38.158,70.0898 C21.021,70.0898 7.079,56.1488 7.079,39.0108 C7.079,21.8738 21.021,7.9318 38.158,7.9318 C55.295,7.9318 69.238,21.8738 69.238,39.0108 C69.238,40.6428 69.11,42.2438 68.866,43.8078 C71.315,43.8718 73.652,44.3868 75.793,45.2788 C76.132,43.2388 76.316,41.1468 76.316,39.0108 C76.316,17.9708 59.199,0.8528 38.158,0.8528 C17.118,0.8528 0,17.9708 0,39.0108 C0,60.0508 17.118,77.1688 38.158,77.1688 C43.267,77.1688 48.141,76.1518 52.598,74.3218 C51.235,72.4068 50.21,70.2358 49.615,67.8918 C46.067,69.3048 42.204,70.0898 38.158,70.0898" id="Fill-5" fill="#C2D1D3" mask="url(#mask-2)"></path>
                </g>
            </g>
        </g>
    </g>
</svg>