<?xml version="1.0" encoding="UTF-8"?>
<svg width="116px" height="116px" viewBox="0 0 116 116" version="1.1" xmlns="http://www.w3.org/2000/svg" xmlns:xlink="http://www.w3.org/1999/xlink">
    <!-- Generator: Sketch 52.5 (67469) - http://www.bohemiancoding.com/sketch -->
    <title>Programmable assets</title>
    <desc>Created with Sketch.</desc>
    <defs>
        <polygon id="path-1" points="0.0002 0.443 82.885 0.443 82.885 72.9999 0.0002 72.9999"></polygon>
    </defs>
    <g id="Programmable-assets" stroke="none" stroke-width="1" fill="none" fill-rule="evenodd">
        <g id="Group-2">
            <g id="Group-10" transform="translate(17.000000, 21.000000)">
                <path d="M32.5835,41.5799 C31.9445,41.5799 31.3065,41.3359 30.8185,40.8489 L22.4185,32.4489 C21.9375,31.9689 21.6735,31.3109 21.6875,30.6319 C21.7015,29.9519 21.9935,29.3079 22.4935,28.8479 L30.8945,21.1249 C31.9075,20.1919 33.4875,20.2589 34.4205,21.2729 C35.3535,22.2879 35.2865,23.8669 34.2715,24.7999 L27.7875,30.7599 L34.3475,37.3199 C35.3225,38.2939 35.3225,39.8739 34.3475,40.8489 C33.8605,41.3359 33.2215,41.5799 32.5835,41.5799" id="Fill-1" fill="#05AAD1"></path>
                <path d="M50.3022,41.5799 C49.6632,41.5799 49.0252,41.3359 48.5372,40.8489 C47.5632,39.8739 47.5632,38.2939 48.5372,37.3199 L55.0972,30.7599 L48.6142,24.7999 C47.5992,23.8659 47.5322,22.2879 48.4652,21.2729 C49.3982,20.2579 50.9772,20.1919 51.9912,21.1249 L60.3912,28.8479 C60.8912,29.3079 61.1832,29.9519 61.1972,30.6319 C61.2112,31.3109 60.9482,31.9689 60.4662,32.4489 L52.0672,40.8489 C51.5792,41.3359 50.9412,41.5799 50.3022,41.5799" id="Fill-3" fill="#05AAD1"></path>
                <path d="M39.145,43.2635 C38.946,43.2635 38.744,43.2405 38.541,43.1895 C37.204,42.8575 36.389,41.5035 36.721,40.1655 L41.973,19.0235 C42.306,17.6855 43.66,16.8695 44.997,17.2025 C46.334,17.5345 47.15,18.8885 46.817,20.2265 L41.565,41.3685 C41.283,42.5045 40.264,43.2635 39.145,43.2635" id="Fill-5" fill="#05AAD1"></path>
                <g id="Group-9" transform="translate(0.000000, 0.557300)">
                    <mask id="mask-2" fill="white">
                        <use xlink:href="#path-1"></use>
                    </mask>
                    <g id="Clip-8"></g>
                    <path d="M75.8852,49.7589 C75.8852,50.9049 74.9552,51.8349 73.8102,51.8349 L9.0752,51.8349 C7.9292,51.8349 7.0002,50.9049 7.0002,49.7589 L7.0002,9.5179 C7.0002,8.3719 7.9292,7.4429 9.0752,7.4429 L73.8102,7.4429 C74.9552,7.4429 75.8852,8.3719 75.8852,9.5179 L75.8852,49.7589 Z M82.6502,4.1139 C81.9892,1.9879 80.0042,0.4429 77.6592,0.4429 L5.2252,0.4429 C2.8802,0.4429 0.8972,1.9879 0.2352,4.1139 C0.0822,4.6049 0.0002,5.1269 0.0002,5.6679 L0.0002,53.6099 C0.0002,54.1509 0.0822,54.6729 0.2352,55.1629 C0.8972,57.2899 2.8802,58.8349 5.2252,58.8349 L28.0122,58.8349 L28.0122,65.3969 L24.2662,65.3969 C22.8422,65.3969 21.6872,66.5509 21.6872,67.9759 L21.6872,70.4209 C21.6872,71.8459 22.8422,72.9999 24.2662,72.9999 L58.6182,72.9999 C60.0432,72.9999 61.1972,71.8459 61.1972,70.4209 L61.1972,67.9759 C61.1972,66.5509 60.0432,65.3969 58.6182,65.3969 L54.8722,65.3969 L54.8722,58.8349 L77.6592,58.8349 C80.0042,58.8349 81.9892,57.2899 82.6502,55.1629 C82.8022,54.6729 82.8852,54.1509 82.8852,53.6099 L82.8852,5.6679 C82.8852,5.1269 82.8022,4.6049 82.6502,4.1139 Z" id="Fill-7" fill="#C2D1D3" mask="url(#mask-2)"></path>
                </g>
            </g>
            <rect id="Rectangle-Copy-6" x="0" y="0" width="116" height="116"></rect>
        </g>
    </g>
</svg>