<?xml version="1.0" encoding="UTF-8"?>
<svg width="116px" height="116px" viewBox="0 0 116 116" version="1.1" xmlns="http://www.w3.org/2000/svg" xmlns:xlink="http://www.w3.org/1999/xlink">
    <!-- Generator: Sketch 52.5 (67469) - http://www.bohemiancoding.com/sketch -->
    <title>Transparent and immutable transactions</title>
    <desc>Created with Sketch.</desc>
    <defs>
        <polygon id="path-1" points="0.3941 0.107 29.9681 0.107 29.9681 29.6804 0.3941 29.6804"></polygon>
        <polygon id="path-3" points="0 0.4258 29.5736 0.4258 29.5736 29.9998 0 29.9998"></polygon>
    </defs>
    <g id="Transparent-and-immutable-transactions" stroke="none" stroke-width="1" fill="none" fill-rule="evenodd">
        <g id="Group-7">
            <g id="Group-11" transform="translate(20.000000, 22.000000)">
                <g id="Group-3" transform="translate(47.000000, 0.893100)">
                    <mask id="mask-2" fill="white">
                        <use xlink:href="#path-1"></use>
                    </mask>
                    <g id="Clip-2"></g>
                    <path d="M12.4041,17.7004 C12.7951,18.3774 13.3231,18.8934 14.0171,19.2804 C14.7301,19.6764 15.5141,19.8674 16.4141,19.8674 C17.7261,19.8674 18.8001,19.4104 19.6961,18.4694 C19.9541,18.1984 20.3091,18.0424 20.6821,18.0354 C20.6911,18.0344 20.7011,18.0344 20.7101,18.0344 C21.0741,18.0344 21.4241,18.1764 21.6851,18.4304 L23.1011,19.8054 C23.6381,20.3274 23.6701,21.1794 23.1721,21.7404 C22.3341,22.6824 21.3051,23.4074 20.1181,23.8914 C18.9611,24.3664 17.6771,24.6074 16.3031,24.6074 C14.5451,24.6074 12.9281,24.2084 11.4991,23.4214 C10.0511,22.6254 8.9011,21.5134 8.0791,20.1144 C7.2551,18.7184 6.8381,17.1324 6.8381,15.4014 C6.8381,13.6704 7.2551,12.0854 8.0781,10.6894 C8.9031,9.2904 10.0571,8.1774 11.5121,7.3804 C12.9521,6.5944 14.5721,6.1954 16.3271,6.1954 C17.6921,6.1954 18.9691,6.4314 20.1221,6.8974 C21.3061,7.3764 22.3331,8.0964 23.1721,9.0414 C23.6701,9.6014 23.6381,10.4544 23.1011,10.9754 L21.6851,12.3504 C21.4241,12.6054 21.0741,12.7474 20.7101,12.7474 C20.7011,12.7474 20.6921,12.7474 20.6831,12.7464 C20.3091,12.7394 19.9541,12.5834 19.6961,12.3124 C18.8141,11.3874 17.7401,10.9364 16.4141,10.9364 C15.5121,10.9364 14.7291,11.1294 14.0191,11.5234 C13.3231,11.9104 12.7951,12.4284 12.4031,13.1054 C12.0091,13.7864 11.8181,14.5374 11.8181,15.4014 C11.8181,16.2654 12.0091,17.0174 12.4041,17.7004 M15.1811,0.1064 C7.0151,0.1064 0.3941,6.7274 0.3941,14.8934 C0.3941,23.0604 7.0151,29.6804 15.1811,29.6804 C23.3481,29.6804 29.9681,23.0604 29.9681,14.8934 C29.9681,6.7274 23.3481,0.1064 15.1811,0.1064" id="Fill-1" fill="#05AAD1" mask="url(#mask-2)"></path>
                </g>
                <g id="Group-6" transform="translate(0.000000, 40.893100)">
                    <mask id="mask-4" fill="white">
                        <use xlink:href="#path-3"></use>
                    </mask>
                    <g id="Clip-5"></g>
                    <path d="M12.0096,18.0188 C12.4006,18.6958 12.9286,19.2128 13.6226,19.5988 C14.3366,19.9948 15.1196,20.1868 16.0196,20.1868 C17.3316,20.1868 18.4056,19.7288 19.3016,18.7888 C19.5596,18.5178 19.9146,18.3618 20.2876,18.3538 L20.3156,18.3538 C20.6796,18.3538 21.0296,18.4958 21.2906,18.7488 L22.7066,20.1238 C23.2436,20.6468 23.2756,21.4988 22.7786,22.0588 C21.9396,23.0008 20.9106,23.7258 19.7236,24.2108 C18.5666,24.6858 17.2826,24.9258 15.9096,24.9258 C14.1516,24.9258 12.5336,24.5268 11.1046,23.7398 C9.6576,22.9448 8.5066,21.8318 7.6846,20.4328 C6.8606,19.0368 6.4436,17.4518 6.4436,15.7198 C6.4436,13.9898 6.8606,12.4038 7.6836,11.0078 C8.5086,9.6088 9.6636,8.4958 11.1186,7.6998 C12.5576,6.9138 14.1776,6.5148 15.9326,6.5148 C17.2986,6.5148 18.5746,6.7498 19.7276,7.2158 C20.9116,7.6948 21.9386,8.4158 22.7786,9.3608 C23.2756,9.9198 23.2436,10.7728 22.7066,11.2948 L21.2906,12.6698 C21.0296,12.9238 20.6796,13.0658 20.3156,13.0658 L20.2886,13.0658 C19.9146,13.0578 19.5596,12.9018 19.3026,12.6308 C18.4196,11.7058 17.3466,11.2558 16.0196,11.2558 C15.1176,11.2558 14.3346,11.4478 13.6246,11.8418 C12.9286,12.2298 12.4006,12.7468 12.0096,13.4238 C11.6146,14.1048 11.4236,14.8568 11.4236,15.7198 C11.4236,16.5838 11.6156,17.3358 12.0096,18.0188 M14.7866,0.4258 C6.6206,0.4258 -0.0004,7.0458 -0.0004,15.2128 C-0.0004,23.3788 6.6206,29.9998 14.7866,29.9998 C22.9536,29.9998 29.5736,23.3788 29.5736,15.2128 C29.5736,7.0458 22.9536,0.4258 14.7866,0.4258" id="Fill-4" fill="#05AAD1" mask="url(#mask-4)"></path>
                </g>
                <path d="M74.4598,50.4275 L66.1158,39.8445 C65.4518,39.0025 64.4388,38.5115 63.3668,38.5115 C62.2958,38.5115 61.2818,39.0025 60.6188,39.8445 L52.2738,50.4275 C51.0778,51.9455 51.3378,54.1465 52.8548,55.3435 C54.3728,56.5375 56.5728,56.2785 57.7718,54.7615 L59.8668,52.1035 L59.8668,60.5615 L39.3768,60.5615 C37.4438,60.5615 35.8768,62.1275 35.8768,64.0615 C35.8768,65.9935 37.4438,67.5615 39.3768,67.5615 L63.3668,67.5615 C65.3008,67.5615 66.8668,65.9935 66.8668,64.0615 L66.8668,52.1045 L68.9628,54.7615 C69.6528,55.6375 70.6788,56.0945 71.7138,56.0945 C72.4728,56.0945 73.2358,55.8495 73.8778,55.3435 C75.3958,54.1465 75.6558,51.9465 74.4598,50.4275" id="Fill-7" fill="#C2D1D3"></path>
                <path d="M24.1131,16.5505 C22.5941,15.3545 20.3951,15.6135 19.1971,17.1325 L17.1021,19.7895 L17.1021,11.3315 L37.5921,11.3315 C39.5251,11.3315 41.0921,9.7655 41.0921,7.8315 C41.0921,5.8995 39.5251,4.3315 37.5921,4.3315 L13.6021,4.3315 C11.6691,4.3315 10.1021,5.8995 10.1021,7.8315 L10.1021,19.7905 L8.0071,17.1325 C6.8081,15.6145 4.6081,15.3545 3.0911,16.5505 C1.5721,17.7475 1.3121,19.9485 2.5091,21.4665 L10.8531,32.0495 C11.5171,32.8915 12.5301,33.3825 13.6021,33.3825 C14.6751,33.3825 15.6871,32.8915 16.3511,32.0495 L24.6951,21.4665 C25.8911,19.9475 25.6311,17.7475 24.1131,16.5505" id="Fill-9" fill="#C2D1D3"></path>
            </g>
            <rect id="Rectangle-Copy-8" x="0" y="0" width="116" height="116"></rect>
        </g>
    </g>
</svg>