<?xml version="1.0" encoding="UTF-8"?>
<svg width="20px" height="20px" viewBox="0 0 20 20" version="1.1" xmlns="http://www.w3.org/2000/svg" xmlns:xlink="http://www.w3.org/1999/xlink">
    <!-- Generator: Sketch 52.5 (67469) - http://www.bohemiancoding.com/sketch -->
    <title>check</title>
    <desc>Created with Sketch.</desc>
    <g id="check" stroke="none" stroke-width="1" fill="none" fill-rule="evenodd">
        <g id="Group-4">
            <rect id="Rectangle" x="0" y="0" width="20" height="20"></rect>
            <path d="M8.64,14.5 L16.14,7 L14.96,5.78 L8.64,12.12 L5.68,9.14 L4.5,10.32 L8.64,14.5 Z M10.32,2 C11.8400076,2 13.2466602,2.3799962 14.54,3.14 C15.7933396,3.8600036 16.7799964,4.8466604 17.5,6.1 C18.2600038,7.3933398 18.64,8.7999924 18.64,10.32 C18.64,11.8400076 18.2600038,13.2466602 17.5,14.54 C16.7799964,15.7933396 15.7933396,16.7799964 14.54,17.5 C13.2466602,18.2600038 11.8400076,18.64 10.32,18.64 C8.7999924,18.64 7.3933398,18.2600038 6.1,17.5 C4.8466604,16.766663 3.8600036,15.7733396 3.14,14.52 C2.3799962,13.2266602 2,11.8266742 2,10.32 C2,8.8133258 2.3799962,7.4133398 3.14,6.12 C3.873337,4.8666604 4.8666604,3.873337 6.12,3.14 C7.4133398,2.3799962 8.8133258,2 10.32,2 Z" id="check_circle---material-copy" fill="#FFFFFF"></path>
        </g>
    </g>
</svg>