<?xml version="1.0" encoding="UTF-8"?>
<svg width="390px" height="394px" viewBox="0 0 390 394" version="1.1" xmlns="http://www.w3.org/2000/svg" xmlns:xlink="http://www.w3.org/1999/xlink">
    <!-- Generator: Sketch 52.5 (67469) - http://www.bohemiancoding.com/sketch -->
    <title>Contributing code</title>
    <desc>Created with Sketch.</desc>
    <defs>
        <polygon id="path-1" points="0 393 389.529 393 389.529 0.202 0 0.202"></polygon>
    </defs>
    <g id="Contributing-code" stroke="none" stroke-width="1" fill="none" fill-rule="evenodd">
        <g id="Group-56">
            <polygon id="Fill-1" fill="#B6CFD1" points="231.2411 186.4604 387.6121 282.0604 231.2411 377.6584 74.8691 282.0604"></polygon>
            <polyline id="Stroke-2" stroke="#00ACD6" stroke-width="2" points="257.1503 193.6772 387.6123 273.4372 231.2413 369.0352 74.8693 273.4372 231.2413 177.8372"></polyline>
            <polygon id="Fill-4" fill="#B6CFD1" points="145.5385 158.3481 78.5785 198.8751 78.5785 171.9291 145.5385 131.4021"></polygon>
            <polygon id="Fill-5" fill="#E2EFF1" points="154.0893 159.3354 87.1293 199.8624 87.1293 172.9154 154.0893 132.3894"></polygon>
            <path d="M28.0146,265.5219 L156.3616,187.0559" id="Stroke-6" stroke="#00ACD6" stroke-width="2"></path>
            <path d="M72.143,223.6723 L200.49,145.2063" id="Stroke-7" stroke="#00ACD6" stroke-width="2"></path>
            <g id="Group-55" transform="translate(0.000000, 0.798000)">
                <path d="M355.3979,175.7307 C355.3979,182.2577 346.8919,187.5497 336.3989,187.5497 C325.9069,187.5497 317.3999,182.2577 317.3999,175.7307 C317.3999,169.2037 325.9069,163.9127 336.3989,163.9127 C346.8919,163.9127 355.3979,169.2037 355.3979,175.7307" id="Fill-8" fill="#B6CFD1"></path>
                <path d="M350.9721,172.6888 C350.9721,179.2158 342.4661,184.5068 331.9731,184.5068 C321.4811,184.5068 312.9751,179.2158 312.9751,172.6888 C312.9751,166.1618 321.4811,160.8698 331.9731,160.8698 C342.4661,160.8698 350.9721,166.1618 350.9721,172.6888" id="Fill-10" fill="#E2EFF1"></path>
                <mask id="mask-2" fill="white">
                    <use xlink:href="#path-1"></use>
                </mask>
                <g id="Clip-13"></g>
                <polygon id="Fill-12" fill="#E2EFF1" mask="url(#mask-2)" points="312.975 172.689 350.972 172.689 350.972 124.21 312.975 124.21"></polygon>
                <path d="M350.9721,124.2093 C350.9721,130.7363 342.4661,136.0283 331.9731,136.0283 C321.4811,136.0283 312.9751,130.7363 312.9751,124.2093 C312.9751,117.6823 321.4811,112.3903 331.9731,112.3903 C342.4661,112.3903 350.9721,117.6823 350.9721,124.2093" id="Fill-14" fill="#B6CFD1" mask="url(#mask-2)"></path>
                <polygon id="Fill-15" fill="#E2EFF1" mask="url(#mask-2)" points="277.2104 160.221 148.8634 238.687 135.8254 129.679 264.1724 51.212"></polygon>
                <polyline id="Fill-16" fill="#B6CFD1" mask="url(#mask-2)" points="154.7074 243.6848 148.4094 239.0568 136.3234 130.3898 142.8514 134.2348"></polyline>
                <polygon id="Fill-17" fill="#E2EFF1" mask="url(#mask-2)" points="283.5087 171.927 380.9687 232.65 252.6227 311.115 155.1617 250.393"></polygon>
                <polygon id="Stroke-18" stroke="#00ACD6" stroke-width="2" stroke-linejoin="bevel" mask="url(#mask-2)" points="283.5087 164.8489 380.9687 225.5719 252.6227 304.0369 155.1617 243.3149"></polygon>
                <polyline id="Fill-19" fill="#B6CFD1" mask="url(#mask-2)" points="252.6225 304.0374 252.6225 311.1154 155.1615 250.3924 155.1615 243.3144"></polyline>
                <polygon id="Fill-20" fill="#00ACD6" mask="url(#mask-2)" points="278.1283 162.3284 159.8493 234.8974 148.8503 135.7364 267.1293 63.1674"></polygon>
                <polygon id="Fill-21" fill="#B6CFD1" mask="url(#mask-2)" points="301.7074 223.9964 331.6214 242.6344 292.2274 266.7174 262.3144 248.0794"></polygon>
                <polygon id="Fill-22" fill="#E2EFF1" mask="url(#mask-2)" points="301.7074 227.0286 331.6214 245.6666 292.2274 269.7506 262.3144 251.1126"></polygon>
                <polygon id="Fill-23" fill="#B6CFD1" mask="url(#mask-2)" points="287.4843 179.554 293.3253 183.298 186.1983 248.745 180.3573 245.001"></polygon>
                <polygon id="Fill-24" fill="#B6CFD1" mask="url(#mask-2)" points="295.0863 184.3401 300.9273 188.0841 193.8003 253.5311 187.9593 249.7871"></polygon>
                <polygon id="Fill-25" fill="#B6CFD1" mask="url(#mask-2)" points="302.6884 189.1272 308.5294 192.8712 201.4024 258.3182 195.5614 254.5742"></polygon>
                <polygon id="Fill-26" fill="#B6CFD1" mask="url(#mask-2)" points="310.2904 193.9134 316.1314 197.6574 209.0044 263.1044 203.1634 259.3604"></polygon>
                <polygon id="Stroke-27" stroke="#00ACD6" stroke-width="2" mask="url(#mask-2)" points="283.5087 164.8489 270.7007 55.0569 142.3537 133.5239 155.1617 243.3149"></polygon>
                <polygon id="Stroke-28" stroke="#00ACD6" stroke-width="2" stroke-linejoin="bevel" mask="url(#mask-2)" points="155.1615 243.3147 155.1615 250.3927 252.6225 311.1157 252.6225 304.0377 155.1615 243.3147 148.8635 238.6867 135.8695 129.9357 142.3975 133.7797"></polygon>
                <path d="M142.536,278.1057 C142.536,290.3767 123.802,300.3257 100.693,300.3257 C77.584,300.3257 58.85,290.3767 58.85,278.1057 C58.85,265.8337 77.584,255.8857 100.693,255.8857 C123.802,255.8857 142.536,265.8337 142.536,278.1057" id="Fill-29" fill="#B6CFD1" mask="url(#mask-2)"></path>
                <path d="M142.536,270.3089 C142.536,282.5799 123.802,292.5289 100.693,292.5289 C77.584,292.5289 58.85,282.5799 58.85,270.3089 C58.85,258.0379 77.584,248.0889 100.693,248.0889 C123.802,248.0889 142.536,258.0379 142.536,270.3089" id="Fill-30" fill="#E2EFF1" mask="url(#mask-2)"></path>
                <polyline id="Stroke-31" stroke="#E2EFF1" stroke-width="15" stroke-linejoin="round" mask="url(#mask-2)" points="118.4672 59.0384 7.5002 171.2524 90.5572 213.7154 90.5572 270.0744"></polyline>
                <path d="M114.808,64.5647 C107.132,64.5647 100.91,58.3417 100.91,50.6667 C100.91,42.9907 107.132,36.7677 114.808,36.7677 C122.484,36.7677 128.706,42.9907 128.706,50.6667 C128.706,58.3417 122.484,64.5647 114.808,64.5647" id="Fill-32" fill="#E2EFF1" mask="url(#mask-2)"></path>
                <path d="M173.1952,93.0852 C173.1952,102.9142 165.2272,110.8832 155.3982,110.8832 C145.5692,110.8832 137.6002,102.9142 137.6002,93.0852 C137.6002,83.2562 145.5692,75.2882 155.3982,75.2882 C165.2272,75.2882 173.1952,83.2562 173.1952,93.0852" id="Fill-33" fill="#00ACD6" mask="url(#mask-2)"></path>
                <path d="M139.578,46.7288 L139.559,46.7478 C131.584,39.4848 119.24,39.6838 111.533,47.3908 C103.826,55.0988 103.626,67.4428 110.889,75.4178 L110.839,75.4668 C110.839,75.4668 127.176,112.6908 132.556,118.0718 L181.607,69.0208 C176.507,63.9198 139.578,46.7288 139.578,46.7288" id="Fill-34" fill="#E2EFF1" mask="url(#mask-2)"></path>
                <polygon id="Fill-35" fill="#B6CFD1" mask="url(#mask-2)" points="183.3686 71.0286 134.3716 120.0256 132.3786 118.0336 181.3756 69.0366"></polygon>
                <path d="M280.5565,104.6165 C278.7205,100.9485 280.0535,94.5245 283.5445,90.2175 C287.0355,85.9105 291.3265,85.3955 293.1625,89.0625 C294.9985,92.7305 293.6655,99.1545 290.1755,103.4625 C286.6835,107.7685 282.3925,108.2835 280.5565,104.6165 M277.2875,123.1525 C277.6855,123.3205 277.9405,123.8305 277.8025,124.4945 L276.5815,131.7685 L282.9445,131.0055 L284.7575,123.6595 C284.8955,122.9955 285.3805,122.3975 285.8695,122.1225 C287.6355,121.2625 289.5445,120.0605 291.2995,118.5545 C291.8355,118.0575 292.3305,118.1065 292.5345,118.5145 L295.1715,122.8425 L301.0875,115.5445 L298.9805,110.3965 C298.8735,109.8695 298.9605,109.1035 299.2975,108.5225 C300.6445,106.2015 301.8895,103.6765 302.7885,101.0845 C303.0745,100.4015 303.5595,99.8035 304.0035,99.7495 L308.9785,98.7205 L310.9545,89.1955 L306.1635,89.3395 C305.7195,89.3915 305.4645,88.8825 305.4545,88.2355 C305.5155,85.8515 305.3785,83.3855 304.9505,81.2755 C304.7925,80.6465 305.0275,79.8625 305.4155,79.3845 L309.7235,73.5755 L306.6115,67.3605 L301.9005,72.6785 C301.4625,73.0545 300.9215,73.2275 300.6195,72.9395 C299.4155,71.7885 298.0175,70.8765 296.4315,70.5265 C296.0335,70.3585 295.7785,69.8485 295.9165,69.1845 L297.1375,61.9095 L290.7735,62.6735 L288.9615,70.0185 C288.8235,70.6825 288.3385,71.2815 287.8485,71.5565 C286.0825,72.4165 284.1745,73.6175 282.4195,75.1245 C281.8835,75.6205 281.3885,75.5725 281.1835,75.1645 L278.5475,70.8375 L272.6315,78.1355 L274.8355,83.1625 C274.9425,83.6895 274.8555,84.4555 274.5185,85.0365 C273.1705,87.3575 271.9255,89.8835 271.0265,92.4745 C270.7415,93.1575 270.2565,93.7565 269.8125,93.8095 L264.8375,94.8385 L262.8605,104.3635 L267.6525,104.2205 C268.0965,104.1675 268.3515,104.6775 268.3615,105.3235 C268.2995,107.7075 268.4365,110.1745 268.8655,112.2835 C269.0235,112.9125 268.7885,113.6965 268.4005,114.1755 L264.0925,119.9835 L267.2045,126.1985 L271.8185,121.0015 C272.2565,120.6245 272.7975,120.4515 273.0985,120.7395 C274.3025,121.8905 275.7005,122.8035 277.2875,123.1525" id="Fill-36" fill="#B6CFD1" mask="url(#mask-2)"></path>
                <path d="M287.3905,105.7679 C285.5545,102.1009 286.8875,95.6769 290.3785,91.3699 C293.8695,87.0629 298.1605,86.5469 299.9965,90.2149 C301.8325,93.8819 300.4995,100.3069 297.0095,104.6139 C293.5175,108.9209 289.2265,109.4359 287.3905,105.7679 M284.1215,124.3049 C284.5195,124.4729 284.7745,124.9819 284.6365,125.6469 L283.4155,132.9209 L289.7785,132.1579 L291.5915,124.8119 C291.7295,124.1479 292.2145,123.5489 292.7035,123.2749 C294.4695,122.4139 296.3785,121.2129 298.1335,119.7069 C298.6695,119.2099 299.1645,119.2589 299.3685,119.6659 L302.0055,123.9949 L307.9215,116.6969 L305.8145,111.5489 C305.7075,111.0219 305.7945,110.2549 306.1315,109.6749 C307.4785,107.3539 308.7235,104.8279 309.6225,102.2359 C309.9085,101.5539 310.3935,100.9559 310.8375,100.9019 L315.8125,99.8729 L317.7885,90.3479 L312.9975,90.4909 C312.5535,90.5439 312.2985,90.0349 312.2885,89.3879 C312.3495,87.0039 312.2125,84.5369 311.7845,82.4279 C311.6265,81.7989 311.8615,81.0149 312.2495,80.5369 L316.5575,74.7279 L313.4455,68.5129 L308.7345,73.8309 C308.2965,74.2069 307.7555,74.3799 307.4535,74.0919 C306.2495,72.9409 304.8515,72.0279 303.2655,71.6789 C302.8675,71.5099 302.6125,71.0009 302.7505,70.3359 L303.9715,63.0619 L297.6075,63.8259 L295.7955,71.1709 C295.6575,71.8349 295.1725,72.4339 294.6825,72.7079 C292.9165,73.5689 291.0085,74.7699 289.2535,76.2769 C288.7175,76.7729 288.2225,76.7239 288.0175,76.3169 L285.3815,71.9899 L279.4655,79.2879 L281.6695,84.3149 C281.7765,84.8409 281.6895,85.6079 281.3525,86.1889 C280.0045,88.5099 278.7595,91.0359 277.8605,93.6269 C277.5755,94.3099 277.0905,94.9089 276.6465,94.9609 L271.6715,95.9909 L269.6945,105.5159 L274.4865,105.3719 C274.9305,105.3199 275.1855,105.8299 275.1955,106.4759 C275.1335,108.8589 275.2705,111.3269 275.6995,113.4359 C275.8575,114.0649 275.6225,114.8489 275.2345,115.3279 L270.9265,121.1359 L274.0385,127.3509 L278.6525,122.1529 C279.0905,121.7759 279.6315,121.6039 279.9325,121.8909 C281.1365,123.0429 282.5345,123.9549 284.1215,124.3049" id="Fill-37" fill="#E2EFF1" mask="url(#mask-2)"></path>
                <path d="M287.3905,105.7679 C285.5545,102.1009 286.8875,95.6769 290.3785,91.3699 C293.8695,87.0629 298.1605,86.5469 299.9965,90.2149 C301.8325,93.8819 300.4995,100.3069 297.0095,104.6139 C293.5175,108.9209 289.2265,109.4359 287.3905,105.7679 Z M284.1215,124.3049 C284.5195,124.4729 284.7745,124.9819 284.6365,125.6469 L283.4155,132.9209 L289.7785,132.1579 L291.5915,124.8119 C291.7295,124.1479 292.2145,123.5489 292.7035,123.2749 C294.4695,122.4139 296.3785,121.2129 298.1335,119.7069 C298.6695,119.2099 299.1645,119.2589 299.3685,119.6659 L302.0055,123.9949 L307.9215,116.6969 L305.8145,111.5489 C305.7075,111.0219 305.7945,110.2549 306.1315,109.6749 C307.4785,107.3539 308.7235,104.8279 309.6225,102.2359 C309.9085,101.5539 310.3935,100.9559 310.8375,100.9019 L315.8125,99.8729 L317.7885,90.3479 L312.9975,90.4909 C312.5535,90.5439 312.2985,90.0349 312.2885,89.3879 C312.3495,87.0039 312.2125,84.5369 311.7845,82.4279 C311.6265,81.7989 311.8615,81.0149 312.2495,80.5369 L316.5575,74.7279 L313.4455,68.5129 L308.7345,73.8309 C308.2965,74.2069 307.7555,74.3799 307.4535,74.0919 C306.2495,72.9409 304.8515,72.0279 303.2655,71.6789 C302.8675,71.5099 302.6125,71.0009 302.7505,70.3359 L303.9715,63.0619 L297.6075,63.8259 L295.7955,71.1709 C295.6575,71.8349 295.1725,72.4339 294.6825,72.7079 C292.9165,73.5689 291.0085,74.7699 289.2535,76.2769 C288.7175,76.7729 288.2225,76.7239 288.0175,76.3169 L285.3815,71.9899 L279.4655,79.2879 L281.6695,84.3149 C281.7765,84.8409 281.6895,85.6079 281.3525,86.1889 C280.0045,88.5099 278.7595,91.0359 277.8605,93.6269 C277.5755,94.3099 277.0905,94.9089 276.6465,94.9609 L271.6715,95.9909 L269.6945,105.5159 L274.4865,105.3719 C274.9305,105.3199 275.1855,105.8299 275.1955,106.4759 C275.1335,108.8589 275.2705,111.3269 275.6995,113.4359 C275.8575,114.0649 275.6225,114.8489 275.2345,115.3279 L270.9265,121.1359 L274.0385,127.3509 L278.6525,122.1529 C279.0905,121.7759 279.6315,121.6039 279.9325,121.8909 C281.1365,123.0429 282.5345,123.9549 284.1215,124.3049 Z" id="Stroke-38" stroke="#00A3CB" stroke-width="2" mask="url(#mask-2)"></path>
                <path d="M314.7172,47.8968 C313.4182,51.5928 309.9862,53.7528 307.0502,52.7208 C304.1132,51.6898 302.7862,47.8578 304.0842,44.1618 C305.3832,40.4658 308.8162,38.3058 311.7522,39.3368 C314.6882,40.3698 316.0152,44.2018 314.7172,47.8968" id="Fill-39" fill="#E2EFF1" mask="url(#mask-2)"></path>
                <path d="M318.1752,48.3313 C316.8762,52.0273 313.4442,54.1863 310.5082,53.1553 C307.5712,52.1243 306.2442,48.2913 307.5422,44.5963 C308.8412,40.8993 312.2742,38.7403 315.2102,39.7713 C318.1462,40.8033 319.4732,44.6363 318.1752,48.3313 Z" id="Stroke-40" stroke="#00ACD6" stroke-width="2" mask="url(#mask-2)"></path>
                <path d="M245.5419,109.1761 C244.2439,112.8711 240.8109,115.0311 237.8749,114.0001 C234.9379,112.9681 233.6109,109.1361 234.9099,105.4401 C236.2079,101.7441 239.6409,99.5841 242.5769,100.6161 C245.5129,101.6481 246.8399,105.4801 245.5419,109.1761" id="Fill-41" fill="#E2EFF1" mask="url(#mask-2)"></path>
                <path d="M248.9999,109.6096 C247.7019,113.3056 244.2689,115.4646 241.3329,114.4336 C238.3959,113.4026 237.0689,109.5706 238.3679,105.8746 C239.6659,102.1786 243.0989,100.0186 246.0349,101.0496 C248.9709,102.0826 250.2979,105.9146 248.9999,109.6096" id="Fill-42" fill="#B6CFD1" mask="url(#mask-2)"></path>
                <path d="M251.642,67.2786 C250.344,70.9746 246.911,73.1336 243.975,72.1026 C241.039,71.0706 239.711,67.2386 241.01,63.5436 C242.308,59.8466 245.741,57.6876 248.677,58.7186 C251.613,59.7506 252.941,63.5826 251.642,67.2786" id="Fill-43" fill="#E2EFF1" mask="url(#mask-2)"></path>
                <path d="M255.1,67.7132 C253.802,71.4082 250.369,73.5682 247.433,72.5362 C244.497,71.5052 243.169,67.6732 244.468,63.9772 C245.766,60.2812 249.199,58.1212 252.135,59.1522 C255.071,60.1852 256.399,64.0172 255.1,67.7132" id="Fill-44" fill="#00ACD6" mask="url(#mask-2)"></path>
                <path d="M281.269,40.2727 C279.97,43.9687 276.538,46.1277 273.602,45.0967 C270.665,44.0657 269.338,40.2327 270.636,36.5377 C271.935,32.8407 275.368,30.6817 278.304,31.7127 C281.24,32.7447 282.567,36.5777 281.269,40.2727" id="Fill-45" fill="#B6CFD1" mask="url(#mask-2)"></path>
                <path d="M284.727,40.7073 C283.428,44.4023 279.996,46.5623 277.06,45.5313 C274.123,44.4993 272.796,40.6673 274.094,36.9723 C275.393,33.2753 278.826,31.1153 281.762,32.1473 C284.698,33.1793 286.025,37.0113 284.727,40.7073" id="Fill-46" fill="#E2EFF1" mask="url(#mask-2)"></path>
                <path d="M299.9965,9.0198 C298.6985,12.7148 295.2655,14.8748 292.3295,13.8438 C289.3935,12.8118 288.0655,8.9798 289.3645,5.2848 C290.6635,1.5878 294.0955,-0.5722 297.0315,0.4598 C299.9675,1.4918 301.2955,5.3238 299.9965,9.0198" id="Fill-47" fill="#B6CFD1" mask="url(#mask-2)"></path>
                <path d="M303.4545,9.4534 C302.1565,13.1494 298.7235,15.3094 295.7875,14.2774 C292.8515,13.2464 291.5235,9.4144 292.8225,5.7184 C294.1215,2.0224 297.5535,-0.1376 300.4895,0.8934 C303.4255,1.9264 304.7535,5.7584 303.4545,9.4534" id="Fill-48" fill="#E2EFF1" mask="url(#mask-2)"></path>
                <path d="M266.8857,157.9436 C265.5877,161.6396 262.1547,163.7986 259.2187,162.7676 C256.2817,161.7366 254.9547,157.9036 256.2537,154.2086 C257.5517,150.5116 260.9847,148.3526 263.9207,149.3836 C266.8567,150.4156 268.1837,154.2486 266.8857,157.9436" id="Fill-49" fill="#E2EFF1" mask="url(#mask-2)"></path>
                <path d="M270.3437,158.3782 C269.0457,162.0732 265.6127,164.2332 262.6767,163.2022 C259.7397,162.1702 258.4127,158.3382 259.7117,154.6432 C261.0097,150.9462 264.4427,148.7862 267.3787,149.8182 C270.3147,150.8502 271.6417,154.6822 270.3437,158.3782" id="Fill-50" fill="#B6CFD1" mask="url(#mask-2)"></path>
                <path d="M52.5844,392.0003 L180.9314,313.5333" id="Stroke-51" stroke="#00ACD6" stroke-width="2" mask="url(#mask-2)"></path>
                <path d="M118.9306,333.2962 L192.6356,288.7252" id="Stroke-52" stroke="#00ACD6" stroke-width="2" mask="url(#mask-2)"></path>
                <polygon id="Fill-53" fill="#B6CFD1" mask="url(#mask-2)" points="207.7177 338.5979 119.2777 392.0129 119.2777 365.0659 207.7177 311.6509"></polygon>
                <polygon id="Fill-54" fill="#E2EFF1" mask="url(#mask-2)" points="216.269 339.5852 127.829 393.0002 127.829 366.0532 216.269 312.6382"></polygon>
            </g>
        </g>
    </g>
</svg>