<?xml version="1.0" encoding="UTF-8"?>
<svg width="274px" height="246px" viewBox="0 0 274 246" version="1.1" xmlns="http://www.w3.org/2000/svg" xmlns:xlink="http://www.w3.org/1999/xlink">
    <!-- Generator: Sketch 52.5 (67469) - http://www.bohemiancoding.com/sketch -->
    <title>How to become </title>
    <desc>Created with Sketch.</desc>
    <g id="How-to-become-" stroke="none" stroke-width="1" fill="none" fill-rule="evenodd">
        <g id="Group-54">
            <polygon id="Fill-1" fill="#B6CFD1" points="0 111.5901 0 144.6701 82.23 94.4431 82.23 61.3631"></polygon>
            <polygon id="Fill-2" fill="#E2EFF1" points="89.428 95.2739 7.198 145.5019 7.198 112.4209 89.428 62.1939"></polygon>
            <path d="M32.2977,60.0737 L114.5277,9.8457" id="Stroke-3" stroke="#00ACD6" stroke-width="2"></path>
            <path d="M14.6868,87.3325 L96.9168,37.1055" id="Stroke-4" stroke="#00ACD6" stroke-width="2"></path>
            <polygon id="Fill-5" fill="#E2EFF1" points="16.7949 167.2164 145.1419 245.6824 273.4889 167.2164 145.1419 88.7504"></polygon>
            <polygon id="Stroke-6" stroke="#00ACD6" stroke-width="2" points="145.1419 78.731 273.4889 157.197 145.1419 235.664 16.7949 157.197"></polygon>
            <polygon id="Fill-8" fill="#B6CFD1" points="144.6819 100.5747 241.2219 159.5957 144.6819 218.6157 48.1419 159.5957"></polygon>
            <polygon id="Fill-9" fill="#B8D0D2" points="144.6819 86.3589 232.6239 140.1239 144.6819 193.8869 56.7399 140.1239"></polygon>
            <polygon id="Stroke-10" stroke="#00ACD6" stroke-width="2" stroke-linejoin="bevel" points="144.6819 193.8872 144.6819 218.6162 47.9379 159.0352 56.7399 140.1232"></polygon>
            <g id="Group-53" transform="translate(58.000000, 0.682000)">
                <path d="M33.1292,139.3361 C33.1292,157.7001 57.0602,172.5881 86.5802,172.5881 C116.1002,172.5881 140.0302,157.7001 140.0302,139.3361 C140.0302,120.9721 116.1002,106.0841 86.5802,106.0841 C57.0602,106.0841 33.1292,120.9721 33.1292,139.3361" id="Fill-11" fill="#E2EFF1"></path>
                <path d="M33.1292,131.5294 C33.1292,149.8934 57.0602,164.7814 86.5802,164.7814 C116.1002,164.7814 140.0302,149.8934 140.0302,131.5294 C140.0302,113.1654 116.1002,98.2774 86.5802,98.2774 C57.0602,98.2774 33.1292,113.1654 33.1292,131.5294 Z" id="Stroke-13" stroke="#00ACD6" stroke-width="2" stroke-linejoin="bevel"></path>
                <path d="M49.0179,125.5802 L54.9209,135.7282 C58.9879,142.7272 75.9599,140.4692 92.8259,130.6612 C109.6819,120.8662 120.0489,107.2482 115.9809,100.2382 L110.0789,90.0902 C114.1449,97.0892 103.7779,110.7072 86.9229,120.5132 C70.0569,130.3092 53.0959,132.5782 49.0179,125.5802" id="Fill-15" fill="#00A3CB"></path>
                <path d="M49.0179,125.5802 L54.9209,135.7282 C58.9879,142.7272 75.9599,140.4692 92.8259,130.6612 C109.6819,120.8662 120.0489,107.2482 115.9809,100.2382 L110.0789,90.0902 C114.1449,97.0892 103.7779,110.7072 86.9229,120.5132 C70.0569,130.3092 53.0959,132.5782 49.0179,125.5802 Z" id="Stroke-17" stroke="#00A3CB" stroke-width="2"></path>
                <path d="M49.0179,125.5802 C53.0959,132.5782 70.0569,130.3092 86.9229,120.5132 C103.7779,110.7072 114.1449,97.0892 110.0789,90.0902 C108.7409,87.7842 106.0139,86.4762 102.3459,86.1212 L49.4019,116.9072 C47.9059,120.2632 47.6799,123.2742 49.0179,125.5802" id="Fill-19" fill="#E2EFF1"></path>
                <path d="M49.0179,125.5802 C53.0959,132.5782 70.0569,130.3092 86.9229,120.5132 C103.7779,110.7072 114.1449,97.0892 110.0789,90.0902 C108.7409,87.7842 106.0139,86.4762 102.3459,86.1212 L49.4019,116.9072 C47.9059,120.2632 47.6799,123.2742 49.0179,125.5802 Z" id="Stroke-21" stroke="#00A3CB" stroke-width="2"></path>
                <path d="M15.493,58.9396 L48.405,115.5786 L50.404,119.0096 C50.985,120.0106 51.875,120.7926 53.007,121.3476 C58.779,124.2506 71.052,121.7106 83.266,114.6166 C95.481,107.5216 103.766,98.1066 104.096,91.6536 C104.173,90.3836 103.929,89.2246 103.348,88.2236 L101.349,84.7926 L68.45,28.1636 C65.387,35.0376 56.996,43.3446 45.668,49.9246 C34.34,56.5056 22.975,59.6806 15.493,58.9396" id="Fill-23" fill="#B6CFD1"></path>
                <path d="M1.8699,44.8322 L7.7739,54.9912 C9.1109,57.2852 11.8369,58.5822 15.4929,58.9392 C22.9749,59.6812 34.3399,56.5062 45.6679,49.9252 C56.9959,43.3452 65.3869,35.0372 68.4499,28.1632 C69.9339,24.8092 70.1599,21.7972 68.8339,19.5012 L62.9309,9.3422 C64.2679,11.6462 64.0419,14.6592 62.5469,18.0152 C62.5119,18.1072 62.4669,18.2002 62.4209,18.2932 C59.2639,25.1112 50.9469,33.2782 39.7639,39.7662 C28.6039,46.2622 17.3839,49.4442 9.9039,48.8242 C9.8039,48.8242 9.7029,48.8122 9.6019,48.8012 C5.9349,48.4442 3.2079,47.1382 1.8699,44.8322" id="Fill-25" fill="#E2EFF1"></path>
                <path d="M1.8699,44.8322 L7.7739,54.9912 C9.1109,57.2852 11.8369,58.5822 15.4929,58.9392 C22.9749,59.6812 34.3399,56.5062 45.6679,49.9252 C56.9959,43.3452 65.3869,35.0372 68.4499,28.1632 C69.9339,24.8092 70.1599,21.7972 68.8339,19.5012 L62.9309,9.3422 C64.2679,11.6462 64.0419,14.6592 62.5469,18.0152 C62.5119,18.1072 62.4669,18.2002 62.4209,18.2932 C59.2639,25.1112 50.9469,33.2782 39.7639,39.7662 C28.6039,46.2622 17.3839,49.4442 9.9039,48.8242 C9.8039,48.8242 9.7029,48.8122 9.6019,48.8012 C5.9349,48.4442 3.2079,47.1382 1.8699,44.8322 Z" id="Stroke-27" stroke="#00A3CB" stroke-width="2"></path>
                <path d="M1.8699,44.8322 C3.2079,47.1382 5.9349,48.4442 9.6019,48.8012 C9.7029,48.8122 9.8039,48.8242 9.9039,48.8242 C17.3839,49.4442 28.6039,46.2622 39.7639,39.7662 C50.9469,33.2782 59.2639,25.1112 62.4209,18.2932 C62.4669,18.2002 62.5119,18.1072 62.5469,18.0152 C64.0419,14.6592 64.2679,11.6462 62.9309,9.3422 C58.8639,2.3432 41.8919,4.6132 25.0249,14.4092 C8.1699,24.2152 -2.1971,37.8332 1.8699,44.8322" id="Fill-29" fill="#00A3CB"></path>
                <path d="M1.8699,44.8322 C3.2079,47.1382 5.9349,48.4442 9.6019,48.8012 C9.7029,48.8122 9.8039,48.8242 9.9039,48.8242 C17.3839,49.4442 28.6039,46.2622 39.7639,39.7662 C50.9469,33.2782 59.2639,25.1112 62.4209,18.2932 C62.4669,18.2002 62.5119,18.1072 62.5469,18.0152 C64.0419,14.6592 64.2679,11.6462 62.9309,9.3422 C58.8639,2.3432 41.8919,4.6132 25.0249,14.4092 C8.1699,24.2152 -2.1971,37.8332 1.8699,44.8322 Z" id="Stroke-31" stroke="#00A3CB" stroke-width="2"></path>
                <path d="M73.1048,55.1193 C69.2258,57.2683 68.8808,64.0663 72.3348,70.3033 C75.7898,76.5393 81.7348,79.8523 85.6148,77.7033 C89.4948,75.5553 89.8388,68.7573 86.3848,62.5203 C82.9308,56.2843 76.9848,52.9713 73.1048,55.1193" id="Fill-33" fill="#E2EFF1"></path>
                <polygon id="Fill-35" fill="#E2EFF1" points="73.1048 55.1193 85.6148 77.7033 93.5208 73.3243 81.0108 50.7403"></polygon>
                <path d="M81.011,50.7404 C77.132,52.8884 76.787,59.6864 80.241,65.9234 C83.696,72.1604 89.641,75.4734 93.521,73.3244 C97.401,71.1754 97.745,64.3774 94.291,58.1404 C90.837,51.9044 84.891,48.5914 81.011,50.7404" id="Fill-37" fill="#B6CFD1"></path>
                <path d="M83.0071,53.0988 C80.0381,54.7438 79.7741,59.9458 82.4181,64.7178 C85.0611,69.4908 89.6111,72.0258 92.5791,70.3808 C95.5491,68.7368 95.8121,63.5358 93.1691,58.7628 C90.5261,53.9908 85.9761,51.4538 83.0071,53.0988" id="Fill-39" fill="#E2EFF1"></path>
                <polygon id="Fill-41" fill="#E2EFF1" points="83.0071 53.0988 92.5791 70.3808 173.7321 25.4298 164.1591 8.1478"></polygon>
                <path d="M164.1595,8.1476 C161.1905,9.7926 160.9275,14.9946 163.5705,19.7666 C166.2135,24.5396 170.7635,27.0746 173.7325,25.4296 C176.7015,23.7856 176.9645,18.5846 174.3215,13.8116 C171.6785,9.0396 167.1285,6.5026 164.1595,8.1476" id="Fill-43" fill="#B6CFD1"></path>
                <path d="M162.952,5.3527 C159.072,7.5007 158.727,14.2987 162.182,20.5357 C165.637,26.7717 171.582,30.0857 175.462,27.9367 C179.341,25.7877 179.686,18.9897 176.232,12.7527 C172.777,6.5167 166.832,3.2037 162.952,5.3527" id="Fill-45" fill="#E2EFF1"></path>
                <polygon id="Fill-47" fill="#E2EFF1" points="162.952 5.3527 175.462 27.9367 183.368 23.5567 170.858 0.9727"></polygon>
                <path d="M170.8582,0.9728 C166.9782,3.1218 166.6332,9.9198 170.0882,16.1568 C173.5432,22.3928 179.4882,25.7058 183.3682,23.5568 C187.2482,21.4088 187.5922,14.6108 184.1382,8.3738 C180.6832,2.1378 174.7382,-1.1752 170.8582,0.9728" id="Fill-49" fill="#B6CFD1"></path>
                <path d="M174.6238,139.4415 L86.6818,193.2055" id="Stroke-51" stroke="#00ACD6" stroke-width="2" stroke-linejoin="bevel"></path>
            </g>
        </g>
    </g>
</svg>