<?xml version="1.0" encoding="UTF-8"?>
<svg width="312px" height="291px" viewBox="0 0 312 291" version="1.1" xmlns="http://www.w3.org/2000/svg" xmlns:xlink="http://www.w3.org/1999/xlink">
    <!-- Generator: Sketch 52.5 (67469) - http://www.bohemiancoding.com/sketch -->
    <title>Pull Request Checkli</title>
    <desc>Created with Sketch.</desc>
    <g id="Pull-Request-Checkli" stroke="none" stroke-width="1" fill="none" fill-rule="evenodd">
        <g id="Group-39">
            <polygon id="Fill-1" fill="#E2EFF1" points="30.7026 212.2075 159.0496 290.6745 287.3966 212.2075 159.0496 133.7415"></polygon>
            <polygon id="Stroke-2" stroke="#00ACD6" stroke-width="2" points="159.0497 123.8296 30.7027 202.2956 159.0497 280.7616 287.3977 202.2956"></polygon>
            <polygon id="Fill-3" fill="#B6CFD1" points="228.9753 122.2813 311.2053 172.5083 311.2053 139.4293 228.9753 89.2023"></polygon>
            <polygon id="Fill-4" fill="#E2EFF1" points="221.7782 123.1128 304.0082 173.3398 304.0082 140.2588 221.7782 90.0328"></polygon>
            <path d="M278.9091,98.6665 L196.6791,48.4395" id="Stroke-5" stroke="#00ACD6" stroke-width="2"></path>
            <path d="M296.5194,121.4975 L214.2894,71.2695" id="Stroke-6" stroke="#00ACD6" stroke-width="2"></path>
            <polygon id="Fill-7" fill="#B6CFD1" points="138.1212 0.0001 69.6902 173.7821 186.9002 241.2011 255.3302 67.4191"></polygon>
            <polygon id="Fill-8" fill="#E2EFF1" points="140.8807 27.8852 83.2907 172.6612 174.4927 225.1202 232.0827 80.3442"></polygon>
            <path d="M203.4471,89.1714 L152.0171,57.8664" id="Stroke-9" stroke="#00ACD6" stroke-width="2"></path>
            <g id="Group-38" transform="translate(0.000000, 17.674000)">
                <path d="M143.0575,31.4144 C143.6265,35.5974 141.2715,39.3714 137.7965,39.8444 C134.3215,40.3164 131.0425,37.3094 130.4735,33.1264 C129.9045,28.9424 132.2595,25.1684 135.7355,24.6954 C139.2095,24.2234 142.4885,27.2304 143.0575,31.4144" id="Fill-10" fill="#00ACD6"></path>
                <path d="M194.4422,94.0657 L143.0122,62.7597" id="Stroke-12" stroke="#00ACD6" stroke-width="2"></path>
                <path d="M134.0526,53.9817 C134.6216,58.1657 132.2666,61.9397 128.7906,62.4127 C125.3166,62.8847 122.0376,59.8777 121.4686,55.6947 C120.8996,51.5107 123.2546,47.7367 126.7306,47.2637 C130.2046,46.7917 133.4836,49.7987 134.0526,53.9817" id="Fill-14" fill="#00ACD6"></path>
                <path d="M185.4374,116.6341 L134.0074,85.3281" id="Stroke-16" stroke="#00ACD6" stroke-width="2"></path>
                <path d="M160.2254,117.638 L128.4944,98.561" id="Stroke-18" stroke="#00ACD6" stroke-width="2"></path>
                <path d="M125.0477,76.5501 C125.6157,80.7341 123.2607,84.5081 119.7857,84.9811 C116.3117,85.4531 113.0327,82.4461 112.4637,78.2621 C111.8947,74.0791 114.2497,70.3051 117.7247,69.8321 C121.1997,69.3601 124.4787,72.3671 125.0477,76.5501" id="Fill-20" fill="#00ACD6"></path>
                <polygon id="Stroke-22" stroke="#00ACD6" stroke-width="2" points="138.6337 0.136 81.0447 144.912 172.2467 197.371 229.8357 52.596"></polygon>
                <polygon id="Fill-24" fill="#00ACD6" points="166.5028 6.2034 158.6558 25.9304 199.1788 49.1914 207.0248 29.4654"></polygon>
                <path d="M179.3475,152.5071 C179.3475,161.5941 171.9815,168.9601 162.8945,168.9601 C153.8075,168.9601 146.4415,161.5941 146.4415,152.5071 C146.4415,143.4201 153.8075,136.0541 162.8945,136.0541 C171.9815,136.0541 179.3475,143.4201 179.3475,152.5071" id="Fill-26" fill="#B6CFD1"></path>
                <polyline id="Stroke-28" stroke="#00ACD6" stroke-width="9" points="160.5858 128.5491 160.0598 152.5071 215.8168 127.4101"></polyline>
                <polygon id="Fill-30" fill="#B6CFD1" points="18.495 133.1585 100.725 183.3865 100.725 150.3055 18.495 100.0785"></polygon>
                <polygon id="Fill-32" fill="#E2EFF1" points="11.2968 133.9895 93.5268 184.2165 93.5268 151.1355 11.2968 100.9095"></polygon>
                <path d="M108.6678,122.8382 L26.4378,72.6102" id="Stroke-34" stroke="#00ACD6" stroke-width="2"></path>
                <path d="M82.7518,126.804 L0.5218,76.576" id="Stroke-36" stroke="#00ACD6" stroke-width="2"></path>
            </g>
        </g>
    </g>
</svg>