<?xml version="1.0" encoding="UTF-8"?>
<svg width="198px" height="198px" viewBox="0 0 198 198" version="1.1" xmlns="http://www.w3.org/2000/svg" xmlns:xlink="http://www.w3.org/1999/xlink">
    <!-- Generator: Sketch 52.5 (67469) - http://www.bohemiancoding.com/sketch -->
    <title>Console</title>
    <desc>Created with Sketch.</desc>
    <defs>
        <polygon id="path-1" points="0.0002 0 198 0 198 197.9997 0.0002 197.9997"></polygon>
        <polygon id="path-3" points="0 198 198 198 198 0 0 0"></polygon>
    </defs>
    <g id="Console" stroke="none" stroke-width="1" fill="none" fill-rule="evenodd">
        <g id="Group-28">
            <g id="Group-3">
                <mask id="mask-2" fill="white">
                    <use xlink:href="#path-1"></use>
                </mask>
                <g id="Clip-2"></g>
                <path d="M198.0002,98.9997 C198.0002,153.6767 153.6762,197.9997 99.0002,197.9997 C44.3242,197.9997 0.0002,153.6767 0.0002,98.9997 C0.0002,44.3237 44.3242,-0.0003 99.0002,-0.0003 C153.6762,-0.0003 198.0002,44.3237 198.0002,98.9997" id="Fill-1" fill="#FFFFFF" mask="url(#mask-2)"></path>
            </g>
            <mask id="mask-4" fill="white">
                <use xlink:href="#path-3"></use>
            </mask>
            <g id="Clip-5"></g>
            <polygon id="Fill-4" fill="#E4EFF1" mask="url(#mask-4)" points="49.617 120.224 121.613 120.224 121.613 47.479 49.617 47.479"></polygon>
            <path d="M80.8215,85.6071 L59.3415,85.6071 C55.4465,85.6071 52.2895,82.4501 52.2895,78.5551 C52.2895,74.6621 55.4465,71.5041 59.3415,71.5041 L80.8215,71.5041 C84.7165,71.5041 87.8735,74.6621 87.8735,78.5551 C87.8735,82.4501 84.7165,85.6071 80.8215,85.6071" id="Fill-6" fill="#05AAD1" mask="url(#mask-4)"></path>
            <path d="M84.7629,78.3816 C84.7629,80.8586 82.7549,82.8666 80.2779,82.8666 C77.8009,82.8666 75.7929,80.8586 75.7929,78.3816 C75.7929,75.9036 77.8009,73.8966 80.2779,73.8966 C82.7549,73.8966 84.7629,75.9036 84.7629,78.3816" id="Fill-7" fill="#E4EFF1" mask="url(#mask-4)"></path>
            <path d="M80.8215,64.3239 L59.3415,64.3239 C55.4465,64.3239 52.2895,61.1669 52.2895,57.2729 C52.2895,53.3789 55.4465,50.2209 59.3415,50.2209 L80.8215,50.2209 C84.7165,50.2209 87.8735,53.3789 87.8735,57.2729 C87.8735,61.1669 84.7165,64.3239 80.8215,64.3239" id="Fill-8" fill="#05AAD1" mask="url(#mask-4)"></path>
            <path d="M64.7155,57.2732 C64.7155,59.7502 62.7075,61.7572 60.2305,61.7572 C57.7535,61.7572 55.7445,59.7502 55.7445,57.2732 C55.7445,54.7952 57.7535,52.7882 60.2305,52.7882 C62.7075,52.7882 64.7155,54.7952 64.7155,57.2732" id="Fill-9" fill="#E4EFF1" mask="url(#mask-4)"></path>
            <path d="M80.8215,106.8904 L59.3415,106.8904 C55.4465,106.8904 52.2895,103.7334 52.2895,99.8384 C52.2895,95.9454 55.4465,92.7874 59.3415,92.7874 L80.8215,92.7874 C84.7165,92.7874 87.8735,95.9454 87.8735,99.8384 C87.8735,103.7334 84.7165,106.8904 80.8215,106.8904" id="Fill-10" fill="#05AAD1" mask="url(#mask-4)"></path>
            <path d="M64.7155,99.6648 C64.7155,102.1418 62.7075,104.1498 60.2305,104.1498 C57.7535,104.1498 55.7445,102.1418 55.7445,99.6648 C55.7445,97.1868 57.7535,95.1798 60.2305,95.1798 C62.7075,95.1798 64.7155,97.1868 64.7155,99.6648" id="Fill-11" fill="#E4EFF1" mask="url(#mask-4)"></path>
            <path d="M42.962,115.912 L42.962,41.167 L116.958,41.167 L116.958,115.912 L42.962,115.912 Z M114.958,113.912 L114.958,43.167 L44.962,43.167 L44.962,113.912 L114.958,113.912 Z" id="Stroke-12" fill="#05AAD1" fill-rule="nonzero" mask="url(#mask-4)"></path>
            <polygon id="Stroke-13" fill="#05AAD1" fill-rule="nonzero" mask="url(#mask-4)" points="69.591 132.5857 66.591 132.5857 66.591 114.5037 69.591 114.5037"></polygon>
            <polygon id="Stroke-14" fill="#05AAD1" fill-rule="nonzero" mask="url(#mask-4)" points="107.5983 132.5857 104.5983 132.5857 104.5983 114.5037 107.5983 114.5037"></polygon>
            <polygon id="Stroke-15" fill="#05AAD1" fill-rule="nonzero" mask="url(#mask-4)" points="144.3732 132.5857 141.3732 132.5857 141.3732 111.2627 144.3732 111.2627"></polygon>
            <polygon id="Stroke-16" fill="#05AAD1" fill-rule="nonzero" mask="url(#mask-4)" points="144.3732 96.5339 141.3732 96.5339 141.3732 75.2109 144.3732 75.2109"></polygon>
            <polygon id="Stroke-17" fill="#05AAD1" fill-rule="nonzero" mask="url(#mask-4)" points="116.1999 67.3659 116.1999 64.3659 137.8349 64.3659 137.8349 67.3659"></polygon>
            <polygon id="Stroke-18" fill="#05AAD1" fill-rule="nonzero" mask="url(#mask-4)" points="116.1999 106.5202 116.1999 103.5202 137.8349 103.5202 137.8349 106.5202"></polygon>
            <path d="M68.279,153.5154 C61.763,153.5154 56.481,148.2334 56.481,141.7164 C56.481,135.2014 61.763,129.9184 68.279,129.9184 C74.795,129.9184 80.077,135.2014 80.077,141.7164 C80.077,148.2334 74.795,153.5154 68.279,153.5154" id="Fill-19" fill="#BBCED0" mask="url(#mask-4)"></path>
            <path d="M105.6252,153.5154 C99.1092,153.5154 93.8272,148.2334 93.8272,141.7164 C93.8272,135.2014 99.1092,129.9184 105.6252,129.9184 C112.1412,129.9184 117.4232,135.2014 117.4232,141.7164 C117.4232,148.2334 112.1412,153.5154 105.6252,153.5154" id="Fill-20" fill="#BBCED0" mask="url(#mask-4)"></path>
            <path d="M142.9792,153.5154 C136.4632,153.5154 131.1812,148.2334 131.1812,141.7164 C131.1812,135.2014 136.4632,129.9184 142.9792,129.9184 C149.4952,129.9184 154.7772,135.2014 154.7772,141.7164 C154.7772,148.2334 149.4952,153.5154 142.9792,153.5154" id="Fill-21" fill="#BBCED0" mask="url(#mask-4)"></path>
            <path d="M131.1809,66.8698 C131.1809,60.3528 136.4629,55.0708 142.9789,55.0708 C149.4949,55.0708 154.7779,60.3528 154.7779,66.8698 C154.7779,73.3858 149.4949,78.6678 142.9789,78.6678 C136.4629,78.6678 131.1809,73.3858 131.1809,66.8698" id="Fill-22" fill="#BBCED0" mask="url(#mask-4)"></path>
            <path d="M131.1809,104.2927 C131.1809,97.7767 136.4629,92.4947 142.9789,92.4947 C149.4949,92.4947 154.7779,97.7767 154.7779,104.2927 C154.7779,110.8097 149.4949,116.0917 142.9789,116.0917 C136.4629,116.0917 131.1809,110.8097 131.1809,104.2927" id="Fill-23" fill="#BBCED0" mask="url(#mask-4)"></path>
            <polygon id="Fill-24" fill="#BBCED0" mask="url(#mask-4)" points="106.093 83.711 110.549 83.711 110.549 51.137 106.093 51.137"></polygon>
            <polygon id="Fill-25" fill="#BBCED0" mask="url(#mask-4)" points="98.443 83.711 102.9 83.711 102.9 51.137 98.443 51.137"></polygon>
            <path d="M65.7189,152.572 C59.2029,152.572 53.9209,147.29 53.9209,140.774 C53.9209,134.259 59.2029,128.976 65.7189,128.976 C72.2349,128.976 77.5169,134.259 77.5169,140.774 C77.5169,147.29 72.2349,152.572 65.7189,152.572 Z" id="Stroke-26" stroke="#05AAD1" stroke-width="2" mask="url(#mask-4)"></path>
            <path d="M102.8342,152.572 C96.3182,152.572 91.0362,147.29 91.0362,140.774 C91.0362,134.259 96.3182,128.976 102.8342,128.976 C109.3502,128.976 114.6322,134.259 114.6322,140.774 C114.6322,147.29 109.3502,152.572 102.8342,152.572 Z" id="Stroke-27" stroke="#05AAD1" stroke-width="2" mask="url(#mask-4)"></path>
        </g>
    </g>
</svg>