<?xml version="1.0" encoding="UTF-8"?>
<svg width="198px" height="198px" viewBox="0 0 198 198" version="1.1" xmlns="http://www.w3.org/2000/svg" xmlns:xlink="http://www.w3.org/1999/xlink">
    <!-- Generator: Sketch 52.5 (67469) - http://www.bohemiancoding.com/sketch -->
    <title>Exchange</title>
    <desc>Created with Sketch.</desc>
    <defs>
        <polygon id="path-1" points="0 0 198 0 198 197.9998 0 197.9998"></polygon>
    </defs>
    <g id="Exchange" stroke="none" stroke-width="1" fill="none" fill-rule="evenodd">
        <g id="Group-30">
            <g id="Group-3">
                <mask id="mask-2" fill="white">
                    <use xlink:href="#path-1"></use>
                </mask>
                <g id="Clip-2"></g>
                <path d="M198,98.9998 C198,153.6768 153.676,197.9998 99,197.9998 C44.324,197.9998 0,153.6768 0,98.9998 C0,44.3238 44.324,-0.0002 99,-0.0002 C153.676,-0.0002 198,44.3238 198,98.9998" id="Fill-1" fill="#FFFFFF" mask="url(#mask-2)"></path>
            </g>
            <path d="M124.9404,141.9915 C100.9994,141.9915 81.5894,122.5835 81.5894,98.6405 C81.5894,74.6985 100.9994,55.2905 124.9404,55.2905 C148.8824,55.2905 168.2924,74.6985 168.2924,98.6405 C168.2924,122.5835 148.8824,141.9915 124.9404,141.9915" id="Fill-4" fill="#BCCFD1"></path>
            <polygon id="Fill-6" fill="#E4EFF1" points="92.878 107.204 141.261 107.204 141.261 90.077 92.878 90.077"></polygon>
            <polygon id="Fill-8" fill="#E4EFF1" points="135.5928 112.9075 135.5928 84.3745 149.8608 98.6405"></polygon>
            <path d="M116.9404,141.9915 C92.9984,141.9915 73.5894,122.5835 73.5894,98.6405 C73.5894,74.6985 92.9984,55.2905 116.9404,55.2905 C140.8824,55.2905 160.2914,74.6985 160.2914,98.6405 C160.2914,122.5835 140.8824,141.9915 116.9404,141.9915 Z" id="Stroke-10" stroke="#05AAD1" stroke-width="2"></path>
            <path d="M78.6538,141.9915 C54.7118,141.9915 35.3028,122.5835 35.3028,98.6405 C35.3028,74.6985 54.7118,55.2905 78.6538,55.2905 C102.5958,55.2905 122.0048,74.6985 122.0048,98.6405 C122.0048,122.5835 102.5958,141.9915 78.6538,141.9915" id="Fill-12" fill="#E4EFF1"></path>
            <path d="M70.7866,141.9915 C46.8446,141.9915 27.4356,122.5835 27.4356,98.6405 C27.4356,74.6985 46.8446,55.2905 70.7866,55.2905 C94.7286,55.2905 114.1376,74.6985 114.1376,98.6405 C114.1376,122.5835 94.7286,141.9915 70.7866,141.9915 Z" id="Stroke-14" stroke="#05AAD1" stroke-width="2"></path>
            <path d="M74.4336,123.4847 C67.7976,123.4847 61.5586,120.9007 56.8666,116.2077 C52.1736,111.5157 49.5896,105.2767 49.5896,98.6407 C49.5896,92.0037 52.1746,85.7657 56.8676,81.0737 C61.5586,76.3817 67.7976,73.7967 74.4336,73.7967 C81.0696,73.7967 87.3086,76.3817 92.0006,81.0737 L82.1016,90.9737 C80.0536,88.9247 77.3296,87.7967 74.4336,87.7967 C71.5376,87.7967 68.8146,88.9247 66.7666,90.9727 C64.7176,93.0217 63.5896,95.7447 63.5896,98.6407 C63.5896,101.5367 64.7176,104.2597 66.7666,106.3077 C68.8146,108.3567 71.5376,109.4847 74.4336,109.4847 C77.3296,109.4847 80.0536,108.3567 82.1016,106.3077 L92.0006,116.2087 C87.3086,120.9007 81.0696,123.4847 74.4336,123.4847" id="Fill-16" fill="#05AAD1"></path>
            <path d="M87.4028,41.1614 L126.2448,41.1614" id="Stroke-18" stroke="#05AAD1" stroke-width="2"></path>
            <path d="M87.4028,48.6756 L115.6678,48.6756" id="Stroke-20" stroke="#05AAD1" stroke-width="2"></path>
            <path d="M87.4028,156.0364 L115.6678,156.0364" id="Stroke-22" stroke="#05AAD1" stroke-width="2"></path>
            <path d="M76.8262,148.5208 L115.6682,148.5208" id="Stroke-24" stroke="#05AAD1" stroke-width="2"></path>
            <polygon id="Fill-26" fill="#05AAD1" points="69.891 84.852 75.837 84.852 75.837 67.164 69.891 67.164"></polygon>
            <polygon id="Fill-28" fill="#05AAD1" points="69.891 128.739 75.837 128.739 75.837 111.052 69.891 111.052"></polygon>
        </g>
    </g>
</svg>