<?xml version="1.0" encoding="UTF-8"?>
<svg width="130px" height="23px" viewBox="0 0 130 23" version="1.1" xmlns="http://www.w3.org/2000/svg" xmlns:xlink="http://www.w3.org/1999/xlink">
    <!-- Generator: Sketch 52.5 (67469) - http://www.bohemiancoding.com/sketch -->
    <title>CodechainLogo_Color</title>
    <desc>Created with Sketch.</desc>
    <defs>
        <polygon id="path-1" points="0 0.00983691642 23.1405739 0.00983691642 23.1405739 11.0964686 0 11.0964686"></polygon>
        <polygon id="path-3" points="0 23 130 23 130 0 0 0"></polygon>
    </defs>
    <g id="CodechainLogo_Color" stroke="none" stroke-width="1" fill="none" fill-rule="evenodd">
        <g id="Group-25-Copy">
            <path d="M17.523511,11.0964912 C14.60232,11.0964912 12.2257053,8.74334092 12.2257053,5.85076337 C12.2257053,2.95841347 14.60232,0.605263158 17.523511,0.605263158 C20.4447019,0.605263158 22.8213166,2.95841347 22.8213166,5.85076337 C22.8213166,6.56093145 22.2397226,7.13666958 21.522473,7.13666958 C20.8053385,7.13666958 20.2236295,6.56093145 20.2236295,5.85076337 C20.2236295,4.37658692 19.0123871,3.1771894 17.523511,3.1771894 C16.0346348,3.1771894 14.8233925,4.37658692 14.8233925,5.85076337 C14.8233925,7.32516747 16.0346348,8.52456498 17.523511,8.52456498 C18.2407605,8.52456498 18.8223545,9.10030311 18.8223545,9.81047119 C18.8223545,10.5206393 18.2407605,11.0964912 17.523511,11.0964912" id="Fill-1" fill="#F76061"></path>
            <g id="Group-5" transform="translate(0.000000, 11.903509)">
                <mask id="mask-2" fill="white">
                    <use xlink:href="#path-1"></use>
                </mask>
                <g id="Clip-4"></g>
                <path d="M12.0513397,6.3570213 L10.9931115,6.3570213 C10.5694999,6.3570213 10.2261021,6.01721957 10.2261021,5.59804395 C10.2261021,5.17898156 10.5694999,4.83917982 10.9931115,4.83917982 L12.0513397,4.83917982 C12.4748369,4.83917982 12.8182347,5.17898156 12.8182347,5.59804395 C12.8182347,6.01721957 12.4748369,6.3570213 12.0513397,6.3570213 M23.1342427,5.28643636 C22.9986458,2.42410777 20.6343389,0.113886233 17.7403458,0.0133384354 C15.6069542,-0.0607136591 13.728851,1.04621796 12.7205133,2.7247321 C12.4851354,3.11661941 12.0662153,3.36425233 11.605529,3.36425233 L11.5349271,3.36425233 C11.0743553,3.36425233 10.6554351,3.11661941 10.4200572,2.7247321 C9.41171955,1.04621796 7.53373076,-0.0607136591 5.40022473,0.0133384354 C2.50623165,0.113886233 0.14192478,2.42410777 0.00632785645,5.28643636 C-0.144487963,8.46920444 2.4186944,11.0964686 5.60207534,11.0964686 C7.65365108,11.0964686 9.44719216,10.004823 10.4230323,8.37669594 C10.6560073,7.98786583 11.0714946,7.74204458 11.5282903,7.74204458 L11.6122803,7.74204458 C12.069076,7.74204458 12.4845633,7.98786583 12.7175382,8.37669594 C13.6933784,10.004823 15.4869195,11.0964686 17.5386096,11.0964686 C20.7218761,11.0964686 23.2850585,8.46920444 23.1342427,5.28643636" id="Fill-3" fill="#1C627A" mask="url(#mask-2)"></path>
            </g>
            <path d="M2.74435335,10.3698067 C3.14037693,10.6040495 3.39069588,11.0209493 3.39069588,11.4794137 L3.39069588,11.5495613 C3.39069588,12.0080258 3.14037693,12.4249255 2.74435335,12.6591683 C2.74034733,12.6615597 2.73622685,12.6639511 2.73222083,12.6663425 L2.7428654,12.6653176 C3.52781618,12.1979708 4.43500777,11.9163556 5.4016029,11.8825345 C6.55670983,11.8422224 7.63524457,12.1520788 8.54323737,12.7105263 C8.51439403,12.6927617 8.48669527,12.6734028 8.45750856,12.6563214 C8.06446088,12.4243561 7.81608771,12.0108727 7.81608771,11.55628 L7.81608771,11.472695 C7.81608771,11.0179885 8.06446088,10.6046189 8.45750856,10.3726536 C10.1032956,9.40163365 11.2068966,7.61674245 11.2068966,5.57494716 C11.2068966,2.40703289 8.55102049,-0.143787765 5.3337295,0.00630069979 C2.44035374,0.141243667 0.105073649,2.49414797 0.0035496843,5.37418391 C-0.0714200977,7.4972866 1.04763266,9.36633211 2.74435335,10.3698067" id="Fill-6" fill="#123447"></path>
            <path d="M38.2501762,10.6047959 C37.9327188,10.164484 37.3402074,9.82899765 36.6843179,9.82899765 C35.0975982,9.82899765 34.145453,10.8773645 34.145453,12.4077262 C34.145453,13.9383126 35.0975982,14.9866795 36.6843179,14.9866795 C37.3826107,14.9866795 37.890429,14.6302954 38.2501762,14.2108813 L40.3448276,16.3915428 C39.3502792,17.3978895 37.890429,17.754386 36.6843179,17.754386 C33.5106518,17.754386 30.9717868,15.6575399 30.9717868,12.4077262 C30.9717868,9.15802488 33.5106518,7.06140351 36.6843179,7.06140351 C37.890429,7.06140351 39.3502792,7.41789992 40.3448276,8.42424672 L38.2501762,10.6047959 Z" id="Fill-8" fill="#123447"></path>
            <path d="M46.967027,14.9867918 C48.5801121,14.9867918 49.5481245,13.938425 49.5481245,12.4078386 C49.5481245,10.8773645 48.5801121,9.82899765 46.967027,9.82899765 C45.3540572,9.82899765 44.3860448,10.8773645 44.3860448,12.4078386 C44.3860448,13.938425 45.3540572,14.9867918 46.967027,14.9867918 M46.967027,7.06140351 C50.1933124,7.06140351 52.7742947,9.15813723 52.7742947,12.4078386 C52.7742947,15.6576522 50.1933124,17.754386 46.967027,17.754386 C43.7408568,17.754386 41.1598746,15.6576522 41.1598746,12.4078386 C41.1598746,9.15813723 43.7408568,7.06140351 46.967027,7.06140351" id="Fill-10" fill="#123447"></path>
            <path d="M59.9313488,9.81028678 C58.3395764,9.81028678 57.3842855,10.8611287 57.3842855,12.395216 C57.3842855,13.929416 58.3395764,14.9802579 59.9313488,14.9802579 C61.5233487,14.9802579 62.4786396,13.929416 62.4786396,12.395216 C62.4786396,10.8611287 61.5233487,9.81028678 59.9313488,9.81028678 Z M65.4075235,17.5021208 L62.4786396,17.5021208 L62.4786396,16.1571198 L62.4359876,16.1571198 C61.9478213,16.8926303 60.7167142,17.754386 59.2734844,17.754386 C56.2169857,17.754386 54.200627,15.5685762 54.200627,12.4792293 C54.200627,9.64214757 55.983594,7.0361587 58.9125917,7.0361587 C60.2286616,7.0361587 61.459655,7.39349675 62.181213,8.3812724 L62.2237513,8.3812724 L62.2237513,1.61403509 L65.4075235,1.61403509 L65.4075235,17.5021208 Z" id="Fill-12" fill="#123447"></path>
            <path d="M75.2567319,11.2546462 C75.2780522,10.2063917 74.4482713,9.32576807 73.2993702,9.32576807 C71.8950817,9.32576807 71.1291476,10.2691971 71.0440945,11.2546462 L75.2567319,11.2546462 Z M77.9588214,15.7414677 C76.937614,17.0204955 75.2567319,17.754386 73.5971701,17.754386 C70.4057401,17.754386 67.8526646,15.6575399 67.8526646,12.4077262 C67.8526646,9.15802488 70.4057401,7.06140351 73.5971701,7.06140351 C76.5758532,7.06140351 78.4482759,9.15802488 78.4482759,12.4077262 L78.4482759,13.3931753 L71.0440945,13.3931753 C71.2993679,14.5882753 72.2142019,15.3640736 73.4483841,15.3640736 C74.4907978,15.3640736 75.1928851,14.839834 75.7248661,14.1269535 L77.9588214,15.7414677 Z" id="Fill-14" fill="#123447"></path>
            <path d="M87.3567592,10.6047959 C87.0393019,10.164484 86.4469039,9.82899765 85.790901,9.82899765 C84.2041813,9.82899765 83.2520361,10.8773645 83.2520361,12.4077262 C83.2520361,13.9383126 84.2041813,14.9866795 85.790901,14.9866795 C86.4893071,14.9866795 86.9970121,14.6302954 87.3567592,14.2108813 L89.4514107,16.3915428 C88.4568622,17.3978895 86.9970121,17.754386 85.790901,17.754386 C82.6172348,17.754386 80.0783699,15.6575399 80.0783699,12.4077262 C80.0783699,9.15802488 82.6172348,7.06140351 85.790901,7.06140351 C86.9970121,7.06140351 88.4568622,7.41789992 89.4514107,8.42424672 L87.3567592,10.6047959 Z" id="Fill-16" fill="#123447"></path>
            <path d="M93.8741648,1.61403509 L93.8741648,8.69783064 L93.9166922,8.69783064 C94.2152983,7.89672072 95.2608768,7.05335793 96.8181554,7.05335793 C100.060981,7.05335793 100.658307,9.16170842 100.658307,11.9022703 L100.658307,17.5526316 L97.4582379,17.5526316 L97.4582379,12.5348207 C97.4582379,11.3542257 97.4368599,9.83628568 95.7941836,9.83628568 C94.1300149,9.83628568 93.8741648,11.1223998 93.8741648,12.4504279 L93.8741648,17.5526316 L90.6739812,17.5526316 L90.6739812,1.61403509 L93.8741648,1.61403509 Z" id="Fill-18" fill="#123447"></path>
            <path d="M108.735059,13.0367913 C107.751497,13.0367913 105.570935,13.120719 105.570935,14.5044599 C105.570935,15.2592481 106.383218,15.6157445 107.088839,15.6157445 C108.350227,15.6157445 109.526147,14.9657818 109.526147,13.707764 L109.526147,13.0367913 L108.735059,13.0367913 Z M109.526147,16.2237996 L109.483299,16.2237996 C108.777907,17.3139618 107.495095,17.754386 106.190745,17.754386 C104.245274,17.754386 102.492163,16.6641114 102.492163,14.6093977 C102.492163,11.0870154 106.853632,11.0240977 109.526147,11.0240977 C109.526147,9.91281307 108.585434,9.19993259 107.473557,9.19993259 C106.426066,9.19993259 105.549396,9.66125445 104.865314,10.4160426 L103.154936,8.69681537 C104.330856,7.60654079 106.041234,7.06140351 107.730188,7.06140351 C111.471618,7.06140351 112.476489,8.92736395 112.476489,12.3239108 L112.476489,17.502715 L109.526147,17.502715 L109.526147,16.2237996 Z" id="Fill-20" fill="#123447"></path>
            <mask id="mask-4" fill="white">
                <use xlink:href="#path-3"></use>
            </mask>
            <g id="Clip-23"></g>
            <path d="M114.563353,17.5526316 L117.724936,17.5526316 L117.724936,7.28815661 L114.563353,7.28815661 L114.563353,17.5526316 Z M116.144088,2.21929825 C117.155894,2.21929825 117.978056,3.04300046 117.978056,4.05672686 C117.978056,5.07056644 117.155894,5.89415548 116.144088,5.89415548 C115.132395,5.89415548 114.310345,5.07056644 114.310345,4.05672686 C114.310345,3.04300046 115.132395,2.21929825 116.144088,2.21929825 Z" id="Fill-22" fill="#123447" mask="url(#mask-4)"></path>
            <path d="M120.015674,7.31416474 L123.087818,7.31416474 L123.087818,8.70452086 L123.130574,8.70452086 C123.55722,7.90401621 124.60257,7.06140351 126.159963,7.06140351 C129.402788,7.06140351 130,9.16804816 130,11.9066523 L130,17.5526316 L126.800045,17.5526316 L126.800045,12.5386119 C126.800045,11.3589089 126.778667,9.84222863 125.135991,9.84222863 C123.471708,9.84222863 123.215972,11.1272582 123.215972,12.4543957 L123.215972,17.5526316 L120.015674,17.5526316 L120.015674,7.31416474 Z" id="Fill-24" fill="#123447" mask="url(#mask-4)"></path>
        </g>
    </g>
</svg>
