<svg xmlns="http://www.w3.org/2000/svg" viewBox="0 0 202.07 202"><defs><style>.cls-1{fill:#e64d49;}</style></defs><title>image2back자산 3</title><g id="레이어_2" data-name="레이어 2"><g id="레이어_1-2" data-name="레이어 1"><path class="cls-1" d="M103.7,202a1,1,0,0,1,0-2l1,0a1,1,0,0,1,.07,2l-1,0Zm-6,0h0l-1,0a1,1,0,0,1-1-1,1,1,0,0,1,1-1l1,0a1,1,0,0,1,0,2Zm13-.4a1,1,0,0,1-.09-2l1-.1a1,1,0,1,1,.21,2l-1,.11Zm-19.91-.06h-.1l-1-.11a1,1,0,1,1,.22-2l1,.1a1,1,0,0,1-.1,2Zm26.83-.85a1,1,0,0,1-.16-2l1-.17a1,1,0,0,1,.35,2l-1,.17Zm-33.75-.11h-.17l-1-.18a1,1,0,0,1-.8-1.16,1,1,0,0,1,1.16-.8l1,.17a1,1,0,0,1-.17,2Zm40.59-1.27a1,1,0,0,1-.23-2l1-.24a1,1,0,0,1,.49,1.94l-1,.24A1,1,0,0,1,124.42,199.29ZM77,199.13a1,1,0,0,1-.24,0l-1-.24a1,1,0,0,1,.5-1.94l.95.24a1,1,0,0,1-.24,2Zm54.15-1.71a1,1,0,0,1-.3-1.95l.94-.3a1,1,0,0,1,1.26.64,1,1,0,0,1-.64,1.26l-1,.31A1,1,0,0,1,131.15,197.42Zm-60.86-.2a.84.84,0,0,1-.31-.05l-1-.31a1,1,0,0,1,.63-1.9l.95.31a1,1,0,0,1-.31,1.95Zm67.44-2.13a1,1,0,0,1-.36-1.93l.91-.36a1,1,0,0,1,1.3.55,1,1,0,0,1-.55,1.3l-.94.37A.89.89,0,0,1,137.73,195.09Zm-74-.25a1,1,0,0,1-.38-.07l-.93-.38a1,1,0,0,1,.77-1.85l.91.37a1,1,0,0,1-.37,1.93Zm80.41-2.53a1,1,0,0,1-.43-1.9l.89-.43a1,1,0,1,1,.88,1.79l-.9.44A1,1,0,0,1,144.12,192.31Zm-86.8-.3a1,1,0,0,1-.44-.11l-.9-.44a1,1,0,0,1,.89-1.79l.89.44a1,1,0,0,1-.44,1.9Zm93-2.93a1,1,0,0,1-.49-1.87l.85-.49a1,1,0,0,1,1.37.37,1,1,0,0,1-.36,1.36l-.88.5A1,1,0,0,1,150.3,189.08Zm-99.16-.35a1,1,0,0,1-.49-.14l-.88-.5a1,1,0,0,1,1-1.73l.85.5a1,1,0,0,1-.5,1.87Zm105.1-3.29a1,1,0,0,1-.55-1.84l.82-.55a1,1,0,0,1,1.12,1.66l-.83.56A1,1,0,0,1,156.24,185.44Zm-111-.41a1,1,0,0,1-.56-.17l-.84-.57A1,1,0,0,1,45,182.64l.82.56a1,1,0,0,1,.27,1.39A1,1,0,0,1,45.22,185Zm116.7-3.65a1,1,0,0,1-.79-.39,1,1,0,0,1,.18-1.4l.78-.61a1,1,0,0,1,1.23,1.58l-.79.62A1.06,1.06,0,0,1,161.92,181.38Zm-122.36-.45a1,1,0,0,1-.61-.22l-.79-.62a1,1,0,0,1,1.24-1.56l.78.61a1,1,0,0,1,.17,1.4A1,1,0,0,1,39.56,180.93Zm127.74-4a1,1,0,0,1-.75-.34,1,1,0,0,1,.09-1.41l.74-.66a1,1,0,0,1,1.34,1.49l-.76.67A1,1,0,0,1,167.3,176.94Zm-133.09-.5a1,1,0,0,1-.67-.25l-.75-.68A1,1,0,1,1,34.15,174l.73.66a1,1,0,0,1-.67,1.74Zm138.16-4.31a1,1,0,0,1-.72-1.7l.69-.7a1,1,0,0,1,1.42,0,1,1,0,0,1,0,1.41c-.23.25-.47.49-.7.73A1,1,0,0,1,172.37,172.13ZM29.18,171.6a1,1,0,0,1-.72-.3c-.23-.24-.46-.49-.7-.73a1,1,0,0,1,1.45-1.38l.69.71a1,1,0,0,1-.72,1.7ZM177.08,167a1,1,0,0,1-.64-.24,1,1,0,0,1-.11-1.41l.63-.75a1,1,0,0,1,1.54,1.28l-.65.77A1,1,0,0,1,177.08,167ZM24.5,166.42a1,1,0,0,1-.76-.35l-.65-.78a1,1,0,0,1,.13-1.4,1,1,0,0,1,1.41.13l.63.76a1,1,0,0,1-.12,1.41A1,1,0,0,1,24.5,166.42Zm156.94-4.89a1,1,0,0,1-.6-.2,1,1,0,0,1-.2-1.4l.58-.79a1,1,0,0,1,1.62,1.17l-.6.82A1,1,0,0,1,181.44,161.53Zm-161.25-.6a1,1,0,0,1-.81-.41l-.58-.81a1,1,0,1,1,1.62-1.17l.58.8a1,1,0,0,1-.81,1.59Zm165.21-5.15a1.09,1.09,0,0,1-.54-.16,1,1,0,0,1-.3-1.38l.53-.84a1,1,0,1,1,1.69,1.06l-.54.85A1,1,0,0,1,185.4,155.78Zm-169.12-.62a1,1,0,0,1-.85-.47l-.53-.85a1,1,0,0,1,.33-1.38,1,1,0,0,1,1.37.33l.52.84a1,1,0,0,1-.31,1.38A1,1,0,0,1,16.28,155.16ZM189,149.76a1,1,0,0,1-.48-.13,1,1,0,0,1-.39-1.35c.15-.29.31-.58.47-.87a1,1,0,0,1,1.76.94l-.48.89A1,1,0,0,1,189,149.76Zm-176.17-.63a1,1,0,0,1-.89-.53c-.16-.29-.31-.59-.47-.89a1,1,0,1,1,1.78-.92c.15.29.3.58.46.87a1,1,0,0,1-.41,1.35A1,1,0,0,1,12.78,149.13Zm179.3-5.62a1,1,0,0,1-.41-.09,1,1,0,0,1-.5-1.33l.41-.9a1,1,0,1,1,1.82.81l-.41.92A1,1,0,0,1,192.08,143.51ZM9.7,142.88a1,1,0,0,1-.91-.6l-.4-.91a1,1,0,1,1,1.83-.8l.4.9a1,1,0,0,1-.51,1.32A1,1,0,0,1,9.7,142.88Zm185.06-5.83a1,1,0,0,1-.35-.07,1,1,0,0,1-.59-1.28l.34-.94a1,1,0,0,1,1.88.69l-.34.94A1,1,0,0,1,194.76,137.05ZM7.08,136.42a1,1,0,0,1-.94-.65l-.34-1a1,1,0,1,1,1.88-.67l.34.93a1,1,0,0,1-.6,1.28A1,1,0,0,1,7.08,136.42Zm189.89-6a.9.9,0,0,1-.28,0,1,1,0,0,1-.68-1.24l.28-.95a1,1,0,1,1,1.92.55c-.09.32-.18.64-.28,1A1,1,0,0,1,197,130.42ZM4.91,129.79a1,1,0,0,1-1-.73c-.09-.32-.19-.64-.28-1a1,1,0,1,1,1.93-.53l.27.95a1,1,0,0,1-.68,1.24A1.45,1.45,0,0,1,4.91,129.79Zm193.81-6.13-.22,0a1,1,0,0,1-.76-1.2l.21-1a1,1,0,0,1,2,.41c-.07.33-.14.66-.22,1A1,1,0,0,1,198.72,123.66ZM3.21,123a1,1,0,0,1-1-.79l-.2-1a1,1,0,1,1,2-.4l.2,1A1,1,0,0,1,3.42,123,.76.76,0,0,1,3.21,123ZM200,116.8h-.15a1,1,0,0,1-.84-1.14c0-.32.1-.65.14-1a1,1,0,0,1,2,.28c0,.33-.09.66-.14,1A1,1,0,0,1,200,116.8ZM2,116.14a1,1,0,0,1-1-.86l-.13-1a1,1,0,1,1,2-.26L3,115a1,1,0,0,1-.85,1.12Zm198.77-6.28h-.07a1,1,0,0,1-.92-1.08c0-.32,0-.65.07-1a1,1,0,1,1,2,.13c0,.34,0,.67-.07,1A1,1,0,0,1,200.76,109.86ZM1.25,109.2a1,1,0,0,1-1-.93l-.07-1a1,1,0,1,1,2-.12l.06,1a1,1,0,0,1-.92,1.07Zm199.81-6.31h0a1,1,0,0,1-1-1v-1a1,1,0,1,1,2,0v1A1,1,0,0,1,201.06,102.89ZM1,102.23a1,1,0,0,1-1-1V100a1,1,0,0,1,1-1,1,1,0,0,1,1,1v1.21A1,1,0,0,1,1,102.23Zm199.88-6.32a1,1,0,0,1-1-.94c0-.33,0-.66-.07-1a1,1,0,0,1,2-.14l.06,1a1,1,0,0,1-.93,1.06ZM1.24,95H1.17A1,1,0,0,1,.24,94c0-.34,0-.67.08-1A1,1,0,0,1,1.39,92a1,1,0,0,1,.92,1.07c0,.33-.05.66-.07,1A1,1,0,0,1,1.24,95Zm199-6.07a1,1,0,0,1-1-.87c0-.33-.08-.65-.13-1a1,1,0,1,1,2-.28c0,.33.09.67.14,1a1,1,0,0,1-.87,1.12ZM2,88.09H1.82A1,1,0,0,1,1,87c.05-.34.09-.67.14-1a1,1,0,1,1,2,.3c0,.32-.09.65-.14,1A1,1,0,0,1,2,88.09Zm197.12-6a1,1,0,0,1-1-.81c-.06-.32-.13-.64-.2-1a1,1,0,0,1,2-.42c.07.33.14.66.2,1a1,1,0,0,1-.78,1.18ZM3.17,81.21l-.21,0A1,1,0,0,1,2.19,80l.21-1a1,1,0,0,1,1.95.43l-.21,1A1,1,0,0,1,3.17,81.21Zm194.29-5.92a1,1,0,0,1-1-.74l-.27-1a1,1,0,1,1,1.92-.55l.27,1a1,1,0,0,1-.69,1.23A1.26,1.26,0,0,1,197.46,75.29ZM4.85,74.44a1.35,1.35,0,0,1-.28,0,1,1,0,0,1-.68-1.24c.09-.32.18-.65.28-1a1,1,0,1,1,1.91.57l-.27.95A1,1,0,0,1,4.85,74.44Zm190.52-5.81a1,1,0,0,1-1-.67l-.33-.93a1,1,0,0,1,.59-1.28,1,1,0,0,1,1.29.59l.34,1a1,1,0,0,1-.61,1.28A1,1,0,0,1,195.37,68.63ZM7,67.8a.83.83,0,0,1-.34-.07,1,1,0,0,1-.6-1.28c.12-.31.23-.63.35-1a1,1,0,0,1,1.29-.58,1,1,0,0,1,.59,1.29c-.12.31-.24.62-.35.93A1,1,0,0,1,7,67.8Zm185.81-5.66a1,1,0,0,1-.92-.6l-.39-.9a1,1,0,0,1,1.82-.82c.14.31.27.62.41.92a1,1,0,0,1-.52,1.32A1,1,0,0,1,192.81,62.14ZM9.62,61.31a1,1,0,0,1-.4-.09,1,1,0,0,1-.51-1.32L9.13,59a1,1,0,1,1,1.81.84l-.4.9A1,1,0,0,1,9.62,61.31Zm180.19-5.46a1,1,0,0,1-.89-.54c-.15-.29-.3-.58-.46-.87a1,1,0,0,1,1.77-.94l.47.89a1,1,0,0,1-.43,1.35A1,1,0,0,1,189.81,55.85ZM12.69,55a1,1,0,0,1-.88-1.47l.48-.89a1,1,0,1,1,1.75,1l-.46.87A1,1,0,0,1,12.69,55Zm173.69-5.24a1,1,0,0,1-.86-.48c-.17-.28-.34-.56-.52-.84a1,1,0,1,1,1.7-1.06l.53.85a1,1,0,0,1-.33,1.38A1,1,0,0,1,186.38,49.79ZM16.19,49a1,1,0,0,1-.53-.15,1,1,0,0,1-.32-1.38l.54-.85a1,1,0,1,1,1.69,1.07l-.53.84A1,1,0,0,1,16.19,49Zm166.34-5a1,1,0,0,1-.82-.42l-.58-.8a1,1,0,0,1,1.62-1.18l.59.82a1,1,0,0,1-.23,1.39A1,1,0,0,1,182.53,44ZM20.1,43.19a1,1,0,0,1-.58-.19,1,1,0,0,1-.22-1.4l.59-.81a1,1,0,0,1,1.4-.21A1,1,0,0,1,21.5,42l-.59.8A1,1,0,0,1,20.1,43.19Zm158.18-4.75a1,1,0,0,1-.77-.37c-.21-.25-.42-.51-.64-.76A1,1,0,0,1,178.41,36l.64.77a1,1,0,0,1-.77,1.64ZM24.41,37.69a1,1,0,0,1-.77-1.64l.66-.77a1,1,0,1,1,1.51,1.3l-.63.75A1,1,0,0,1,24.41,37.69Zm149.25-4.48a1,1,0,0,1-.73-.32c-.23-.23-.45-.47-.68-.71a1,1,0,1,1,1.43-1.39c.24.24.47.49.7.73a1,1,0,0,1,0,1.41A1,1,0,0,1,173.66,33.21ZM29.08,32.5a1,1,0,0,1-.69-.28,1,1,0,0,1,0-1.41l.71-.72a1,1,0,0,1,1.42,1.4l-.69.71A1,1,0,0,1,29.08,32.5Zm139.6-4.19a1,1,0,0,1-.67-.26l-.74-.67a1,1,0,0,1,1.34-1.48l.75.67a1,1,0,0,1-.68,1.74ZM34.11,27.66a1,1,0,0,1-.75-.34,1,1,0,0,1,.08-1.41l.75-.67a1,1,0,0,1,1.32,1.5l-.74.66A1,1,0,0,1,34.11,27.66Zm129.27-3.89a1,1,0,0,1-.63-.22l-.77-.61a1,1,0,0,1,1.23-1.58L164,22a1,1,0,0,1,.16,1.41A1,1,0,0,1,163.38,23.77Zm-123.93-.6a1,1,0,0,1-.79-.39,1,1,0,0,1,.17-1.4l.8-.62a1,1,0,0,1,1.22,1.59l-.79.61A1,1,0,0,1,39.45,23.17ZM157.77,19.6a1,1,0,0,1-.57-.17l-.82-.56a1,1,0,0,1-.26-1.39,1,1,0,0,1,1.38-.27l.84.57a1,1,0,0,1,.25,1.39A1,1,0,0,1,157.77,19.6ZM45.09,19.06a1,1,0,0,1-.56-1.83l.84-.56a1,1,0,0,1,1.38.29,1,1,0,0,1-.28,1.38l-.82.55A1,1,0,0,1,45.09,19.06Zm106.79-3.22a1.06,1.06,0,0,1-.51-.14c-.28-.17-.56-.34-.85-.5a1,1,0,0,1-.37-1.37,1,1,0,0,1,1.37-.36l.87.51a1,1,0,0,1-.51,1.86ZM51,15.36a1,1,0,0,1-.87-.5,1,1,0,0,1,.37-1.36l.87-.5a1,1,0,0,1,1,1.74l-.86.49A1,1,0,0,1,51,15.36Zm94.75-2.87a1,1,0,0,1-.45-.1l-.89-.44a1,1,0,0,1,.88-1.8l.9.45a1,1,0,0,1-.44,1.89Zm-88.6-.41a1,1,0,0,1-.9-.56,1,1,0,0,1,.46-1.34l.91-.43a1,1,0,1,1,.86,1.8l-.89.43A1,1,0,0,1,57.15,12.08Zm82.24-2.49a1.09,1.09,0,0,1-.39-.08l-.91-.38a1,1,0,1,1,.75-1.85l.93.38a1,1,0,0,1-.38,1.93ZM63.52,9.24a1,1,0,0,1-.38-1.92l.93-.38a1,1,0,0,1,.74,1.86l-.92.37A1,1,0,0,1,63.52,9.24Zm69.32-2.11a1.19,1.19,0,0,1-.32,0l-.94-.31a1,1,0,0,1-.64-1.26,1,1,0,0,1,1.25-.64l1,.31a1,1,0,0,1,.63,1.27A1,1,0,0,1,132.84,7.13ZM70.07,6.85a1,1,0,0,1-.31-1.95l1-.3a1,1,0,1,1,.6,1.9l-.94.3A.81.81,0,0,1,70.07,6.85Zm56.07-1.7a.73.73,0,0,1-.25,0l-1-.24a1,1,0,1,1,.49-1.94l1,.25a1,1,0,0,1-.25,2ZM76.78,4.93a1,1,0,0,1-.24-2l1-.24a1,1,0,0,1,1.21.74A1,1,0,0,1,78,4.67L77,4.9Zm42.55-1.29-.19,0-1-.17a1,1,0,1,1,.35-2l1,.17a1,1,0,0,1-.18,2ZM83.61,3.48a1,1,0,0,1-.17-2l1-.17a1,1,0,0,1,.33,2l-1,.17Zm28.81-.87h-.11l-1-.1a1,1,0,0,1-.89-1.1,1,1,0,0,1,1.09-.89l1,.11a1,1,0,0,1,.89,1.1A1,1,0,0,1,112.42,2.61Zm-21.9-.1a1,1,0,0,1-.1-2l1-.1a1,1,0,1,1,.19,2l-1,.1Zm14.94-.44h0l-1,0a1,1,0,0,1-1-1,1,1,0,0,1,1-1l1,0a1,1,0,0,1,.95,1A1,1,0,0,1,105.46,2.07Zm-8,0a1,1,0,0,1,0-2l1,0a1,1,0,0,1,1,1,1,1,0,0,1-1,1l-1,0Z"/></g></g></svg>