<svg xmlns="http://www.w3.org/2000/svg" viewBox="0 0 502.79 290.64"><defs><style>.cls-1{fill:#fff;}.cls-2{fill:#087250;}</style></defs><title>back자산 1</title><g id="레이어_2" data-name="레이어 2"><g id="레이어_1-2" data-name="레이어 1"><path class="cls-1" d="M496.9,159.52l-1-.57c-5.11-2.95-10.24-5.86-15.37-8.78-10.79-6.15-22-12.5-32.77-19a15.67,15.67,0,0,0-8.14-2.61,16.59,16.59,0,0,0-8.21,2.53c-14.95,8.47-30,17.4-44.5,26-18.37,10.91-37.36,22.2-56.41,32.69-22.9,12.62-45.81,26.17-67.95,39.27-11.86,7-24.11,14.26-36.23,21.29-3,1.71-4.4,3-4.39,4s1.53,2.31,4.5,4c15.77,8.63,32.26,18.13,49,28.22,4.83,2.91,8.53,2.84,13.66-.23,12.74-7.67,25.83-15.22,38.49-22.52l13.6-7.86L384.07,231Q440,198.58,495.88,166.13c1.21-.71,2.35-1.52,3.57-2.39l1.17-.83C499.92,161.12,498.51,160.37,496.9,159.52Z"/><path class="cls-2" d="M502.76,163.06c-.8-3.13-3.09-4.34-4.92-5.31-.34-.17-.67-.35-1-.53q-7.68-4.42-15.38-8.79c-10.78-6.14-21.93-12.48-32.73-19-6.38-3.84-11.71-3.87-18.36-.11-15,8.48-30,17.41-44.54,26-18.35,10.9-37.33,22.17-56.36,32.65-22.93,12.63-45.84,26.19-68,39.29-11.85,7-24.1,14.27-36.21,21.29-3.85,2.23-5.41,3.9-5.39,5.76s1.68,3.56,5.54,5.68c15.75,8.63,32.21,18.11,48.93,28.18a14.57,14.57,0,0,0,7.58,2.41,15.76,15.76,0,0,0,8.14-2.64c12.72-7.66,25.81-15.2,38.45-22.5q6.81-3.93,13.61-7.87l42.95-24.91Q441,200.29,496.89,167.85c1.29-.74,2.47-1.59,3.72-2.48.57-.41,1.15-.82,1.75-1.23A1,1,0,0,0,502.76,163.06Zm-3.31.68c-1.22.87-2.36,1.68-3.57,2.39Q440,198.56,384.07,231l-42.94,24.92-13.6,7.86c-12.66,7.3-25.75,14.85-38.49,22.52-5.13,3.07-8.83,3.14-13.66.23-16.74-10.09-33.23-19.59-49-28.22-3-1.64-4.49-3-4.5-4s1.42-2.3,4.39-4c12.12-7,24.37-14.28,36.23-21.29,22.14-13.1,45.05-26.65,67.95-39.27,19.05-10.49,38-21.78,56.41-32.69,14.53-8.62,29.55-17.55,44.5-26a16.59,16.59,0,0,1,8.21-2.53,15.67,15.67,0,0,1,8.14,2.61c10.82,6.52,22,12.87,32.77,19,5.13,2.92,10.26,5.83,15.37,8.78l1,.57c1.61.85,3,1.6,3.72,3.39Z"/><path class="cls-1" d="M239,58.29q17-9.72,33.89-19.46a54.52,54.52,0,0,0,4.67-3.14l1.6-1.15A5.14,5.14,0,0,0,276.39,32l-.56-.31-42-24.14L227.61,4a13.52,13.52,0,0,0-6.84-2,15.76,15.76,0,0,0-8.15,2.57c-10.79,6.5-22.67,13.5-37.39,22q-44.91,26-89.86,52Q46.64,100.93,7.94,123.33C5.16,124.94,2,126.76,2,127.54s3.16,2.61,6.21,4.37l11.88,6.81c10.87,6.2,22.1,12.62,33,19.21,5.49,3.32,9.65,3.29,15.33-.1,39.71-23.7,80.2-47.32,114.57-67.31C201.61,79.7,220.6,68.82,239,58.29Z"/><path class="cls-2" d="M273.85,40.57c1.69-1,3.29-2.14,4.84-3.26.72-.52,1.44-1,2.17-1.55a1,1,0,0,0,.4-1c-.61-2.64-2.44-3.65-3.91-4.46l-.52-.29q-21-12.09-42-24.14l-6.24-3.59c-5.52-3.17-11.08-3-17,.62-10.78,6.49-22.65,13.49-37.36,22q-44.91,26-89.86,52Q45.64,99.2,6.94,121.59c-4.81,2.79-6.94,4.09-6.94,6s2.41,3.34,7.21,6.1q5.94,3.42,11.89,6.81c10.85,6.2,22.08,12.62,32.95,19.19a16.41,16.41,0,0,0,8.56,2.77,17.17,17.17,0,0,0,8.83-2.86c39.71-23.7,80.19-47.32,114.56-67.3,18.61-10.82,37.59-21.7,56-32.23Q256.91,50.32,273.85,40.57ZM53.09,157.93c-10.9-6.59-22.13-13-33-19.21L8.21,131.91C5.16,130.15,2,128.33,2,127.54s3.16-2.6,5.94-4.21q38.7-22.41,77.43-44.78,44.94-26,89.86-52c14.72-8.52,26.6-15.52,37.39-22A15.76,15.76,0,0,1,220.77,2a13.52,13.52,0,0,1,6.84,2l6.25,3.58,42,24.14.56.31a5.14,5.14,0,0,1,2.73,2.54l-1.6,1.15a54.52,54.52,0,0,1-4.67,3.14Q255.93,48.6,239,58.29C220.6,68.82,201.61,79.7,183,90.52c-34.37,20-74.86,43.61-114.57,67.31C62.74,161.22,58.58,161.25,53.09,157.93Z"/></g></g></svg>